<?xml version="1.0" encoding="UTF-8"?><svg id="_レイヤー_2" xmlns="http://www.w3.org/2000/svg" viewBox="0 0 317.84619 27.45007"><defs><style>.cls-1{fill:#fff;}</style></defs><g id="text"><g><path class="cls-1" d="M8.8999,24.80005c0,.23364,.0752,.42505,.2251,.57495,.1499,.15002,.5415,.25867,1.17529,.32507v.59998H0v-.59998c.63281-.06641,1.0249-.17505,1.17529-.32507,.14941-.1499,.22461-.34131,.22461-.57495V1.5c0-.23279-.0752-.42493-.22461-.57495-.15039-.15002-.54248-.25781-1.17529-.32495V0H17.8999c1.56641,0,2.9502,.2251,4.15039,.67505,1.19971,.44995,2.19971,1.05859,3,1.82495,.7998,.76721,1.39941,1.65869,1.7998,2.67505,.3999,1.01721,.59961,2.07495,.59961,3.17505,0,1.09998-.19971,2.15857-.59961,3.17493-.40039,1.01721-1,1.90002-1.7998,2.65002-.80029,.75-1.80029,1.34998-3,1.80005-1.2002,.44995-2.58398,.67493-4.15039,.67493H8.8999v8.15002Zm7.6001-13.44995c1.3999,0,2.42529-.23291,3.07471-.70007,.65039-.46643,.97559-1.23279,.97559-2.29993,0-.96643-.3252-1.6665-.97559-2.1001-.64941-.43274-1.6748-.6499-3.07471-.6499h-7.6001v5.75h7.6001Z"/><path class="cls-1" d="M32.69971,5.80005c0-.36646-.11719-.59998-.3501-.69995-.23389-.1001-.48389-.1665-.75-.20007v-.59998h16.05029c2.5,0,4.49121,.58362,5.97461,1.75,1.48291,1.16724,2.2251,2.90002,2.2251,5.19995,0,1.80005-.5249,3.2251-1.57471,4.27502-1.05029,1.05005-2.375,1.875-3.97559,2.47498l4.4502,6.70007c.1665,.26721,.4082,.5,.7251,.69995,.31641,.20007,.65771,.30005,1.0249,.30005v.59998h-10.09961v-.59998c.23242,0,.49121-.04138,.77441-.125,.2832-.08289,.42529-.25781,.42529-.52502,0-.16638-.17529-.58276-.5249-1.25-.3501-.66638-.75-1.38281-1.2002-2.15002-.4502-.76636-.88379-1.5-1.2998-2.19995-.41699-.70007-.6748-1.15002-.77539-1.34998h-4.7998v6.69995c0,.36719,.125,.59998,.375,.69995,.25,.1001,.55762,.16724,.9248,.20007v.59998h-8.59961v-.59998c.2002-.03284,.41602-.09998,.6499-.20007,.23291-.09998,.3501-.33276,.3501-.69995V5.80005Zm13.3999,8.09998c1.06641,0,1.90771-.22498,2.5249-.67493,.61621-.45007,.9248-1.125,.9248-2.02502,0-.76648-.2583-1.40784-.77441-1.92505-.51758-.51636-1.52539-.77502-3.02539-.77502h-6.75v5.40002h7.1001Z"/><path class="cls-1" d="M72.59912,4c1.56641,0,3.1416,.21729,4.7251,.65002,1.58252,.43359,3.01611,1.10864,4.2998,2.02502,1.28271,.91724,2.3252,2.09216,3.125,3.52502,.80029,1.43359,1.2002,3.13354,1.2002,5.09998,0,2-.3999,3.70862-1.2002,5.125-.7998,1.41724-1.84229,2.57495-3.125,3.47498-1.28369,.90002-2.71729,1.55005-4.2998,1.95007-1.5835,.3999-3.15869,.59998-4.7251,.59998-1.56738,0-3.14209-.20007-4.7251-.59998-1.5835-.40002-3.01709-1.05005-4.2998-1.95007-1.28369-.90002-2.3252-2.05774-3.125-3.47498-.80029-1.41638-1.2002-3.125-1.2002-5.125,0-1.96643,.3999-3.66638,1.2002-5.09998,.7998-1.43286,1.84131-2.60779,3.125-3.52502,1.28271-.91638,2.71631-1.59143,4.2998-2.02502,1.58301-.43274,3.15771-.65002,4.7251-.65002Zm0,5.30005c-.93359,0-1.81738,.14294-2.6499,.42737-.8335,.2843-1.56738,.68591-2.2002,1.20471-.6333,.51868-1.125,1.14685-1.4751,1.88281-.34961,.73669-.5249,1.57336-.5249,2.51013,0,.9375,.17529,1.77417,.5249,2.51013,.3501,.73669,.8418,1.36401,1.4751,1.88281,.63281,.5188,1.3667,.92114,2.2002,1.20544,.83252,.28442,1.71631,.42664,2.6499,.42664,.96631,0,1.85791-.14221,2.6748-.42664,.81641-.2843,1.5415-.68665,2.17529-1.20544,.63281-.5188,1.125-1.14612,1.4751-1.88281,.34961-.73596,.5249-1.57263,.5249-2.51013,0-.93677-.17529-1.77344-.5249-2.51013-.3501-.73596-.84229-1.36414-1.4751-1.88281-.63379-.5188-1.35889-.92041-2.17529-1.20471-.81689-.28442-1.7085-.42737-2.6748-.42737Z"/><path class="cls-1" d="M90.99902,5.80005c0-.36646-.125-.59998-.375-.69995-.25-.1001-.55859-.1665-.92529-.20007v-.59998h15c1.8667,0,3.4502,.30005,4.75,.90002,1.30029,.59998,2.375,1.40002,3.2251,2.40002s1.46631,2.16711,1.8501,3.5c.38281,1.3335,.5752,2.73352,.5752,4.19995,0,1.46716-.19238,2.86719-.5752,4.19995-.38379,1.33362-1,2.5-1.8501,3.5s-1.9248,1.80005-3.2251,2.40002c-1.2998,.59998-2.8833,.90002-4.75,.90002h-15v-.59998c.3667-.03284,.67529-.09998,.92529-.20007,.25-.09998,.375-.33276,.375-.69995V5.80005Zm10.2998,15.69995c2.6001,0,4.46631-.45776,5.6001-1.375,1.13281-.91638,1.7002-2.5249,1.7002-4.82495s-.56738-3.90784-1.7002-4.82495c-1.13379-.9165-3-1.375-5.6001-1.375h-3.6001v12.3999h3.6001Z"/><path class="cls-1" d="M120.89844,5.80005c0-.36646-.14209-.59998-.42529-.69995-.2832-.1001-.625-.1665-1.02441-.20007v-.59998h9v.59998c-.16748,.03357-.35059,.09998-.55029,.20007-.19971,.09998-.30029,.3335-.30029,.69995v12.15002c0,1.26721,.45801,2.17493,1.375,2.72498,.91699,.55005,2.125,.82495,3.625,.82495s2.70801-.2749,3.625-.82495c.91699-.55005,1.375-1.45776,1.375-2.72498V5.80005c0-.36646-.09961-.59998-.2998-.69995-.2002-.1001-.38379-.1665-.5498-.20007v-.59998h9v.59998c-.40039,.03357-.74219,.09998-1.02539,.20007-.2832,.09998-.4248,.3335-.4248,.69995v11c0,1.33362-.2002,2.59216-.59961,3.77502-.40039,1.18359-1.05029,2.21716-1.9502,3.09998-.90039,.88354-2.1001,1.56714-3.6001,2.05005-1.5,.48352-3.3501,.72498-5.55029,.72498-2.19971,0-4.0498-.24146-5.5498-.72498-1.5-.48291-2.7002-1.1665-3.59961-2.05005-.90039-.88281-1.55029-1.91638-1.9502-3.09998-.40039-1.18286-.6001-2.44141-.6001-3.77502V5.80005Z"/><path class="cls-1" d="M171.94775,12.75l-.7002-.34998c.0332-.13281,.0752-.26636,.125-.40002,.05078-.13281,.0752-.28271,.0752-.44995,0-.19995-.20801-.43286-.625-.69995-.41699-.26648-.9502-.50781-1.59961-.7251-.65039-.21631-1.38379-.40771-2.2002-.57495-.81738-.16638-1.64209-.25-2.47461-.25-.93359,0-1.88379,.11719-2.85059,.35156s-1.83301,.59448-2.59961,1.07971c-.76758,.48511-1.40039,1.10388-1.90039,1.85706-.5,.75305-.75,1.66553-.75,2.73669,0,1.03748,.25,1.94141,.75,2.71167,.5,.77039,1.13281,1.39771,1.90039,1.88281,.7666,.48523,1.63281,.8446,2.59961,1.07898s1.91699,.35156,2.85059,.35156c1,0,1.94141-.125,2.82422-.375s1.66699-.55005,2.35059-.90002c.68262-.34998,1.21582-.70007,1.59961-1.05005,.38281-.34998,.5752-.60779,.5752-.77502v-.44995c0-.19995-.01758-.34998-.0498-.44995l.5498-.3501,4.75,6.82581-.59961,.34692c-.30078-.36328-.56738-.54529-.80078-.54529-.13281,0-.49219,.14917-1.07422,.44604-.58398,.29688-1.35938,.63513-2.3252,1.01489-.96777,.37964-2.1084,.70154-3.4248,.96558-1.31738,.26404-2.77539,.39612-4.375,.39612-1.83398,0-3.625-.18286-5.375-.55005-1.75-.36633-3.30859-.99133-4.67529-1.875-1.36719-.88281-2.46729-2.04138-3.30029-3.47498-.83301-1.43286-1.25-3.18286-1.25-5.25,0-2.03284,.41699-3.76636,1.25-5.19995,.83301-1.43286,1.93311-2.6001,3.30029-3.5,1.3667-.90002,2.92529-1.55786,4.67529-1.9751,1.75-.41638,3.54102-.625,5.375-.625,1.09961,0,2.16602,.09229,3.19922,.27502,1.0332,.18359,1.9834,.375,2.85059,.57507,.86621,.19995,1.61621,.39209,2.25,.57495,.63281,.18359,1.08301,.27502,1.34961,.27502,.16699,0,.31641-.05005,.4502-.15002,.13281-.09998,.23242-.19995,.2998-.30005l.60059,.20007-3.60059,7.29993Z"/><path class="cls-1" d="M201.74756,4.30005c.2002,0,.40039-.06641,.59961-.19995,.2002-.13281,.30078-.43286,.30078-.90002h.59961v7.29993h-.59961c0-.46631-.10059-.76636-.30078-.8999-.19922-.13281-.39941-.20007-.59961-.20007h-7.15039v15.40002c0,.36719,.125,.59998,.375,.69995,.25,.1001,.50781,.16724,.77539,.20007v.59998h-9v-.59998c.2666-.03284,.52539-.09998,.77539-.20007,.25-.09998,.375-.33276,.375-.69995V9.40002h-7.15039c-.2002,0-.40039,.06726-.59961,.20007-.2002,.13354-.30078,.43359-.30078,.8999h-.59961V3.20007h.59961c0,.46716,.10059,.76721,.30078,.90002,.19922,.13354,.39941,.19995,.59961,.19995h21Z"/><path class="cls-1" d="M248.04736,20.20007c.2666,0,.46582-.09143,.59961-.27502,.13281-.18286,.2334-.55786,.2998-1.125h.60059v8.65002h-.60059c-.06641-.53357-.16699-.85864-.2998-.97498-.13379-.11719-.33301-.17505-.59961-.17505h-26.10059v-.59998c.63281-.06641,1.02539-.17505,1.17578-.32507,.14941-.1499,.22461-.34131,.22461-.57495V1.5c0-.23279-.0752-.42493-.22461-.57495-.15039-.15002-.54297-.25781-1.17578-.32495V0h10.30078V.6001c-.63379,.06714-1.02539,.17493-1.17578,.32495-.14941,.15002-.22461,.34216-.22461,.57495V20.20007h17.2002Z"/><path class="cls-1" d="M263.29639,4.90002c-.5,.03357-.8916,.09998-1.1748,.20007-.2832,.09998-.4248,.3335-.4248,.69995V24.80005c0,.36719,.1416,.59998,.4248,.69995,.2832,.1001,.6748,.16724,1.1748,.20007v.59998h-9.89941v-.59998c.5-.03284,.8916-.09998,1.1748-.20007,.2832-.09998,.4248-.33276,.4248-.69995V5.80005c0-.36646-.1416-.59998-.4248-.69995-.2832-.1001-.6748-.1665-1.1748-.20007v-.59998h9.89941v.59998Z"/><path class="cls-1" d="M269.99658,18.95007c0,.06714-.00879,.14221-.02539,.22498-.0166,.08362-.02441,.19214-.02441,.32495,0,.33362,.31641,.65002,.94922,.95007,.63281,.29993,1.44141,.57495,2.42578,.82495,.98242,.25,2.0498,.45007,3.19922,.59998,1.15039,.15002,2.22559,.2251,3.22559,.2251,.2998,0,.70801-.01648,1.22461-.05005,.5166-.03284,1.02539-.125,1.52539-.27502s.9248-.36633,1.27441-.65002c.35059-.28271,.52539-.67493,.52539-1.17493,0-.66638-.40039-1.14148-1.2002-1.42505-.7998-.28284-1.80859-.5-3.02441-.65002-1.21777-.1499-2.53418-.30774-3.9502-.47498-1.41699-.16638-2.7334-.45776-3.9502-.875-1.2168-.41638-2.22461-1.01636-3.02539-1.79993-.7998-.78284-1.19922-1.875-1.19922-3.27502,0-.76648,.19922-1.59143,.59961-2.47498,.40039-.88281,1.0332-1.69141,1.90039-2.42505,.86621-.73279,2.00781-1.34143,3.4248-1.82495,1.41602-.48291,3.1416-.7251,5.1748-.7251,1.2002,0,2.3418,.06726,3.4248,.20007,1.08301,.13354,2.06641,.28357,2.9502,.44995,.88281,.16724,1.63281,.31726,2.25,.45007,.61621,.13354,1.05762,.19995,1.3252,.19995,.2666,0,.48242-.07495,.64941-.22498s.31641-.27502,.4502-.375l.5498,.19995-3,6.30005-.64941-.30005c0-.06641,.00781-.15002,.02441-.25s.02539-.19995,.02539-.29993c0-.13281-.2002-.30005-.59961-.5-.40039-.20007-.92578-.40002-1.5752-.6001-.65039-.19995-1.38379-.375-2.2002-.5249-.81738-.15002-1.6582-.2251-2.52539-.2251-.2998,0-.7666,.00867-1.39941,.02502-.63379,.01721-1.26758,.09998-1.90039,.25-.63379,.15002-1.19238,.36719-1.6748,.65002-.4834,.28357-.72461,.70862-.72461,1.27502,0,.59998,.39941,1.02502,1.19922,1.27502,.80078,.25,1.80859,.44995,3.02539,.59998,1.2168,.15002,2.5332,.31714,3.9502,.5,1.41602,.18359,2.73242,.49219,3.9502,.92493,1.21582,.43359,2.22461,1.05859,3.02441,1.875,.7998,.81726,1.2002,1.95862,1.2002,3.42505,0,.96716-.2168,1.89221-.65039,2.77502-.43359,.88354-1.09961,1.65857-2,2.32495-.89941,.66724-2.04199,1.17505-3.4248,1.52502-1.38379,.34998-3.02441,.52502-4.9248,.52502-1.2002,0-2.41699-.07507-3.65039-.22498-1.2334-.15002-2.36719-.33289-3.39941-.55005-1.03418-.21643-1.89258-.41638-2.5752-.59998-.68359-.18286-1.0752-.27502-1.1748-.27502-.2334,0-.44238,.07495-.625,.22498-.18359,.15002-.3584,.30859-.52539,.47498l-.5498-.1499,2.0498-6.70007,.65039,.30005Z"/><path class="cls-1" d="M316.34619,4.30005c.2002,0,.40039-.06641,.60059-.19995,.19922-.13281,.2998-.43286,.2998-.90002h.59961v7.29993h-.59961c0-.46631-.10059-.76636-.2998-.8999-.2002-.13281-.40039-.20007-.60059-.20007h-7.14941v15.40002c0,.36719,.125,.59998,.375,.69995,.25,.1001,.50781,.16724,.77441,.20007v.59998h-9v-.59998c.2666-.03284,.52539-.09998,.77539-.20007,.25-.09998,.375-.33276,.375-.69995V9.40002h-7.15039c-.2002,0-.39941,.06726-.59961,.20007-.2002,.13354-.2998,.43359-.2998,.8999h-.60059V3.20007h.60059c0,.46716,.09961,.76721,.2998,.90002,.2002,.13354,.39941,.19995,.59961,.19995h21Z"/></g></g></svg>