<?xml version="1.0" encoding="UTF-8"?><svg id="_レイヤー_2" xmlns="http://www.w3.org/2000/svg" viewBox="0 0 14.09413 14.97436"><defs><style>.cls-1{fill:#fff;}</style></defs><g id="text"><g><path class="cls-1" d="M5.96757,13.00851c-.17137-.11599-.37991-.18371-.6014-.18371-.14746,0-.28952,.03008-.41816,.08468-.19342,.0816-.35677,.21764-.47276,.38901-.11568,.1709-.18371,.37944-.18371,.60094,0,.14746,.03023,.28983,.08483,.41862,.08175,.19327,.21749,.35677,.38885,.47261,.17106,.11568,.37944,.18386,.60094,.18371,.14746,.00015,.28998-.03008,.41862-.08468,.19312-.0819,.35661-.21749,.4723-.38885,.11615-.17137,.18417-.37991,.18371-.6014,.00015-.14746-.02977-.28952-.08437-.41816-.08206-.19342-.21764-.35677-.38885-.47276Zm-.20191,1.05982c-.03255,.07712-.08823,.14391-.15718,.19065-.06956,.04689-.15147,.07373-.24232,.07404-.06062,0-.11676-.01219-.16844-.03409-.07743-.03255-.14391-.08807-.19096-.15733-.04689-.06956-.07373-.15131-.07373-.24216,0-.06062,.01203-.11676,.03378-.16828,.03285-.07759,.08823-.14437,.15748-.19096,.06941-.04689,.15116-.07373,.24186-.07404,.06077,.00031,.11723,.01219,.16874,.03393,.07728,.03285,.14407,.08792,.1908,.15748,.04658,.06956,.07373,.15101,.07388,.24186,0,.06093-.01234,.11692-.03393,.1689Z"/><path class="cls-1" d="M13.28295,2.51382H3.19624l-.34582-1.188-.00031-.00062c-.15872-.53168-.59477-.93411-1.13725-1.05041L.47104,.00872C.2608-.03632,.05396,.09756,.00877,.3078c-.04519,.21008,.08885,.41739,.29893,.46243l1.24198,.26623c.26422,.05645,.47677,.25296,.5542,.51194l2.26926,7.79571c-.0509,.02375-.10057,.04998-.14823,.0782-.24432,.14576-.44037,.35029-.57256,.58922-.12571,.2272-.1925,.48448-.19867,.74979h-.00123v.04057h.00123c.00494,.207,.0489,.40628,.12571,.58767,.12278,.29014,.327,.53569,.58444,.70968,.25682,.17383,.56963,.27594,.90233,.27564h7.29904c.21517,0,.38947-.1743,.38947-.38931s-.1743-.38962-.38947-.38962H5.06616c-.11615,0-.2252-.02314-.32469-.06525-.14962-.06309-.27764-.16936-.36757-.30294-.08669-.12818-.13759-.27965-.14144-.44546,.00416-.1979,.06694-.36957,.17769-.50685,.05769-.07095,.12864-.13311,.21456-.18448,.08437-.05059,.18463-.09054,.30186-.11599l7.33667-1.19432c.47955-.0782,.86053-.44438,.9574-.92038l.33379-1.64117,.50562-2.82007c.14268-.57117-.17137-.88521-.77709-.88521Zm-.00432,1.14234c-.05722,.28551-.43497,2.14956-.43497,2.14956l-.38623,1.89907c-.03208,.15887-.15949,.28103-.31929,.3071l-7.00937,1.14095L3.42298,3.29275H12.91755c.28566,0,.41816,.07774,.36109,.3634Z"/><path class="cls-1" d="M11.86174,13.00851c-.17137-.11599-.37991-.18371-.6014-.18371-.14746,0-.28952,.03008-.41847,.08468-.19342,.0816-.35677,.21764-.47245,.38901-.11568,.1709-.18371,.37944-.18371,.60094,0,.14746,.02992,.28983,.08437,.41862,.0819,.19327,.21779,.35677,.38916,.47261,.17106,.11568,.3796,.18386,.60109,.18371,.14746,.00015,.28983-.03008,.41862-.08468,.19327-.0819,.35661-.21749,.4723-.38885s.18401-.37991,.18371-.6014c0-.14746-.02977-.28952-.08437-.41816-.0819-.19342-.21749-.35677-.38885-.47276Zm-.20206,1.05982c-.03255,.07712-.08792,.14391-.15748,.19065-.06956,.04689-.15101,.07373-.24186,.07404-.06062,0-.11676-.01219-.16828-.03409-.07759-.03255-.14437-.08807-.19126-.15733-.04674-.06956-.07342-.15131-.07342-.24216,0-.06062,.01188-.11676,.03363-.16828,.03285-.07759,.08792-.14437,.15748-.19096,.06956-.04689,.15101-.07373,.24186-.07404,.06062,.00031,.11692,.01219,.16859,.03393,.07728,.03285,.14422,.08792,.19096,.15748s.07342,.15101,.07373,.24186c-.00031,.06093-.01219,.11692-.03393,.1689Z"/></g></g></svg>