<?xml version="1.0" encoding="UTF-8"?><svg id="_レイヤー_2" xmlns="http://www.w3.org/2000/svg" viewBox="0 0 174.19727 26.4502"><defs><style>.cls-1{fill:#fff;}</style></defs><g id="text"><g><path class="cls-1" d="M8.90039,24.80005c0,.23364,.07422,.42505,.22461,.57495,.15039,.15015,.54102,.25879,1.1748,.3252v.59985H0v-.59985c.63281-.06641,1.02539-.17505,1.1748-.3252,.15039-.1499,.22559-.34131,.22559-.57495V1.5c0-.23267-.0752-.4248-.22559-.57495-.14941-.1499-.54199-.25781-1.1748-.32495V0H17.90039c1.56641,0,2.94922,.2251,4.14941,.67505,1.2002,.44995,2.2002,1.05859,3,1.82495,.7998,.76733,1.40039,1.65869,1.7998,2.67505,.40039,1.01733,.60059,2.07495,.60059,3.17505s-.2002,2.15869-.60059,3.17505c-.39941,1.01709-1,1.8999-1.7998,2.6499s-1.7998,1.3501-3,1.80005c-1.2002,.44995-2.58301,.67505-4.14941,.67505H8.90039v8.1499Zm7.59961-13.44995c1.40039,0,2.4248-.23291,3.0752-.69995,.64941-.46655,.97461-1.23291,.97461-2.30005,0-.96631-.3252-1.6665-.97461-2.1001-.65039-.43262-1.6748-.6499-3.0752-.6499h-7.59961v5.75h7.59961Z"/><path class="cls-1" d="M41.34961,4.90015c-.5,.03345-.89258,.09985-1.1748,.19995-.28418,.1001-.4248,.3335-.4248,.69995V24.80005c0,.36719,.14062,.6001,.4248,.69995,.28223,.1001,.6748,.16724,1.1748,.2002v.59985h-9.90039v-.59985c.5-.03296,.8916-.1001,1.17578-.2002,.28223-.09985,.4248-.33276,.4248-.69995V5.80005c0-.36646-.14258-.59985-.4248-.69995-.28418-.1001-.67578-.1665-1.17578-.19995v-.6001h9.90039v.6001Z"/><path class="cls-1" d="M67.34961,12.75l-.7002-.34985c.03223-.13281,.0752-.26636,.125-.40015,.0498-.13281,.0752-.28271,.0752-.44995,0-.19995-.20898-.43286-.625-.69995-.41797-.26636-.9502-.50781-1.60059-.7251-.64941-.21631-1.38379-.40771-2.2002-.57495-.81641-.16626-1.6416-.25-2.47461-.25-.93359,0-1.88379,.11719-2.84961,.35156-.96777,.23438-1.83398,.59448-2.60059,1.07983-.7666,.48511-1.39941,1.10376-1.89941,1.85693s-.75,1.66553-.75,2.73682c0,1.03735,.25,1.94141,.75,2.71167s1.13281,1.39771,1.89941,1.88281,1.63281,.84448,2.60059,1.07886c.96582,.23438,1.91602,.35156,2.84961,.35156,1,0,1.94141-.125,2.8252-.375,.88281-.25,1.66602-.55005,2.34961-.8999,.68262-.3501,1.2168-.7002,1.60059-1.05005,.38281-.3501,.57422-.60791,.57422-.77515v-.44995c0-.19995-.0166-.34985-.0498-.44995l.5498-.3501,4.75,6.82593-.59961,.34692c-.2998-.36328-.56738-.54541-.7998-.54541-.13379,0-.49219,.14917-1.0752,.44604-.58398,.29688-1.3584,.63525-2.3252,1.01489s-2.1084,.70166-3.4248,.96558c-1.31738,.26416-2.77539,.39624-4.375,.39624-1.83398,0-3.625-.18286-5.375-.55005-1.75-.36646-3.30859-.99146-4.6748-1.875-1.36719-.88281-2.46777-2.0415-3.2998-3.4751-.83398-1.43286-1.25-3.18286-1.25-5.25,0-2.03271,.41602-3.76636,1.25-5.19995,.83203-1.43286,1.93262-2.6001,3.2998-3.5,1.36621-.8999,2.9248-1.55786,4.6748-1.9751,1.75-.41626,3.54102-.625,5.375-.625,1.09961,0,2.16602,.09229,3.2002,.27515,1.03223,.18359,1.98242,.375,2.84961,.57495,.86621,.19995,1.61621,.39209,2.25,.57495,.63281,.18359,1.08301,.27515,1.35059,.27515,.16602,0,.31641-.05005,.44922-.15015,.13281-.09985,.2334-.19995,.30078-.30005l.59961,.2002-3.59961,7.2998Z"/><path class="cls-1" d="M91.74902,25.7002c.23242,0,.52441-.05005,.875-.15015,.34961-.09985,.52441-.33276,.52441-.69995,0-.1001-.11719-.34131-.34961-.7251-.2334-.38281-.52539-.84131-.875-1.375-.34961-.53271-.74219-1.125-1.1748-1.7749-.43359-.6499-.85059-1.26636-1.25-1.8501-.40039-.58276-.75879-1.10767-1.0752-1.57495-.31738-.46631-.54199-.81641-.6748-1.05005l-4.35059,4.2002v4.09985c0,.36719,.15039,.6001,.4502,.69995,.2998,.1001,.61621,.16724,.9502,.2002v.59985h-9.34961v-.59985c.2998,.03345,.58203-.0166,.84961-.15015,.2666-.13281,.40039-.38281,.40039-.75V5.80005c0-.36646-.13379-.61646-.40039-.75-.26758-.13281-.5498-.18286-.84961-.1499v-.6001h9.34961v.6001c-.33398,.03345-.65039,.09985-.9502,.19995s-.4502,.3335-.4502,.69995V15c.5-.43262,1.0918-.94995,1.77539-1.5498,.68262-.6001,1.40039-1.2251,2.15039-1.875,.75-.65015,1.49121-1.2915,2.22461-1.92505,.73242-.63281,1.3916-1.2251,1.97461-1.77515,.58301-.5498,1.05078-1.00781,1.40039-1.375,.34961-.36621,.52539-.59985,.52539-.69995,0-.36646-.14258-.59985-.42578-.69995s-.55859-.1665-.82422-.19995v-.6001h9.75v.6001c-.5,.06714-1.15039,.41724-1.9502,1.05005-.7998,.63354-1.65039,1.3584-2.5498,2.1748-.90039,.81738-1.79297,1.65015-2.67578,2.5-.88281,.8501-1.6416,1.52515-2.27441,2.02515l8.2998,12.30005c.16602,.26709,.3418,.44995,.52539,.5498,.18262,.1001,.39062,.16724,.625,.2002v.59985h-10.2002v-.59985Z"/><path class="cls-1" d="M120.99805,5.80005c0-.36646-.14258-.59985-.4248-.69995-.28418-.1001-.625-.1665-1.02539-.19995v-.6001h9v.6001c-.16699,.03345-.34961,.09985-.5498,.19995s-.2998,.3335-.2998,.69995v12.15015c0,1.26709,.45801,2.1748,1.375,2.72485,.91602,.55005,2.125,.82495,3.625,.82495s2.70801-.2749,3.625-.82495c.91602-.55005,1.375-1.45776,1.375-2.72485V5.80005c0-.36646-.10059-.59985-.2998-.69995-.2002-.1001-.38379-.1665-.55078-.19995v-.6001h9v.6001c-.39941,.03345-.74219,.09985-1.02441,.19995-.28418,.1001-.4248,.3335-.4248,.69995v11c0,1.33374-.2002,2.59229-.60059,3.77515-.39941,1.18359-1.0498,2.21704-1.9502,3.09985-.89941,.88354-2.09961,1.56714-3.59961,2.05005-1.5,.48364-3.34961,.7251-5.5498,.7251s-4.0498-.24146-5.5498-.7251c-1.5-.48291-2.7002-1.1665-3.60059-2.05005-.89941-.88281-1.5498-1.91626-1.9502-3.09985-.39941-1.18286-.59961-2.44141-.59961-3.77515V5.80005Z"/><path class="cls-1" d="M152.34766,5.80005c0-.36646-.1084-.59985-.3252-.69995s-.375-.1665-.47461-.19995v-.6001h13.14941c1.2334,0,2.42578,.1001,3.5752,.30005,1.15039,.19995,2.1582,.56714,3.02539,1.1001,.86621,.53345,1.56641,1.25854,2.09961,2.1748,.5332,.91724,.7998,2.10864,.7998,3.5752,0,1.43359-.2666,2.61719-.7998,3.5498-.5332,.93359-1.2334,1.66724-2.09961,2.2002-.86719,.53345-1.875,.8999-3.02539,1.09985-1.14941,.19995-2.3418,.30005-3.5752,.30005h-5.64941v6.19995c0,.36719,.125,.6001,.375,.69995,.25,.1001,.50781,.16724,.77441,.2002v.59985h-8.64941v-.59985c.09961-.03296,.25781-.1001,.47461-.2002,.2168-.09985,.3252-.33276,.3252-.69995V5.80005Zm11.4502,8.6001c1.39941,0,2.39941-.2251,3-.67505,.59961-.44995,.89941-1.20776,.89941-2.2749,0-1.03296-.2666-1.78296-.7998-2.25-.5332-.46655-1.43359-.7002-2.7002-.7002h-5.14941v5.90015h4.75Z"/></g></g></svg>