<?xml version="1.0" encoding="UTF-8"?><svg id="_レイヤー_2" xmlns="http://www.w3.org/2000/svg" viewBox="0 0 174.19775 26.45007"><defs><style>.cls-1{fill:#b60005;}</style></defs><g id="text"><g><path class="cls-1" d="M8.8999,24.80005c0,.23364,.07471,.42505,.2251,.57495,.1499,.15002,.54102,.25867,1.1748,.32507v.59998H0v-.59998c.63281-.06641,1.0249-.17505,1.1748-.32507,.15039-.1499,.2251-.34131,.2251-.57495V1.5c0-.23279-.07471-.42493-.2251-.57495-.1499-.15002-.54199-.25781-1.1748-.32495V0H17.8999c1.56641,0,2.94971,.2251,4.1499,.67505,1.2002,.44995,2.2002,1.05859,3,1.82495,.7998,.76721,1.40039,1.65869,1.7998,2.67505,.40039,1.01721,.60059,2.07495,.60059,3.17505,0,1.09998-.2002,2.15857-.60059,3.17493-.39941,1.01721-1,1.90002-1.7998,2.65002s-1.7998,1.34998-3,1.80005c-1.2002,.44995-2.5835,.67493-4.1499,.67493H8.8999v8.15002Zm7.6001-13.44995c1.3999,0,2.4248-.23291,3.0752-.70007,.64941-.46643,.97461-1.23279,.97461-2.29993,0-.96643-.3252-1.6665-.97461-2.1001-.65039-.43274-1.67529-.6499-3.0752-.6499h-7.6001v5.75h7.6001Z"/><path class="cls-1" d="M41.34961,4.90002c-.5,.03357-.89258,.09998-1.1748,.20007-.28418,.09998-.42529,.3335-.42529,.69995V24.80005c0,.36719,.14111,.59998,.42529,.69995,.28223,.1001,.6748,.16724,1.1748,.20007v.59998h-9.90039v-.59998c.5-.03284,.8916-.09998,1.17529-.20007,.28271-.09998,.42529-.33276,.42529-.69995V5.80005c0-.36646-.14258-.59998-.42529-.69995-.28369-.1001-.67529-.1665-1.17529-.20007v-.59998h9.90039v.59998Z"/><path class="cls-1" d="M67.34912,12.75l-.69971-.34998c.03271-.13281,.07471-.26636,.125-.40002,.0498-.13281,.07471-.28271,.07471-.44995,0-.19995-.2085-.43286-.625-.69995-.41699-.26648-.94971-.50781-1.6001-.7251-.6499-.21631-1.3833-.40771-2.19971-.57495-.81738-.16638-1.64209-.25-2.4751-.25-.93359,0-1.88379,.11719-2.8501,.35156-.96729,.23438-1.8335,.59448-2.6001,1.07971-.76709,.48511-1.3999,1.10388-1.8999,1.85706-.5,.75305-.75,1.66553-.75,2.73669,0,1.03748,.25,1.94141,.75,2.71167,.5,.77039,1.13281,1.39771,1.8999,1.88281,.7666,.48523,1.63281,.8446,2.6001,1.07898,.96631,.23438,1.9165,.35156,2.8501,.35156,1,0,1.94141-.125,2.8252-.375,.88281-.25,1.66602-.55005,2.34961-.90002,.68311-.34998,1.2168-.70007,1.6001-1.05005,.38281-.34998,.5752-.60779,.5752-.77502v-.44995c0-.19995-.01709-.34998-.05029-.44995l.55029-.3501,4.75,6.82581-.6001,.34692c-.2998-.36328-.56738-.54529-.7998-.54529-.13379,0-.49219,.14917-1.0752,.44604-.5835,.29688-1.3584,.63513-2.3252,1.01489-.9668,.37964-2.1084,.70154-3.4248,.96558-1.31738,.26404-2.7749,.39612-4.375,.39612-1.8335,0-3.625-.18286-5.375-.55005-1.75-.36633-3.30859-.99133-4.6748-1.875-1.36719-.88281-2.46729-2.04138-3.30029-3.47498-.8335-1.43286-1.25-3.18286-1.25-5.25,0-2.03284,.4165-3.76636,1.25-5.19995,.83301-1.43286,1.93311-2.6001,3.30029-3.5,1.36621-.90002,2.9248-1.55786,4.6748-1.9751,1.75-.41638,3.5415-.625,5.375-.625,1.1001,0,2.1665,.09229,3.2002,.27502,1.03271,.18359,1.98242,.375,2.84961,.57507,.8667,.19995,1.6167,.39209,2.25,.57495,.63281,.18359,1.08301,.27502,1.3501,.27502,.1665,0,.31641-.05005,.4502-.15002,.13281-.09998,.23291-.19995,.2998-.30005l.6001,.20007-3.6001,7.29993Z"/><path class="cls-1" d="M91.74902,25.70007c.23242,0,.52441-.05005,.875-.15002,.34961-.09998,.52441-.33276,.52441-.69995,0-.1001-.11719-.34143-.34961-.7251-.2334-.38281-.52539-.84131-.875-1.375-.3501-.53271-.74219-1.125-1.1748-1.7749-.43359-.65002-.85059-1.26648-1.25-1.8501-.40039-.58276-.75879-1.10779-1.0752-1.57495-.31738-.46643-.54199-.81641-.6748-1.05005l-4.35059,4.20007v4.09998c0,.36719,.15039,.59998,.4502,.69995,.2998,.1001,.61621,.16724,.9502,.20007v.59998h-9.3501v-.59998c.30029,.03357,.58252-.01648,.8501-.15002,.2666-.13281,.3999-.38281,.3999-.75V5.80005c0-.36646-.1333-.61646-.3999-.75-.26758-.13281-.5498-.18286-.8501-.15002v-.59998h9.3501v.59998c-.33398,.03357-.65039,.09998-.9502,.20007-.2998,.09998-.4502,.3335-.4502,.69995V15c.5-.43274,1.0918-.94995,1.77539-1.54993,.68262-.59998,1.3999-1.22498,2.1499-1.875s1.4917-1.29138,2.2251-1.92505c.73242-.63281,1.3916-1.22498,1.97461-1.77502,.58301-.54993,1.05029-1.00781,1.40039-1.375,.34961-.36633,.5249-.59998,.5249-.69995,0-.36646-.14209-.59998-.42529-.69995-.2832-.1001-.55859-.1665-.82471-.20007v-.59998h9.75v.59998c-.5,.06726-1.1499,.41724-1.94971,1.05005-.80029,.63354-1.65039,1.35852-2.55029,2.17493-.8999,.81726-1.79248,1.65002-2.67529,2.5-.8833,.8501-1.6416,1.52502-2.27441,2.02502l8.2998,12.30005c.16602,.26721,.34131,.44995,.5249,.54993,.18311,.1001,.39111,.16724,.625,.20007v.59998h-10.19971v-.59998Z"/><path class="cls-1" d="M120.99805,5.80005c0-.36646-.14209-.59998-.4248-.69995-.28369-.1001-.625-.1665-1.02539-.20007v-.59998h9v.59998c-.16699,.03357-.34961,.09998-.5498,.20007-.2002,.09998-.2998,.3335-.2998,.69995v12.15002c0,1.26721,.45801,2.17493,1.375,2.72498,.91602,.55005,2.125,.82495,3.625,.82495s2.70801-.2749,3.625-.82495c.91602-.55005,1.375-1.45776,1.375-2.72498V5.80005c0-.36646-.1001-.59998-.2998-.69995-.2002-.1001-.38379-.1665-.55029-.20007v-.59998h9v.59998c-.3999,.03357-.74219,.09998-1.0249,.20007-.28369,.09998-.4248,.3335-.4248,.69995v11c0,1.33362-.2002,2.59216-.60059,3.77502-.39941,1.18359-1.0498,2.21716-1.94971,3.09998-.8999,.88354-2.1001,1.56714-3.6001,2.05005-1.5,.48352-3.34961,.72498-5.5498,.72498s-4.0498-.24146-5.5498-.72498c-1.5-.48291-2.7002-1.1665-3.60059-2.05005-.89941-.88281-1.5498-1.91638-1.94971-3.09998-.3999-1.18286-.6001-2.44141-.6001-3.77502V5.80005Z"/><path class="cls-1" d="M152.34766,5.80005c0-.36646-.1084-.59998-.3252-.69995-.2168-.1001-.375-.1665-.47461-.20007v-.59998h13.1499c1.23291,0,2.42529,.09998,3.57471,.30005,1.15039,.19995,2.1582,.56714,3.02539,1.09998,.86621,.53357,1.56641,1.25854,2.09961,2.17493,.5332,.91724,.80029,2.10864,.80029,3.57507,0,1.43359-.26709,2.61719-.80029,3.54993-.5332,.93359-1.2334,1.66724-2.09961,2.20007-.86719,.53357-1.875,.90002-3.02539,1.09998-1.14941,.19995-2.3418,.30005-3.57471,.30005h-5.6499v6.19995c0,.36719,.125,.59998,.375,.69995,.25,.1001,.50781,.16724,.7749,.20007v.59998h-8.6499v-.59998c.09961-.03284,.25781-.09998,.47461-.20007,.2168-.09998,.3252-.33276,.3252-.69995V5.80005Zm11.4502,8.59998c1.3999,0,2.3999-.22498,3-.67493,.59961-.45007,.8999-1.20789,.8999-2.27502,0-1.03284-.26709-1.78284-.80029-2.25-.5332-.46643-1.43359-.70007-2.69971-.70007h-5.1499v5.90002h4.75Z"/></g></g></svg>