<?xml version="1.0" encoding="UTF-8"?><svg id="_レイヤー_2" xmlns="http://www.w3.org/2000/svg" viewBox="0 0 317.84668 27.44995"><defs><style>.cls-1{fill:#b60005;}</style></defs><g id="text"><g><path class="cls-1" d="M8.8999,24.7998c0,.23389,.07471,.42529,.2251,.5752,.1499,.1499,.54102,.25854,1.1748,.32495v.59985H0v-.59985c.63281-.06641,1.0249-.17505,1.1748-.32495,.15039-.1499,.2251-.34131,.2251-.5752V1.5c0-.23291-.07471-.42505-.2251-.5752-.1499-.1499-.54199-.25781-1.1748-.32471V0H17.8999c1.56641,0,2.94971,.2251,4.1499,.6748,1.2002,.4502,2.2002,1.05859,3,1.8252,.7998,.76709,1.40039,1.65869,1.7998,2.6748,.40039,1.01733,.60059,2.0752,.60059,3.17529,0,1.09985-.2002,2.15845-.60059,3.1748-.39941,1.01709-1,1.8999-1.7998,2.6499s-1.7998,1.3501-3,1.80029c-1.2002,.44971-2.5835,.6748-4.1499,.6748H8.8999v8.1499Zm7.6001-13.44971c1.3999,0,2.4248-.23291,3.0752-.7002,.64941-.46631,.97461-1.23291,.97461-2.2998,0-.96655-.3252-1.6665-.97461-2.1001-.65039-.43286-1.67529-.6499-3.0752-.6499h-7.6001v5.75h7.6001Z"/><path class="cls-1" d="M32.69922,5.7998c0-.36621-.11719-.59985-.34961-.69971-.2334-.1001-.4834-.1665-.75-.2002v-.6001h16.0498c2.5,0,4.49121,.58374,5.9751,1.75,1.48291,1.16748,2.2251,2.90015,2.2251,5.2002,0,1.7998-.52539,3.2251-1.5752,4.2749-1.0498,1.05005-2.375,1.875-3.97461,2.4751l4.44971,6.69995c.1665,.26733,.40771,.5,.7251,.69995,.31641,.2002,.65771,.30005,1.0249,.30005v.59985h-10.1001v-.59985c.23291,0,.49121-.04126,.77539-.125,.28223-.08276,.4248-.25781,.4248-.52515,0-.16626-.1748-.58252-.52539-1.25-.34961-.66626-.75-1.38281-1.19971-2.1499-.44971-.76636-.8833-1.5-1.30029-2.19995s-.6748-1.15015-.77441-1.34985h-4.80029v6.69971c0,.36719,.125,.6001,.375,.7002s.55811,.16699,.92529,.19995v.59985h-8.60059v-.59985c.2002-.03296,.41699-.09985,.65039-.19995,.23242-.1001,.34961-.33301,.34961-.7002V5.7998Zm13.40039,8.1001c1.06641,0,1.90771-.2251,2.5249-.6748,.6167-.4502,.92529-1.125,.92529-2.02515,0-.76636-.25879-1.40796-.77539-1.92505-.51709-.51636-1.5249-.7749-3.0249-.7749h-6.75v5.3999h7.1001Z"/><path class="cls-1" d="M72.59912,4c1.56641,0,3.14111,.21729,4.7251,.6499,1.58301,.43359,3.0166,1.10864,4.2998,2.0249,1.2832,.91748,2.3252,2.09229,3.125,3.52515,.7998,1.43359,1.2002,3.13354,1.2002,5.09985,0,2-.40039,3.70874-1.2002,5.125-.7998,1.41748-1.8418,2.5752-3.125,3.4751s-2.7168,1.55005-4.2998,1.9502c-1.58398,.3999-3.15869,.59985-4.7251,.59985-1.56689,0-3.14209-.19995-4.7251-.59985-1.5835-.40015-3.01709-1.05029-4.2998-1.9502-1.28369-.8999-2.3252-2.05762-3.125-3.4751-.7998-1.41626-1.2002-3.125-1.2002-5.125,0-1.96631,.40039-3.66626,1.2002-5.09985,.7998-1.43286,1.84131-2.60767,3.125-3.52515,1.28271-.91626,2.71631-1.59131,4.2998-2.0249,1.58301-.43262,3.1582-.6499,4.7251-.6499Zm0,5.2998c-.93359,0-1.81689,.14307-2.6499,.42749-.83398,.28442-1.56738,.68579-2.2002,1.20483-.63379,.51855-1.125,1.14673-1.47461,1.88281-.35059,.73657-.52539,1.57324-.52539,2.51001,0,.9375,.1748,1.77417,.52539,2.51001,.34961,.73682,.84082,1.36426,1.47461,1.88281,.63281,.51904,1.36621,.92139,2.2002,1.20557,.83301,.28442,1.71631,.42676,2.6499,.42676,.96631,0,1.85791-.14233,2.67529-.42676,.81641-.28418,1.54102-.68652,2.1748-1.20557,.63281-.51855,1.125-1.146,1.47461-1.88281,.35059-.73584,.52539-1.57251,.52539-2.51001,0-.93677-.1748-1.77344-.52539-2.51001-.34961-.73608-.8418-1.36426-1.47461-1.88281-.63379-.51904-1.3584-.92041-2.1748-1.20483-.81738-.28442-1.70898-.42749-2.67529-.42749Z"/><path class="cls-1" d="M90.99902,5.7998c0-.36621-.125-.59985-.375-.69971-.25-.1001-.55859-.1665-.9248-.2002v-.6001h15c1.86621,0,3.44971,.30029,4.75,.90015,1.2998,.59985,2.375,1.40015,3.22461,2.40015,.8501,1,1.4668,2.16699,1.8501,3.5,.38281,1.3335,.57471,2.7334,.57471,4.19971,0,1.46729-.19189,2.86719-.57471,4.2002-.3833,1.3335-1,2.5-1.8501,3.5-.84961,1-1.9248,1.7998-3.22461,2.3999-1.30029,.6001-2.88379,.8999-4.75,.8999h-15v-.59985c.36621-.03296,.6748-.09985,.9248-.19995s.375-.33301,.375-.7002V5.7998Zm10.2998,15.7002c2.6001,0,4.4668-.45801,5.6001-1.375,1.13281-.9165,1.69971-2.5249,1.69971-4.8252,0-2.2998-.56689-3.90771-1.69971-4.82471-1.1333-.9165-3-1.375-5.6001-1.375h-3.59961v12.3999h3.59961Z"/><path class="cls-1" d="M120.89844,5.7998c0-.36621-.14209-.59985-.4248-.69971-.28369-.1001-.625-.1665-1.02539-.2002v-.6001h9v.6001c-.16699,.03369-.34961,.1001-.5498,.2002-.2002,.09985-.2998,.3335-.2998,.69971v12.15015c0,1.26733,.45801,2.17505,1.375,2.72485,.91602,.55029,2.125,.8252,3.625,.8252s2.70801-.2749,3.625-.8252c.91602-.5498,1.375-1.45752,1.375-2.72485V5.7998c0-.36621-.1001-.59985-.2998-.69971-.2002-.1001-.38379-.1665-.55029-.2002v-.6001h9v.6001c-.3999,.03369-.74219,.1001-1.0249,.2002-.28369,.09985-.4248,.3335-.4248,.69971v11c0,1.33374-.2002,2.59229-.60059,3.77515-.39941,1.18359-1.0498,2.21704-1.94971,3.09985-.8999,.88379-2.1001,1.56738-3.6001,2.05029-1.5,.4834-3.34961,.72485-5.5498,.72485s-4.0498-.24146-5.5498-.72485c-1.5-.48291-2.7002-1.1665-3.60059-2.05029-.89941-.88281-1.5498-1.91626-1.94971-3.09985-.3999-1.18286-.6001-2.44141-.6001-3.77515V5.7998Z"/><path class="cls-1" d="M171.94824,12.75l-.7002-.3501c.0332-.13281,.0752-.26636,.125-.3999,.0498-.13281,.0752-.28271,.0752-.4502,0-.19971-.20898-.43262-.625-.69971-.41699-.2666-.9502-.50781-1.6001-.7251-.6499-.21631-1.3833-.40771-2.19971-.5752-.81738-.16626-1.64258-.25-2.47559-.25-.93359,0-1.8833,.11719-2.84961,.35156-.96729,.23438-1.83398,.59473-2.6001,1.07983-.76709,.48511-1.3999,1.10376-1.8999,1.85718-.5,.75293-.75,1.66553-.75,2.73657,0,1.03735,.25,1.94141,.75,2.71167,.5,.77051,1.13281,1.39771,1.8999,1.88281,.76611,.48535,1.63281,.84473,2.6001,1.0791,.96631,.23438,1.91602,.35156,2.84961,.35156,1,0,1.94141-.125,2.8252-.375,.88281-.25,1.6665-.55029,2.3501-.90015,.68311-.34985,1.21631-.69995,1.6001-1.05005,.38281-.3501,.5752-.60791,.5752-.7749v-.4502c0-.19971-.01758-.34985-.05029-.44971l.55029-.3501,4.75,6.82568-.60059,.34692c-.2998-.36328-.56689-.54517-.7998-.54517-.13379,0-.49219,.14893-1.0752,.4458s-1.3584,.63525-2.32471,1.01514c-.96729,.37939-2.10889,.70142-3.42529,.96533-1.31689,.26416-2.77441,.39624-4.375,.39624-1.83301,0-3.625-.18286-5.375-.55005-1.75-.36621-3.30859-.99121-4.6748-1.875-1.36719-.88281-2.4668-2.0415-3.2998-3.4751-.83398-1.43262-1.25-3.18262-1.25-5.25,0-2.03271,.41602-3.76611,1.25-5.19971,.83301-1.43311,1.93262-2.6001,3.2998-3.5,1.36621-.90015,2.9248-1.55811,4.6748-1.9751,1.75-.4165,3.54199-.625,5.375-.625,1.10059,0,2.16699,.09229,3.2002,.2749,1.0332,.18359,1.98291,.375,2.8501,.5752,.8667,.19971,1.6167,.39209,2.25,.57471,.63281,.18359,1.08252,.27515,1.3501,.27515,.16602,0,.31641-.05005,.4502-.15015,.13281-.09985,.23242-.19971,.2998-.2998l.59961,.19995-3.59961,7.30005Z"/><path class="cls-1" d="M201.74756,4.2998c.2002,0,.3999-.06641,.6001-.19971,.2002-.13281,.2998-.43311,.2998-.90015h.6001v7.30005h-.6001c0-.46631-.09961-.7666-.2998-.8999-.2002-.13281-.3999-.2002-.6001-.2002h-7.1499v15.3999c0,.36719,.125,.6001,.375,.7002s.50781,.16699,.7749,.19995v.59985h-9v-.59985c.2666-.03296,.5249-.09985,.7749-.19995s.375-.33301,.375-.7002V9.3999h-7.1499c-.19971,0-.3999,.06738-.6001,.2002-.19971,.1333-.2998,.43359-.2998,.8999h-.6001V3.19995h.6001c0,.46704,.1001,.76733,.2998,.90015,.2002,.1333,.40039,.19971,.6001,.19971h21Z"/><path class="cls-1" d="M248.04688,20.19995c.2666,0,.4668-.09155,.60059-.27515,.13281-.18262,.23242-.55762,.2998-1.125h.59961v8.65015h-.59961c-.06738-.53345-.16699-.85864-.2998-.97485-.13379-.11719-.33398-.17529-.60059-.17529h-26.09961v-.59985c.63281-.06641,1.0249-.17505,1.1748-.32495,.15039-.1499,.2251-.34131,.2251-.5752V1.5c0-.23291-.07471-.42505-.2251-.5752-.1499-.1499-.54199-.25781-1.1748-.32471V0h10.2998V.6001c-.63379,.06689-1.0249,.1748-1.1748,.32471-.15039,.15015-.2251,.34229-.2251,.5752V20.19995h17.19971Z"/><path class="cls-1" d="M263.29688,4.8999c-.5,.03369-.89258,.1001-1.1748,.2002-.28418,.09985-.42529,.3335-.42529,.69971V24.7998c0,.36719,.14111,.6001,.42529,.7002,.28223,.1001,.6748,.16699,1.1748,.19995v.59985h-9.90039v-.59985c.5-.03296,.8916-.09985,1.17529-.19995,.28271-.1001,.42529-.33301,.42529-.7002V5.7998c0-.36621-.14258-.59985-.42529-.69971-.28369-.1001-.67529-.1665-1.17529-.2002v-.6001h9.90039v.6001Z"/><path class="cls-1" d="M269.99658,18.94995c0,.06714-.00879,.14233-.0249,.22485-.01758,.08374-.02539,.19238-.02539,.3252,0,.3335,.31641,.6499,.9502,.94995,.63281,.30005,1.44141,.57495,2.4248,.82495,.98291,.25,2.05029,.4502,3.2002,.6001s2.2251,.2251,3.2251,.2251c.2998,0,.70752-.0166,1.2251-.05029,.51611-.03271,1.0249-.125,1.5249-.2749s.9248-.36621,1.2749-.6499c.3501-.28271,.5249-.67505,.5249-1.17505,0-.66626-.3999-1.14136-1.19971-1.42505-.80029-.28271-1.80859-.5-3.02539-.6499s-2.5332-.30786-3.94971-.4751c-1.41748-.1665-2.73389-.45776-3.9502-.875-1.21729-.4165-2.2251-1.01636-3.0249-1.7998-.7998-.78296-1.2002-1.875-1.2002-3.27515,0-.76636,.2002-1.59155,.6001-2.47485,.3999-.88281,1.03271-1.69141,1.8999-2.42529,.8667-.73267,2.00781-1.34131,3.42529-1.82471,1.4165-.48291,3.14111-.7251,5.1748-.7251,1.2002,0,2.34131,.06714,3.42529,.19995,1.08252,.13354,2.06641,.28345,2.94971,.44995,.88281,.16724,1.63281,.31738,2.25,.4502,.6167,.1333,1.05811,.19971,1.3252,.19971,.26611,0,.48291-.07471,.6499-.22485,.1665-.15015,.31641-.27515,.4502-.375l.5498,.19995-3,6.30005-.6499-.30005c0-.06641,.00781-.1499,.0249-.25,.0166-.1001,.0249-.19995,.0249-.2998,0-.13281-.19971-.30029-.6001-.5-.3999-.2002-.9248-.40015-1.57471-.6001-.6499-.2002-1.38379-.375-2.2002-.5249-.81689-.15015-1.65869-.2251-2.5249-.2251-.2998,0-.76709,.00854-1.3999,.0249-.63379,.01709-1.26709,.1001-1.8999,.25-.63379,.1499-1.19238,.36719-1.67529,.6499-.4834,.28369-.7251,.70874-.7251,1.27515,0,.59985,.40039,1.02515,1.2002,1.27515s1.80762,.44971,3.0249,.59985c1.21631,.15015,2.53271,.31714,3.9502,.5,1.4165,.18359,2.73291,.49219,3.94971,.92505,1.2168,.43359,2.2251,1.05859,3.02539,1.875,.7998,.81714,1.19971,1.9585,1.19971,3.4248,0,.96729-.21729,1.89233-.6499,2.77515-.43359,.88354-1.1001,1.65845-2,2.32495-.8999,.66724-2.04199,1.17505-3.4248,1.5249-1.38379,.3501-3.02539,.52515-4.92529,.52515-1.19971,0-2.41699-.07495-3.6499-.22485-1.2334-.15015-2.36719-.33301-3.3999-.55029-1.03369-.21631-1.89209-.41626-2.5752-.59985-.68359-.18286-1.07471-.27515-1.1748-.27515-.23389,0-.44238,.0752-.625,.2251-.18359,.1499-.35889,.30859-.5249,.4751l-.55029-.1499,2.05029-6.7002,.6499,.30005Z"/><path class="cls-1" d="M316.34668,4.2998c.2002,0,.3999-.06641,.59961-.19971,.2002-.13281,.30029-.43311,.30029-.90015h.6001v7.30005h-.6001c0-.46631-.1001-.7666-.30029-.8999-.19971-.13281-.39941-.2002-.59961-.2002h-7.15039v15.3999c0,.36719,.125,.6001,.375,.7002s.50781,.16699,.77539,.19995v.59985h-9v-.59985c.2666-.03296,.5249-.09985,.7749-.19995s.375-.33301,.375-.7002V9.3999h-7.1499c-.2002,0-.40039,.06738-.6001,.2002-.19971,.1333-.30029,.43359-.30029,.8999h-.59961V3.19995h.59961c0,.46704,.10059,.76733,.30029,.90015,.19971,.1333,.3999,.19971,.6001,.19971h21Z"/></g></g></svg>