<?xml version="1.0" encoding="UTF-8"?><svg id="_レイヤー_2" xmlns="http://www.w3.org/2000/svg" viewBox="0 0 200.49756 26.4502"><defs><style>.cls-1{fill:#fff;}</style></defs><g id="text"><g><path class="cls-1" d="M8.8999,24.80029c0,.2334,.0752,.4248,.2251,.57471,.1499,.15015,.5415,.25879,1.17529,.3252v.6001H0v-.6001c.63281-.06641,1.0249-.17505,1.17529-.3252,.14941-.1499,.22461-.34131,.22461-.57471V1.5c0-.23267-.0752-.4248-.22461-.57471-.15039-.15015-.54248-.25781-1.17529-.3252V0H18.30029c3.69971,0,6.38281,.67529,8.0498,2.02515,1.66602,1.34985,2.5,3.44214,2.5,6.27515,0,2.2998-.6748,4.09985-2.02539,5.3999-1.34961,1.2998-3.05859,2.2334-5.125,2.7998l5.90039,8.30029c.3999,.59985,.88281,.8999,1.4502,.8999v.6001h-10.40039v-.6001c.73291-.03271,1.1001-.33301,1.1001-.8999,0-.06641-.1333-.30029-.3999-.7002-.26758-.3999-.6001-.88281-1-1.44995-.40039-.56641-.84229-1.17505-1.3252-1.82495-.4834-.6499-.9502-1.2749-1.3999-1.875s-.84229-1.13281-1.17529-1.6001c-.33301-.46631-.5498-.78271-.64941-.94995h-4.90039v8.40015Zm8.40039-13.7002c1.46582,0,2.47461-.2749,3.02441-.82495,.55029-.55005,.8252-1.19141,.8252-1.92505,0-.73291-.2749-1.375-.8252-1.9248-.5498-.55029-1.55859-.8252-3.02441-.8252H8.8999v5.5h8.40039Z"/><path class="cls-1" d="M53.49951,25.7002c.09961,0,.23242-.0166,.3999-.05005,.1665-.03296,.25-.16626,.25-.40015,0-.13281-.05859-.34131-.17529-.625-.11719-.28271-.25-.59131-.3999-.9248-.1499-.33301-.30859-.6665-.4751-1-.16699-.33301-.2998-.61646-.3999-.8501h-11.6001c-.06689,.23364-.1748,.51709-.32471,.8501-.1499,.3335-.30859,.66699-.4751,1-.16699,.3335-.31738,.64209-.4502,.9248-.1333,.28369-.19971,.49219-.19971,.625,0,.23389,.08252,.36719,.25,.40015,.1665,.03345,.2998,.05005,.3999,.05005v.6001h-7.5v-.6001c.2002,0,.3999-.0415,.6001-.125,.19971-.08301,.33252-.20801,.3999-.375,1-2.33301,2.0166-4.6416,3.0498-6.92505,1.0332-2.28296,1.95801-4.34985,2.77539-6.19995,.81641-1.8501,1.49121-3.38281,2.0249-4.6001,.53271-1.21631,.7998-1.90771,.7998-2.07495,0-.30005-.21729-.46655-.6499-.5v-.59985h10.4502v.59985c-.43359,.03345-.65039,.19995-.65039,.5,0,.09985,.17529,.54224,.52539,1.32495,.34961,.78369,.80762,1.76709,1.375,2.9502,.56641,1.18359,1.19141,2.49219,1.875,3.9248,.68262,1.43359,1.36621,2.86719,2.0498,4.30005,.68262,1.43359,1.3252,2.79224,1.9248,4.07495,.6001,1.28369,1.08301,2.35864,1.4502,3.2251,.06641,.16699,.2002,.29199,.3999,.375,.2002,.0835,.3999,.125,.6001,.125v.6001h-8.2998v-.6001Zm-6.7002-16.2002l-4.1001,8.75h8.30029l-4.2002-8.75Z"/><path class="cls-1" d="M91.84912,24.80029c0,.36719,.13281,.59985,.3999,.69971,.26611,.1001,.6001,.16748,1,.2002v.6001h-9.25v-.6001c.26611,0,.57471-.03271,.9248-.1001,.3501-.06641,.5249-.25,.5249-.5498,0-.30029-.36719-.85791-1.09961-1.67529-.73389-.81641-1.67529-1.82471-2.8252-3.0249-1.1499-1.19995-2.44238-2.5415-3.875-4.0249-1.43359-1.48291-2.8501-3.05786-4.25-4.7251l-.1001,.1001v13.1001c0,.36719,.125,.59985,.375,.69971,.25,.1001,.55811,.16748,.92529,.2002v.6001h-8.55029v-.6001c.33301-.03271,.625-.1001,.875-.2002,.25-.09985,.375-.33252,.375-.69971V5.80029c0-.3667-.1333-.6001-.3999-.7002-.26709-.1001-.5835-.1665-.9502-.19995v-.59985h11.90039v.59985c-.23389,.03345-.46729,.09985-.7002,.19995-.2334,.1001-.3501,.3335-.3501,.7002,0,.06689,.2749,.40845,.8252,1.0249,.5498,.61719,1.25781,1.39209,2.125,2.32495,.86621,.93359,1.83252,1.96704,2.8999,3.09985,1.06641,1.13379,2.13281,2.26733,3.2002,3.40015V5.80029c0-.3667-.13379-.6001-.40039-.7002-.26709-.1001-.59961-.1665-1-.19995v-.59985h8.80029v.59985c-.3999,.03345-.73389,.09985-1,.19995-.26709,.1001-.3999,.3335-.3999,.7002V24.80029Z"/><path class="cls-1" d="M113.99854,25.7002c.23291,0,.5249-.05005,.875-.1499,.3501-.1001,.5249-.33301,.5249-.7002,0-.1001-.11719-.34131-.3501-.7251-.2334-.38281-.5249-.84131-.875-1.375-.34961-.53271-.74219-1.125-1.1748-1.7749-.43359-.6499-.8501-1.26636-1.25-1.8501-.3999-.58252-.75879-1.10767-1.0752-1.57471-.31689-.46655-.54199-.81641-.6748-1.05029l-4.3501,4.2002v4.1001c0,.36719,.1499,.59985,.4502,.69971,.2998,.1001,.61621,.16748,.94971,.2002v.6001h-9.34961v-.6001c.2998,.03369,.58252-.0166,.84961-.1499,.2666-.13281,.40039-.38281,.40039-.75V5.80029c0-.3667-.13379-.6167-.40039-.75-.26709-.13281-.5498-.18311-.84961-.15015v-.59985h9.34961v.59985c-.3335,.03345-.6499,.09985-.94971,.19995-.30029,.1001-.4502,.3335-.4502,.7002V15c.5-.43262,1.09131-.94971,1.7749-1.5498,.68311-.6001,1.40039-1.2251,2.15039-1.875s1.49121-1.2915,2.22461-1.92505c.73291-.63281,1.3916-1.22485,1.9751-1.77515,.58301-.5498,1.05029-1.00781,1.3999-1.375,.3501-.36621,.52539-.59985,.52539-.69971,0-.3667-.14258-.6001-.42529-.7002-.28369-.1001-.55859-.1665-.82471-.19995v-.59985h9.75v.59985c-.5,.06714-1.15039,.41724-1.9502,1.05005-.7998,.63354-1.6499,1.3584-2.5498,2.1748-.90039,.81738-1.79248,1.65015-2.67529,2.5-.8833,.8501-1.64209,1.52515-2.2749,2.02515l8.2998,12.30005c.1665,.26709,.3418,.44995,.52539,.5498,.18262,.1001,.39111,.16748,.625,.2002v.6001h-10.2002v-.6001Z"/><path class="cls-1" d="M137.59814,4.90015c-.5,.03345-.89258,.09985-1.1748,.19995-.28418,.1001-.42529,.3335-.42529,.7002V24.80029c0,.36719,.14111,.59985,.42529,.69971,.28223,.1001,.6748,.16748,1.1748,.2002v.6001h-9.90039v-.6001c.5-.03271,.8916-.1001,1.17529-.2002,.28271-.09985,.42529-.33252,.42529-.69971V5.80029c0-.3667-.14258-.6001-.42529-.7002-.28369-.1001-.67529-.1665-1.17529-.19995v-.59985h9.90039v.59985Z"/><path class="cls-1" d="M168.64795,24.80029c0,.36719,.13281,.59985,.3999,.69971,.26611,.1001,.6001,.16748,1,.2002v.6001h-9.25v-.6001c.26611,0,.57471-.03271,.9248-.1001,.3501-.06641,.5249-.25,.5249-.5498,0-.30029-.36719-.85791-1.09961-1.67529-.73389-.81641-1.67529-1.82471-2.8252-3.0249-1.1499-1.19995-2.44238-2.5415-3.875-4.0249-1.43359-1.48291-2.8501-3.05786-4.25-4.7251l-.1001,.1001v13.1001c0,.36719,.125,.59985,.375,.69971,.25,.1001,.55811,.16748,.92529,.2002v.6001h-8.55029v-.6001c.33301-.03271,.625-.1001,.875-.2002,.25-.09985,.375-.33252,.375-.69971V5.80029c0-.3667-.1333-.6001-.3999-.7002-.26709-.1001-.5835-.1665-.9502-.19995v-.59985h11.90039v.59985c-.23389,.03345-.46729,.09985-.7002,.19995-.2334,.1001-.3501,.3335-.3501,.7002,0,.06689,.2749,.40845,.8252,1.0249,.5498,.61719,1.25781,1.39209,2.125,2.32495,.86621,.93359,1.83252,1.96704,2.8999,3.09985,1.06641,1.13379,2.13281,2.26733,3.2002,3.40015V5.80029c0-.3667-.13379-.6001-.40039-.7002-.26709-.1001-.59961-.1665-1-.19995v-.59985h8.80029v.59985c-.3999,.03345-.73389,.09985-1,.19995-.26709,.1001-.3999,.3335-.3999,.7002V24.80029Z"/><path class="cls-1" d="M199.09717,21.15015c0,.33374,.08301,.63354,.25,.90015,.1665,.26709,.40039,.3999,.7002,.3999h.4502v.6001c-.80029,.3999-1.71729,.80859-2.75,1.22485-1.03369,.41724-2.15039,.79224-3.3501,1.125-1.2002,.33374-2.43359,.59204-3.7002,.77515-1.26709,.18262-2.53369,.2749-3.7998,.2749-1.93359,0-3.71729-.2002-5.3501-.6001-1.63379-.3999-3.0249-1.05762-4.1748-1.9751-1.15039-.91626-2.05029-2.08252-2.7002-3.5-.6499-1.41626-.9751-3.10767-.9751-5.07471,0-1.96655,.3667-3.65796,1.1001-5.0752,.73291-1.4165,1.71631-2.58276,2.9502-3.5,1.23242-.9165,2.64111-1.6001,4.22461-2.0498,1.58301-.4502,3.2251-.67529,4.92529-.67529,1.26611,0,2.4248,.0752,3.4751,.2251,1.0498,.1499,1.97461,.3252,2.7749,.5249,.7998,.2002,1.45752,.375,1.9751,.52515,.51611,.15015,.85742,.22485,1.0249,.22485,.26611,0,.44141-.0498,.5249-.1499,.08301-.1001,.19141-.21631,.3252-.3501l.59961,.1001-2.59961,6.6001-.6001-.30005v-.34985c0-.30029-.2251-.58301-.67529-.8501-.44971-.2666-1.0083-.50781-1.6748-.7251-.66699-.21631-1.375-.38281-2.125-.5-.75-.11621-1.4248-.1748-2.0249-.1748-1.03369,0-2.01709,.11719-2.9502,.34985-.93359,.23364-1.74219,.61719-2.4248,1.15015-.68359,.53345-1.2251,1.2085-1.625,2.0249-.3999,.81714-.6001,1.80859-.6001,2.9751,0,1.19971,.2002,2.22485,.6001,3.07471,.3999,.8501,.94971,1.55029,1.6499,2.1001,.7002,.55005,1.5166,.9585,2.4502,1.2251,.93262,.26709,1.94971,.3999,3.0498,.3999,.83301,0,1.6499-.05762,2.4502-.1748,.7998-.1167,1.59961-.30811,2.3999-.5752v-3.25h-4.2002c-.3999,0-.6499,.1499-.75,.4502-.1001,.2998-.1499,.5498-.1499,.75h-.6001v-6.2002h.6001c0,.2002,.0498,.4502,.1499,.75,.1001,.30005,.3501,.4502,.75,.4502h10.3999v6.84985Z"/></g></g></svg>