<?xml version="1.0" encoding="UTF-8"?><svg id="_レイヤー_2" xmlns="http://www.w3.org/2000/svg" viewBox="0 0 240.59668 31.73975"><defs><style>.cls-1{fill:#b60005;}</style></defs><g id="text"><g><path class="cls-1" d="M10.67993,29.75977c0,.28027,.08984,.50977,.27002,.68994,.17993,.18018,.64966,.31055,1.40991,.39014v.71973H0v-.71973c.75928-.07959,1.22998-.20996,1.40991-.39014s.27002-.40967,.27002-.68994V1.7998c0-.2793-.09009-.50977-.27002-.68994s-.65063-.30957-1.40991-.39014V0H21.95996c4.43994,0,7.65942,.80957,9.65991,2.42969,1.99976,1.62012,3,4.13086,3,7.53027,0,2.75977-.81006,4.91992-2.42993,6.47998-1.62012,1.56006-3.67041,2.68018-6.15015,3.35986l7.08008,9.95996c.47998,.72021,1.05933,1.08008,1.73999,1.08008v.71973h-12.47998v-.71973c.87939-.03955,1.32007-.39941,1.32007-1.08008,0-.07959-.1604-.35986-.47998-.83984-.3208-.47998-.71997-1.05957-1.2002-1.74023-.47998-.67969-1.0105-1.41016-1.58984-2.18994-.58032-.77979-1.14014-1.52979-1.67993-2.25-.54004-.72021-1.01074-1.35938-1.41016-1.91992-.40015-.55957-.65991-.93945-.78003-1.14014h-5.87988v10.08008ZM20.76001,13.31982c1.75952,0,2.96997-.33008,3.62988-.98975,.65991-.66016,.98999-1.42969,.98999-2.31055,0-.87891-.33008-1.64941-.98999-2.30957s-1.87036-.99023-3.62988-.99023H10.67993v6.6001h10.08008Z"/><path class="cls-1" d="M64.19897,30.83984c.12012,0,.2793-.01953,.47998-.06006,.19971-.03955,.30005-.19971,.30005-.47998,0-.15918-.07031-.40967-.20996-.75-.14062-.33936-.30005-.70996-.47998-1.10986-.18018-.39941-.37036-.7998-.57007-1.2002-.20068-.39941-.36011-.73975-.47998-1.02002h-13.91992c-.08081,.28027-.21021,.62061-.39014,1.02002-.17993,.40039-.37036,.80078-.57007,1.2002-.20044,.3999-.38062,.77051-.53979,1.10986-.1604,.34033-.23999,.59082-.23999,.75,0,.28027,.09937,.44043,.2998,.47998,.19971,.04053,.36011,.06006,.47998,.06006v.71973h-9v-.71973c.23999,0,.47998-.0498,.72021-.1499,.23999-.09961,.39917-.24951,.47998-.4502,1.19995-2.79932,2.41968-5.56982,3.65991-8.31006,1.23926-2.73926,2.34937-5.21973,3.33008-7.43994,.97949-2.22021,1.78955-4.05908,2.42993-5.52002,.6394-1.45947,.95996-2.28906,.95996-2.48975,0-.35986-.2605-.56006-.78003-.6001v-.72021h12.54004v.72021c-.52026,.04004-.78003,.24023-.78003,.6001,0,.11963,.20996,.65039,.63013,1.58984,.41992,.94043,.96924,2.12061,1.6499,3.54004,.67969,1.42041,1.42969,2.99072,2.25,4.70996,.81934,1.72021,1.63965,3.44092,2.45996,5.16016,.81934,1.72021,1.59009,3.35059,2.31006,4.89014,.71997,1.54004,1.29932,2.83008,1.73999,3.86963,.07959,.20068,.23999,.35059,.47998,.4502,.23999,.1001,.47998,.1499,.71997,.1499v.71973h-9.95996v-.71973Zm-8.04004-19.43994l-4.91992,10.5h9.95996l-5.04004-10.5Z"/><path class="cls-1" d="M110.21851,29.75977c0,.44043,.15942,.72021,.47998,.83984,.31982,.12012,.71997,.20068,1.19995,.24023v.71973h-11.09985v-.71973c.31958,0,.68994-.03955,1.10986-.12012,.42017-.07959,.63013-.2998,.63013-.66016,0-.35986-.44067-1.0293-1.32007-2.00977-.88037-.97949-2.01001-2.18994-3.38989-3.62988-1.38013-1.43994-2.93066-3.0498-4.65015-4.83008-1.72021-1.7793-3.41992-3.66943-5.09985-5.66992l-.12012,.12012v15.71973c0,.44043,.1499,.72021,.44995,.83984,.30005,.12012,.66943,.20068,1.11011,.24023v.71973h-10.26001v-.71973c.39941-.03955,.75-.12012,1.05005-.24023,.2998-.11963,.44995-.39941,.44995-.83984V6.95996c0-.43994-.1604-.72021-.47998-.83984-.32056-.12012-.70044-.2002-1.14014-.24023v-.72021h14.28003v.72021c-.28027,.04004-.56055,.12012-.83984,.24023-.28052,.11963-.42017,.3999-.42017,.83984,0,.08057,.33008,.49023,.98999,1.22998,.66016,.74072,1.50952,1.67041,2.55005,2.79004,1.03979,1.12012,2.19946,2.36035,3.47998,3.71973,1.27979,1.36035,2.55933,2.7207,3.84009,4.08008V6.95996c0-.43994-.1604-.72021-.47998-.83984-.3208-.12012-.71997-.2002-1.19995-.24023v-.72021h10.55981v.72021c-.47998,.04004-.88013,.12012-1.19995,.24023-.32056,.11963-.47998,.3999-.47998,.83984V29.75977Z"/><path class="cls-1" d="M136.7981,30.83984c.2793,0,.62988-.06006,1.05005-.18018,.41992-.11963,.62988-.39893,.62988-.83984,0-.12012-.14062-.40967-.41992-.87012-.28027-.45947-.63013-1.00928-1.05005-1.6499-.41992-.63965-.89062-1.3501-1.40991-2.12988-.52051-.78027-1.02002-1.51953-1.5-2.22021-.47998-.69922-.9104-1.3291-1.29004-1.89014-.38062-.55957-.65063-.97949-.81006-1.25977l-5.21997,5.04004v4.91992c0,.44043,.17993,.72021,.54004,.83984,.35986,.12012,.7395,.20068,1.13989,.24023v.71973h-11.21997v-.71973c.36011,.04004,.69946-.01953,1.02002-.18018,.31958-.15918,.47998-.45947,.47998-.8999V6.95996c0-.43994-.1604-.73975-.47998-.90039-.32056-.15918-.65991-.21924-1.02002-.17969v-.72021h11.21997v.72021c-.40039,.04004-.78003,.12012-1.13989,.24023-.36011,.11963-.54004,.3999-.54004,.83984v11.04004c.59985-.51953,1.30957-1.14014,2.12988-1.86035,.81958-.71973,1.68018-1.46973,2.58008-2.25,.8999-.77979,1.78979-1.5498,2.66992-2.30957,.87939-.75977,1.66968-1.47021,2.37012-2.13037,.69946-.65967,1.26001-1.20947,1.67993-1.6499,.41992-.43945,.63013-.71973,.63013-.83984,0-.43994-.17065-.72021-.51001-.83984-.34033-.12012-.67041-.2002-.98999-.24023v-.72021h11.69995v.72021c-.6001,.08057-1.38013,.50049-2.34009,1.25977-.95996,.76074-1.97998,1.63037-3.06006,2.61035-1.07983,.98047-2.15063,1.97998-3.20996,3-1.0603,1.01953-1.97046,1.83008-2.72998,2.42969l9.95996,14.76025c.19971,.3208,.40967,.54004,.63013,.65967,.21924,.12012,.46973,.20068,.75,.24023v.71973h-12.23999v-.71973Z"/><path class="cls-1" d="M165.11768,5.87988c-.59985,.04004-1.07056,.12012-1.40991,.24023-.34033,.11963-.51001,.3999-.51001,.83984V29.75977c0,.44043,.16968,.72021,.51001,.83984,.33936,.12012,.81006,.20068,1.40991,.24023v.71973h-11.87988v-.71973c.59985-.03955,1.06958-.12012,1.40991-.24023,.33936-.11963,.51001-.39941,.51001-.83984V6.95996c0-.43994-.17065-.72021-.51001-.83984-.34033-.12012-.81006-.2002-1.40991-.24023v-.72021h11.87988v.72021Z"/><path class="cls-1" d="M202.3772,29.75977c0,.44043,.15942,.72021,.47998,.83984,.31982,.12012,.71997,.20068,1.19995,.24023v.71973h-11.09985v-.71973c.31958,0,.68994-.03955,1.10986-.12012,.42017-.07959,.63013-.2998,.63013-.66016,0-.35986-.44067-1.0293-1.32007-2.00977-.88037-.97949-2.01001-2.18994-3.38989-3.62988-1.38013-1.43994-2.93066-3.0498-4.65015-4.83008-1.72021-1.7793-3.41992-3.66943-5.09985-5.66992l-.12012,.12012v15.71973c0,.44043,.1499,.72021,.44995,.83984,.30005,.12012,.66943,.20068,1.11011,.24023v.71973h-10.26001v-.71973c.39941-.03955,.75-.12012,1.05005-.24023,.2998-.11963,.44995-.39941,.44995-.83984V6.95996c0-.43994-.1604-.72021-.47998-.83984-.32056-.12012-.70044-.2002-1.14014-.24023v-.72021h14.28003v.72021c-.28027,.04004-.56055,.12012-.83984,.24023-.28052,.11963-.42017,.3999-.42017,.83984,0,.08057,.33008,.49023,.98999,1.22998,.66016,.74072,1.50952,1.67041,2.55005,2.79004,1.03979,1.12012,2.19946,2.36035,3.47998,3.71973,1.27979,1.36035,2.55933,2.7207,3.84009,4.08008V6.95996c0-.43994-.1604-.72021-.47998-.83984-.3208-.12012-.71997-.2002-1.19995-.24023v-.72021h10.55981v.72021c-.47998,.04004-.88013,.12012-1.19995,.24023-.32056,.11963-.47998,.3999-.47998,.83984V29.75977Z"/><path class="cls-1" d="M238.91675,25.37988c0,.40039,.09937,.76025,.30005,1.08008,.19971,.32031,.47998,.47998,.83984,.47998h.54004v.71973c-.95996,.47998-2.06055,.97021-3.30005,1.47021-1.24023,.50049-2.57983,.95068-4.01978,1.3501-1.44019,.3999-2.92041,.71045-4.44019,.92969-1.52051,.21924-3.04028,.33008-4.55981,.33008-2.32031,0-4.46069-.23975-6.42017-.72021-1.96021-.47949-3.62988-1.26904-5.01001-2.36963-1.37988-1.09961-2.45996-2.49951-3.23999-4.2002-.78003-1.69971-1.16992-3.729-1.16992-6.08984,0-2.35986,.4397-4.38916,1.32007-6.09033,.87939-1.69922,2.05957-3.09912,3.53979-4.19971,1.47949-1.09961,3.16968-1.91992,5.07007-2.45996,1.89941-.54004,3.87012-.81006,5.91016-.81006,1.51953,0,2.90991,.08984,4.16992,.27002s2.36987,.39014,3.33008,.62988c.95996,.24023,1.74927,.4502,2.36987,.63037,.61963,.17969,1.0293,.26953,1.22998,.26953,.31982,0,.52979-.05957,.63013-.17969,.09937-.12012,.22949-.25977,.38989-.41992l.71997,.12012-3.11987,7.91992-.71997-.36035v-.41992c0-.35986-.27002-.69922-.81006-1.02002-.54004-.31982-1.21045-.60938-2.01001-.86963-.80078-.25977-1.65015-.45996-2.55005-.60059-.8999-.13965-1.70996-.20996-2.42993-.20996-1.24048,0-2.42065,.14062-3.54004,.42041-1.12036,.28027-2.09058,.74072-2.90991,1.37988-.82031,.64014-1.47021,1.4502-1.9502,2.43018-.47998,.98047-.71997,2.16992-.71997,3.56982,0,1.43994,.23999,2.66992,.71997,3.68994s1.14014,1.85986,1.97998,2.52002c.84009,.66016,1.81982,1.15039,2.94019,1.47021,1.11938,.32031,2.33984,.47949,3.65991,.47949,.99927,0,1.97998-.06934,2.93994-.20996,.95996-.13965,1.92017-.36914,2.88013-.68945v-3.90039h-5.04004c-.47998,0-.78003,.18018-.90015,.54004-.11987,.36035-.17993,.66016-.17993,.8999h-.71997v-7.43994h.71997c0,.24023,.06006,.54004,.17993,.90039,.12012,.35986,.42017,.53955,.90015,.53955h12.47998v8.22021Z"/></g></g></svg>