<?xml version="1.0" encoding="UTF-8"?><svg id="_レイヤー_2" xmlns="http://www.w3.org/2000/svg" viewBox="0 0 47.02485 49.86005"><defs><style>.cls-1,.cls-2{fill:#fff;}.cls-2{fill-rule:evenodd;}.cls-3{fill:none;stroke:#f08300;stroke-width:4.08879px;}.cls-4{fill:#f08300;}</style></defs><g id="footer"><g><circle class="cls-4" cx="23.51243" cy="26.34763" r="23.51243"/><g><g><path class="cls-3" d="M8.36209,.19537c.35038-.29536,.87387-.25079,1.16923,.09959,3.09166,3.66755,20.24379,24.01465,24.63319,29.22167,.27138,.32193,.40377,.73853,.36802,1.15806-.03578,.41956-.23674,.80776-.55867,1.07914-.32196,.27141-.73857,.4038-1.1581,.36805-.41953-.03574-.80773-.2367-1.07911-.55863-2.4698-2.92985-11.03572-13.09137-11.03572-13.09137-1.71999,.35753-3.57623-.21569-4.78785-1.653-3.03748-3.60328-5.10671-6.05795-8.14419-9.66123-1.75878-2.08639-1.49317-5.20353,.59319-6.96228h0Z"/><path class="cls-3" d="M11.41317,31.57277c.29776,.29776,.70162,.46504,1.12267,.46504,.42108,.00003,.82491-.16728,1.12264-.46501,3.79242-3.79242,15.89216-15.89216,15.89216-15.89216,.74764,.20366,1.58661,.2131,2.38418,.13077,1.7815-.1836,3.44544-.97519,4.71182-2.24157,0,0,4.72782-5.66699,6.10252-7.31478,.20991-.25158,.19317-.62184-.03851-.85352-.24732-.24732-.64834-.24735-.89567-.00003-1.28901,1.28901-4.9962,4.9962-6.24893,6.24893-.11123,.11123-.26209,.17373-.4194,.17373-.15731,0-.30818-.0625-.41941-.17373s-.17373-.26209-.17373-.41941c0-.15731,.0625-.30818,.17373-.4194,1.25906-1.25906,4.99736-4.99736,6.26825-6.26825,.23665-.23665,.23661-.62038-.00003-.85703-.23661-.23661-.62035-.23665-.857,0-1.27089,1.27089-5.00919,5.00919-6.26825,6.26825-.11123,.11123-.26209,.17373-.41941,.17373-.15731,0-.30818-.0625-.41941-.17373s-.17373-.26209-.17373-.41941c0-.15731,.0625-.30818,.17373-.4194,1.25906-1.25906,4.99736-4.99736,6.26825-6.26825,.23665-.23665,.23661-.62038-.00003-.85703s-.62038-.23668-.85703-.00003c-1.27089,1.27089-5.00919,5.00919-6.26825,6.26825-.11123,.11123-.26209,.17373-.41941,.17373-.15728,.00003-.30818-.0625-.41941-.17373s-.17373-.26209-.17373-.41941c.00003-.15728,.0625-.30818,.17373-.41941,1.25273-1.25273,4.95982-4.95982,6.2489-6.2489,.24736-.24736,.24736-.64834,0-.8957-.2322-.2322-.60335-.24842-.8549-.03738-1.64957,1.37622-7.31339,6.10139-7.31339,6.10139-1.26641,1.26641-2.05797,2.93032-2.24163,4.71182-.08224,.79747-.07279,1.63625,.13081,2.38414,0,0-12.09974,12.09974-15.89216,15.89216-.29773,.29773-.46501,.70159-.46501,1.12264,.00003,.42108,.16731,.82495,.46504,1.12267h0Z"/></g><g><path class="cls-2" d="M8.36209,.19537c.35038-.29536,.87387-.25079,1.16923,.09959,3.09166,3.66755,20.24379,24.01465,24.63319,29.22167,.27138,.32193,.40377,.73853,.36802,1.15806-.03578,.41956-.23674,.80776-.55867,1.07914-.32196,.27141-.73857,.4038-1.1581,.36805-.41953-.03574-.80773-.2367-1.07911-.55863-2.4698-2.92985-11.03572-13.09137-11.03572-13.09137-1.71999,.35753-3.57623-.21569-4.78785-1.653-3.03748-3.60328-5.10671-6.05795-8.14419-9.66123-1.75878-2.08639-1.49317-5.20353,.59319-6.96228h0Z"/><path class="cls-2" d="M11.41317,31.57277c.29776,.29776,.70162,.46504,1.12267,.46504,.42108,.00003,.82491-.16728,1.12264-.46501,3.79242-3.79242,15.89216-15.89216,15.89216-15.89216,.74764,.20366,1.58661,.2131,2.38418,.13077,1.7815-.1836,3.44544-.97519,4.71182-2.24157,0,0,4.72782-5.66699,6.10252-7.31478,.20991-.25158,.19317-.62184-.03851-.85352-.24732-.24732-.64834-.24735-.89567-.00003-1.28901,1.28901-4.9962,4.9962-6.24893,6.24893-.11123,.11123-.26209,.17373-.4194,.17373-.15731,0-.30818-.0625-.41941-.17373s-.17373-.26209-.17373-.41941c0-.15731,.0625-.30818,.17373-.4194,1.25906-1.25906,4.99736-4.99736,6.26825-6.26825,.23665-.23665,.23661-.62038-.00003-.85703-.23661-.23661-.62035-.23665-.857,0-1.27089,1.27089-5.00919,5.00919-6.26825,6.26825-.11123,.11123-.26209,.17373-.41941,.17373-.15731,0-.30818-.0625-.41941-.17373s-.17373-.26209-.17373-.41941c0-.15731,.0625-.30818,.17373-.4194,1.25906-1.25906,4.99736-4.99736,6.26825-6.26825,.23665-.23665,.23661-.62038-.00003-.85703s-.62038-.23668-.85703-.00003c-1.27089,1.27089-5.00919,5.00919-6.26825,6.26825-.11123,.11123-.26209,.17373-.41941,.17373-.15728,.00003-.30818-.0625-.41941-.17373s-.17373-.26209-.17373-.41941c.00003-.15728,.0625-.30818,.17373-.41941,1.25273-1.25273,4.95982-4.95982,6.2489-6.2489,.24736-.24736,.24736-.64834,0-.8957-.2322-.2322-.60335-.24842-.8549-.03738-1.64957,1.37622-7.31339,6.10139-7.31339,6.10139-1.26641,1.26641-2.05797,2.93032-2.24163,4.71182-.08224,.79747-.07279,1.63625,.13081,2.38414,0,0-12.09974,12.09974-15.89216,15.89216-.29773,.29773-.46501,.70159-.46501,1.12264,.00003,.42108,.16731,.82495,.46504,1.12267h0Z"/></g></g><g><path class="cls-1" d="M13.91702,34.10826h5.16821v1.31787h-5.16821v-1.31787Zm1.88867,.87109h1.39087v9.77295h-1.39087v-9.77295Z"/><path class="cls-1" d="M21.78201,44.54723c-.39526-.20947-.69678-.51465-.90405-.91504-.20752-.3999-.31128-.88086-.31128-1.44189v-5.51953c0-.56641,.10376-1.04932,.31128-1.44971,.20728-.3999,.50879-.70361,.90405-.91113s.87109-.31152,1.42749-.31152,1.03223,.104,1.42749,.31152,.69653,.51123,.90405,.91113c.20728,.40039,.31104,.8833,.31104,1.44971v5.51953c0,.56104-.10376,1.04199-.31104,1.44189-.20752,.40039-.50879,.70557-.90405,.91504-.39526,.20996-.87109,.31494-1.42749,.31494s-1.03223-.10498-1.42749-.31494Zm2.10449-1.18945c.18799-.1001,.33057-.24512,.42822-.43555s.14648-.41992,.14648-.68799v-5.60742c0-.26855-.04883-.49805-.14648-.68848-.09766-.18994-.24023-.33545-.42822-.43555-.18774-.09961-.41357-.1499-.677-.1499-.26367,0-.48926,.05029-.67725,.1499-.18774,.1001-.33057,.24561-.42822,.43555-.09766,.19043-.14648,.41992-.14648,.68848v5.60742c0,.26807,.04883,.49756,.14648,.68799s.24048,.33545,.42822,.43555c.18799,.1001,.41357,.1499,.67725,.1499,.26343,0,.48926-.0498,.677-.1499Z"/><path class="cls-1" d="M28.06595,34.10826h1.39087v10.64404h-1.39087v-10.64404Zm.7688,5.19775h2.01318c.19019,0,.35498-.04395,.4939-.13184,.13916-.08789,.24536-.21484,.3186-.38086,.07324-.16553,.10986-.36328,.10986-.59277v-1.63232c0-.23926-.03662-.44434-.10986-.61523-.07324-.17041-.17944-.30127-.3186-.3916-.13892-.09033-.30371-.13525-.4939-.13525h-2.01318v-1.31787h1.98389c.50244,0,.93066,.09521,1.28467,.28564,.35376,.19043,.62329,.46875,.80884,.83447,.18555,.36621,.27832,.80518,.27832,1.31787v1.69092c0,.50244-.09424,.93213-.28198,1.28857-.18799,.35596-.45874,.62842-.8125,.81592-.354,.18799-.77954,.28174-1.27734,.28174h-1.98389v-1.31738Z"/></g></g></g></svg>