<?xml version="1.0" encoding="UTF-8"?><svg id="_レイヤー_2" xmlns="http://www.w3.org/2000/svg" viewBox="0 0 39.05843 38.72891"><defs><style>.cls-1{fill:#3e0005;}</style></defs><g id="header"><g><path class="cls-1" d="M25.98188,21.52288H5.79829c-.51081,0-.96232-.33228-1.11408-.82008L.05266,5.81465c-.11017-.35418-.04535-.73955,.17455-1.0382s.56877-.47497,.93954-.47497H30.94372c.64443,0,1.16674,.52231,1.16674,1.16662s-.52231,1.16662-1.16674,1.16662H2.75159l3.90549,12.55491H25.98188c.64443,0,1.16674,.52231,1.16674,1.16662s-.52231,1.16662-1.16674,1.16662Z"/><path class="cls-1" d="M23.66478,29.1341H6.59868c-.64443,0-1.16674-.52231-1.16674-1.16662s.52231-1.16662,1.16674-1.16662H22.82391L31.4908,.79784c.15884-.47641,.60461-.79784,1.10678-.79784h5.29411c.64443,0,1.16674,.52242,1.16674,1.16674s-.52231,1.16662-1.16674,1.16662h-4.45324l-8.66689,26.003c-.15884,.47641-.60461,.79773-1.10678,.79773Z"/><path class="cls-1" d="M6.54381,38.72891c-2.51377,0-4.55898-2.04511-4.55898-4.55898,0-2.51344,2.04522-4.55821,4.55898-4.55821,2.5131,0,4.55766,2.04477,4.55766,4.55821,0,2.51388-2.04455,4.55898-4.55766,4.55898Zm0-6.78383c-1.22713,0-2.22551,.99805-2.22551,2.22485,0,1.22724,.99838,2.22573,2.22551,2.22573,1.22647,0,2.22419-.99849,2.22419-2.22573,0-1.2268-.99772-2.22485-2.22419-2.22485Z"/><path class="cls-1" d="M24.57512,38.72891c-2.5131,0-4.55766-2.04511-4.55766-4.55898,0-2.51344,2.04455-4.55821,4.55766-4.55821,2.51333,0,4.55832,2.04477,4.55832,4.55821,0,2.51388-2.04499,4.55898-4.55832,4.55898Zm0-6.78383c-1.22647,0-2.22419,.99805-2.22419,2.22485,0,1.22724,.99772,2.22573,2.22419,2.22573,1.22691,0,2.22485-.99849,2.22485-2.22573,0-1.2268-.99794-2.22485-2.22485-2.22485Z"/><path class="cls-1" d="M28.13218,13.91366H4.14442c-.64443,0-1.16674-.52231-1.16674-1.16662s.52231-1.16662,1.16674-1.16662H28.13218c.64443,0,1.16674,.52231,1.16674,1.16662s-.52231,1.16662-1.16674,1.16662Z"/><path class="cls-1" d="M8.27954,20.19919c-.64443,0-1.16674-.52231-1.16674-1.16662V6.29537c0-.64431,.52231-1.16662,1.16674-1.16662s1.16674,.52231,1.16674,1.16662v12.73719c0,.64431-.52231,1.16662-1.16674,1.16662Z"/><path class="cls-1" d="M16.22104,20.19919c-.64443,0-1.16674-.52231-1.16674-1.16662V6.29537c0-.64431,.52231-1.16662,1.16674-1.16662s1.16674,.52231,1.16674,1.16662v12.73719c0,.64431-.52231,1.16662-1.16674,1.16662Z"/><path class="cls-1" d="M24.16187,20.19919c-.64443,0-1.16674-.52231-1.16674-1.16662V6.29537c0-.64431,.52231-1.16662,1.16674-1.16662s1.16674,.52231,1.16674,1.16662v12.73719c0,.64431-.52231,1.16662-1.16674,1.16662Z"/></g></g></svg>