<?xml version="1.0" encoding="UTF-8"?><svg id="_レイヤー_2" xmlns="http://www.w3.org/2000/svg" viewBox="0 0 128.69922 27.2002"><defs><style>.cls-1{fill:#fff;}</style></defs><g id="text"><g><path class="cls-1" d="M1.40039,1.5c0-.23242-.0752-.4248-.2251-.57471s-.54248-.25781-1.17529-.32471V0H12.05029V.60059c-.56738,.0332-.94238,.1084-1.125,.22461-.18359,.11719-.2749,.25879-.2749,.4248,0,.06738,.21631,.36719,.6499,.90039,.43262,.5332,1,1.2002,1.69971,2,.7002,.7998,1.4917,1.69238,2.375,2.6748,.88281,.9834,1.77539,1.96729,2.67529,2.9502,.8999,.9834,1.76611,1.91699,2.6001,2.7998,.83252,.88379,1.5498,1.64258,2.1499,2.27539V1.5c0-.56641-.3501-.86621-1.05029-.89941V0h9.15039V.60059c-.63379,.06689-1.02539,.1748-1.17529,.32471s-.2251,.34229-.2251,.57471V24.80029c0,.23389,.0752,.42529,.2251,.57471,.1499,.15039,.5415,.25879,1.17529,.3252v.6001h-9.5v-.6001c.46631,0,.7749-.0498,.9248-.1499s.2251-.23291,.2251-.3999c0-.1001-.05029-.2251-.1499-.375-.1001-.15039-.31738-.4082-.65039-.77539-.3335-.36621-.82471-.89111-1.47461-1.57471-.65039-.68311-1.50879-1.6001-2.5752-2.75-1.06738-1.1499-2.38379-2.58252-3.9502-4.30029-1.56689-1.71582-3.44971-3.80762-5.6499-6.27441v15.69971c0,.23389,.0752,.42529,.2251,.57471,.1499,.15039,.5415,.25879,1.1748,.3252v.6001H0v-.6001c.63281-.06641,1.02539-.1748,1.17529-.3252,.1499-.14941,.2251-.34082,.2251-.57471V1.5Z"/><path class="cls-1" d="M43.75,4.90039c-.2998,0-.59961,.05859-.8999,.1748-.30029,.11719-.44971,.3584-.44971,.7251,0,.1333,.08252,.5,.25,1.1001,.16602,.59961,.38281,1.30859,.64941,2.125,.2666,.81738,.55029,1.7002,.85059,2.6499,.2998,.94971,.59082,1.86719,.875,2.75,.28223,.8833,.53223,1.68359,.75,2.3999,.21582,.71729,.35742,1.24219,.4248,1.5752h.09961c.06641-.36621,.22559-.90039,.47559-1.6001s.54102-1.48291,.875-2.3501c.33252-.86621,.68262-1.7749,1.0498-2.72461,.36621-.9502,.70801-1.8252,1.0249-2.625,.31641-.80029,.57471-1.5,.7749-2.10059,.2002-.59961,.2998-1,.2998-1.19971,0-.3667-.14941-.60791-.44971-.7251-.30029-.11621-.6001-.1748-.8999-.1748v-.6001h10.1499v.6001c-.3335,0-.6499,.05859-.94971,.1748-.30029,.11719-.4502,.3584-.4502,.7251,0,.1001,.10742,.44971,.3252,1.05029,.21582,.59961,.48242,1.32471,.7998,2.1748,.31641,.84961,.65771,1.7749,1.0249,2.7749,.3667,1,.7251,1.94971,1.07471,2.8501,.35059,.8999,.65039,1.69238,.90039,2.375,.25,.68359,.40771,1.14209,.47461,1.375h.10059c.06641-.36621,.20752-.9082,.4248-1.625,.21631-.7168,.46631-1.50781,.75-2.375,.28271-.86621,.5752-1.75781,.875-2.6748s.58301-1.7832,.84961-2.60059c.2666-.81641,.4834-1.52441,.65039-2.125,.16602-.59961,.25-1,.25-1.19971,0-.3667-.15039-.60791-.4502-.7251-.2998-.11621-.61719-.1748-.9502-.1748v-.6001h8.30029v.6001c-.46729,.06738-.76709,.2168-.8999,.4502-.13379,.2334-.26758,.5332-.40039,.89941-.09961,.33398-.31689,1.01758-.64941,2.05029-.33398,1.03369-.73389,2.23389-1.2002,3.6001-.46729,1.36719-.94238,2.7998-1.4248,4.2998-.48389,1.5-.94238,2.89258-1.375,4.1748-.43359,1.28418-.78418,2.35889-1.05029,3.22559-.26709,.86719-.3999,1.34961-.3999,1.44971,0,.3335,.46631,.55029,1.3999,.6499v.6001h-10.55029v-.6001c.9668-.09961,1.4502-.31641,1.4502-.6499,0-.1665-.09961-.55029-.2998-1.1499-.2002-.6001-.4502-1.31641-.75-2.15039-.2998-.83252-.625-1.73242-.9751-2.69971-.3501-.96631-.69189-1.88281-1.0249-2.75-.33398-.8667-.61719-1.63281-.8501-2.30029-.23389-.66602-.3833-1.13281-.44971-1.39941h-.10059c-.06689,.2666-.2168,.7334-.44971,1.39941-.23389,.66748-.51709,1.43359-.8501,2.30029-.3335,.86719-.6748,1.78369-1.0249,2.75-.3501,.96729-.67529,1.86719-.9751,2.69971-.2998,.83398-.5498,1.55029-.75,2.15039-.2002,.59961-.2998,.9834-.2998,1.1499,0,.19971,.125,.34229,.375,.42529s.55762,.1582,.9248,.22461v.6001h-10.34961v-.6001c.89941-.09961,1.34961-.31641,1.34961-.6499,0-.13281-.1499-.68311-.4502-1.6499-.2998-.9668-.6748-2.1416-1.125-3.52539-.44971-1.38281-.94189-2.88281-1.47461-4.5-.53369-1.61621-1.03369-3.125-1.5-4.52441-.46729-1.40039-.8584-2.5918-1.1748-3.5752-.31738-.98291-.49219-1.55762-.52539-1.7251-.06738-.26611-.1748-.44141-.3252-.5249-.14941-.08301-.30859-.125-.47461-.125v-.6001h8.7998v.6001Z"/><path class="cls-1" d="M99.34961,21.90039c.6665,0,1.1001-.4165,1.2998-1.25h.60059v6.5498h-.5c-.16748-.4668-.34277-.7334-.52539-.7998-.18359-.06738-.47461-.1001-.875-.1001h-22.2998v-.6001c.36621-.03271,.69141-.09961,.97461-.2002,.2832-.09961,.42529-.33252,.42529-.69971V5.80029c0-.3667-.14209-.6001-.42529-.69971-.2832-.10059-.6084-.16699-.97461-.2002v-.6001h22.7002c.19971,0,.39941-.06641,.59961-.19971,.2002-.13281,.2998-.43311,.2998-.90039h.60059v6.7002h-.60059c0-.5-.09961-.8252-.2998-.9751s-.3999-.2251-.59961-.2251h-14.60059v4.0498h9.40039c.2002,0,.3999-.07471,.59961-.22461,.2002-.15039,.30029-.45801,.30029-.9248h.6001v6.5h-.6001c0-.4668-.1001-.77539-.30029-.92529-.19971-.1499-.39941-.2251-.59961-.2251h-9.40039v4.9502h14.2002Z"/><path class="cls-1" d="M107.89941,18.9502c0,.06738-.00879,.14258-.02539,.2251-.0166,.0835-.02441,.19189-.02441,.32471,0,.33398,.31641,.65039,.94971,.9502,.63281,.2998,1.44141,.5752,2.42529,.8252,.98242,.25,2.0498,.4502,3.19971,.59961,1.1499,.15039,2.2251,.22559,3.2251,.22559,.2998,0,.70801-.0166,1.22461-.05029,.5166-.03271,1.02539-.125,1.52539-.2749,.5-.15039,.9248-.36621,1.2749-.65039,.3501-.28223,.5249-.6748,.5249-1.1748,0-.66602-.3999-1.1416-1.2002-1.4248-.7998-.2832-1.80859-.5-3.02441-.65039-1.21777-.14941-2.53418-.30762-3.9502-.47461-1.41699-.1665-2.7334-.45801-3.9502-.875-1.2168-.4165-2.22461-1.0166-3.0249-1.7998s-1.19971-1.875-1.19971-3.27539c0-.7666,.19971-1.59131,.59961-2.47461,.40039-.88281,1.0332-1.69141,1.90039-2.42529,.86621-.73291,2.00781-1.34131,3.4248-1.82471,1.41602-.4834,3.1416-.72559,5.1748-.72559,1.2002,0,2.3418,.06738,3.4248,.2002,1.08301,.13379,2.06641,.28369,2.9502,.4502,.88281,.16699,1.63281,.31738,2.25,.4502,.61621,.1333,1.05762,.19971,1.3252,.19971,.2666,0,.48242-.07471,.6499-.2251,.1665-.1499,.31641-.2749,.44971-.375l.55029,.2002-3,6.2998-.6499-.2998c0-.06641,.00781-.15039,.0249-.25,.01611-.1001,.0249-.2002,.0249-.2998,0-.13281-.2002-.30029-.59961-.5-.40039-.2002-.92529-.40039-1.5752-.60059-.65039-.19971-1.38379-.375-2.2002-.52441-.81738-.15039-1.6582-.22559-2.5249-.22559-.30029,0-.76709,.00879-1.3999,.02539-.63379,.01709-1.26758,.09961-1.90039,.25-.6333,.1499-1.19189,.36719-1.6748,.6499-.4834,.28369-.72461,.7085-.72461,1.2749,0,.6001,.39941,1.02539,1.19971,1.27539s1.80811,.44971,3.0249,.59961c1.2168,.15039,2.5332,.31738,3.9502,.5,1.41602,.18359,2.73242,.49219,3.9502,.9248,1.21582,.43359,2.22461,1.05859,3.02441,1.875,.80029,.81738,1.2002,1.95898,1.2002,3.42529,0,.96729-.2168,1.89209-.6499,2.7749-.43359,.88379-1.1001,1.65869-2,2.3252-.8999,.66699-2.04248,1.1748-3.42529,1.5249-1.3833,.3501-3.02441,.5249-4.9248,.5249-1.2002,0-2.41699-.0752-3.6499-.22461-1.23389-.15039-2.36719-.33301-3.3999-.55029-1.03369-.21631-1.89258-.4165-2.5752-.6001-.68359-.18262-1.0752-.2749-1.1748-.2749-.2334,0-.44238,.07471-.625,.2251-.18359,.1499-.3584,.30859-.52539,.47461l-.5498-.14941,2.0498-6.7002,.65039,.2998Z"/></g></g></svg>