<?xml version="1.0" encoding="UTF-8"?><svg id="_レイヤー_2" xmlns="http://www.w3.org/2000/svg" viewBox="0 0 32.96236 32.96236"><defs><style>.cls-1{fill:#fff;}.cls-2{fill:#4d4d4d;}</style></defs><g id="footer"><g><circle class="cls-2" cx="16.48118" cy="16.48118" r="16.48118"/><path class="cls-1" d="M28.55143,14.7756c0-5.40113-5.41461-9.7952-12.07033-9.7952-6.655,0-12.07017,4.39407-12.07017,9.7952,0,4.84199,4.29408,8.89726,10.09448,9.6637,.39308,.08498,.92811,.25913,1.06339,.59519,.12176,.30516,.07963,.78318,.03907,1.09156,0,0-.14159,.85174-.17226,1.03329-.05259,.30516-.24255,1.1936,1.04548,.65056,1.28836-.54272,6.95123-4.09293,9.48364-7.00772h-.00056c1.74927-1.91851,2.58726-3.86503,2.58726-6.02657Zm-16.32888,2.88356c0,.12972-.10498,.23499-.23474,.23499h-3.38254c-.06305,0-.12003-.02479-.16232-.06535-.00117-.00129-.00229-.00225-.00346-.00322-.00133-.00129-.00225-.00258-.00322-.00354-.0406-.04217-.06575-.09947-.06575-.16256v-5.25917c0-.12972,.10538-.23466,.23515-.23466h.84671c.12977,0,.23495,.10494,.23495,.23466v4.17695h2.30048c.12977,0,.23474,.10526,.23474,.23531v.84659Zm2.04128,.00032c0,.12972-.10538,.23466-.23515,.23466h-.84671c-.12977,0-.23511-.10494-.23511-.23466v-5.25917c0-.12972,.10534-.23466,.23511-.23466h.84671c.12977,0,.23515,.10494,.23515,.23466v5.25917Zm5.82748,0c0,.12972-.10518,.23466-.23511,.23466h-.84655c-.02096,0-.04116-.0029-.06019-.00805-.00117,0-.00229-.00064-.00342-.00064-.00535-.00161-.0105-.00322-.01601-.00515-.00249-.00097-.00459-.00161-.00704-.0029-.00402-.00129-.00765-.00322-.01143-.00451-.00382-.00193-.00765-.00386-.01127-.00547-.00229-.00129-.00439-.00225-.00668-.00386-.00495-.00258-.0097-.00547-.01445-.00869-.00076-.00064-.00173-.00129-.00249-.00193-.02249-.01513-.04305-.03444-.05963-.05794l-2.41311-3.2589v3.12338c0,.12972-.10538,.23466-.23531,.23466h-.84655c-.12977,0-.23515-.10494-.23515-.23466v-5.25917c0-.12972,.10538-.23466,.23515-.23466h.84655c.00286,0,.00531,.00032,.00817,.00032,.00418,.00032,.00821,.00032,.01219,.00064,.00418,.00032,.00841,.00097,.01239,.00161,.00326,.00032,.00668,.00064,.0099,.00129,.00459,.00097,.00897,.00193,.01352,.00322,.0029,.00064,.00555,.00129,.00821,.00193,.00475,.00129,.00934,.0029,.01392,.00451,.00266,.00097,.00495,.00193,.0076,.0029,.00479,.00161,.00917,.00354,.01352,.00547,.00249,.00129,.00499,.00258,.00744,.00386,.00418,.00193,.00837,.00451,.01259,.00708,.00245,.00129,.00475,.00258,.00704,.00386,.00418,.0029,.00817,.00579,.01219,.00869,.00209,.00129,.00418,.0029,.00608,.00451,.00439,.00354,.00857,.00708,.01259,.01062,.00153,.00129,.00286,.00258,.00439,.00386,.00475,.00483,.00954,.00934,.01408,.01449,.0004,.00032,.00097,.00097,.00153,.00161,.00648,.00773,.01276,.01545,.01831,.02382l2.41025,3.25503v-3.12466c0-.12972,.10518-.23466,.23511-.23466h.84655c.12993,0,.23511,.10494,.23511,.23466v5.25917Zm4.67513-4.41226c0,.13005-.10498,.23531-.23474,.23531h-2.30032v.88876h2.30032c.12977,0,.23474,.10558,.23474,.23531v.84659c0,.13005-.10498,.23499-.23474,.23499h-2.30032v.88908h2.30032c.12977,0,.23474,.10558,.23474,.23531v.84659c0,.12972-.10498,.23499-.23474,.23499h-3.38254c-.06305,0-.12023-.02511-.16232-.06567-.00117-.00097-.00249-.00193-.00346-.0029-.00113-.00129-.00225-.00258-.00322-.00354-.0406-.04217-.06575-.09947-.06575-.16256v-5.25917c0-.06277,.02499-.11975,.06518-.16191,.00113-.00129,.00245-.00258,.00378-.00418,.00076-.00064,.00193-.00161,.0027-.00225,.04249-.0412,.09963-.06631,.16308-.06631h3.38254c.12977,0,.23474,.10526,.23474,.23531v.84627Z"/></g></g></svg>