<?xml version="1.0" encoding="UTF-8"?><svg id="_レイヤー_2" xmlns="http://www.w3.org/2000/svg" viewBox="0 0 152.20903 75.57436"><defs><style>.cls-1{fill:#c67216;}.cls-2{fill:#b60005;fill-rule:evenodd;}.cls-3{fill:#a5640a;}.cls-4{fill:#f08300;}</style></defs><g id="text"><g><path class="cls-3" d="M22.61062,7.2909V15.74044c0,1.26277-.0264,2.07884-.04752,2.43043-.04645,.37698-.21538,.69467-.51945,.99251-.3104,.28921-.73483,.48459-1.24161,.59968-.52578,.10865-1.31023,.16883-2.35546,.16883h-2.3692v-2.22023c.27662,.01998,.48672,.01998,.6208,.01998,.32413,0,.58807-.04743,.78235-.16252,.20377-.11831,.31146-.26292,.34524-.42763,.02007-.15517,.03379-.48253,.03379-.96184V7.2909h4.75105Z"/><path class="cls-3" d="M35.24567,7.2909V15.76158c0,.95436-.04118,1.61217-.12882,2.00706-.08658,.38535-.36425,.79287-.79606,1.20465-.44554,.40546-1.03256,.7158-1.75473,.91853-.72215,.21639-1.58684,.3231-2.57823,.3231-1.07374,0-2.03873-.11728-2.86858-.37478-.82985-.24822-1.45066-.5797-1.8698-.98091-.41176-.39901-.65459-.81401-.72216-1.26587-.08024-.44876-.12142-1.37992-.12142-2.81785V7.2909h4.74472v9.48316c0,.54684,.04751,.91015,.14148,1.05579,.08235,.15208,.25761,.23327,.50677,.23327,.30407,0,.49939-.08442,.58702-.2575,.06757-.16162,.11508-.56695,.11508-1.19099V7.2909h4.74472Z"/><path class="cls-3" d="M51.72667,7.2909v12.641h-4.1577l-.01373-8.52339-1.64598,8.52339h-2.88863l-1.73467-8.365-.01373,8.365h-4.16404V7.2909h6.11514c.14781,.76233,.35052,1.65341,.5659,2.68278l.66937,3.22227,1.0864-5.90505h6.18166Z"/><path class="cls-3" d="M53.65654,7.29052h4.73204c1.49817,0,2.6321,.08764,3.39438,.24706,.76966,.15827,1.40419,.49516,1.86241,.97447,.47299,.50676,.71582,1.29963,.71582,2.39666,0,.73578-.16154,1.24795-.49938,1.55198-.3368,.28715-.99878,.50573-1.98383,.6609,1.10647,.18262,1.84868,.45933,2.24038,.851,.39909,.39798,.58069,1.01249,.58069,1.82972v1.17397c0,.84675-.14148,1.47066-.41176,1.88243-.29668,.415-.73589,.6948-1.35036,.84365-.61341,.15195-1.87613,.22902-3.78606,.22902h-5.49432V7.29052Zm4.75212,2.15269v2.86231c.19637-.02011,.36423-.02011,.4656-.02011,.4656,0,.75595-.08029,.88475-.24603,.13408-.15943,.20165-.61128,.20165-1.37039,0-.40121-.05384-.68526-.16891-.84778-.1003-.15517-.22912-.25969-.40438-.30931-.16154-.03493-.49938-.05387-.9787-.06869m0,4.80274v3.53275c.65458-.01379,1.09379-.08442,1.26906-.21536,.18899-.1352,.28294-.45302,.28294-.96506v-1.16766c0-.54697-.08023-.88477-.24916-.98929-.1626-.11084-.60074-.18262-1.30284-.19538"/><path class="cls-3" d="M77.2529,14.7018c0,1.28275-.04118,2.16648-.1288,2.69966-.09503,.54053-.36425,1.01133-.82351,1.45055-.44556,.43923-1.05368,.77715-1.82864,1.00617-.77601,.24926-1.68081,.35687-2.71337,.35687-.97872,0-1.86347-.10762-2.62575-.3378-.78973-.21858-1.41688-.54581-1.88248-.99457-.47194-.44245-.76228-.92175-.84357-1.44114-.09503-.53009-.13515-1.43805-.13515-2.73974v-2.17396c0-1.27218,.04011-2.17705,.12775-2.70598,.08869-.52042,.36425-1.00617,.80346-1.44114,.4582-.44876,1.07267-.77921,1.84868-1.01571,.7834-.2365,1.67448-.34733,2.70706-.34733,.98505,0,1.85607,.09395,2.62575,.33367,.78234,.22271,1.41686,.54053,1.88986,.99238,.46561,.44554,.74222,.93129,.83619,1.44436,.10135,.52686,.14253,1.44114,.14253,2.73974v2.17396Zm-4.7521-4.15782c0-.58383-.05386-.97228-.13515-1.14021-.1077-.14886-.29668-.24384-.58069-.24384-.24916,0-.43815,.07488-.55957,.20582-.13515,.12141-.19532,.53009-.19532,1.17823v5.90505c0,.73591,.04011,1.18467,.12141,1.35673,.08024,.16265,.28296,.2566,.59337,.2566,.32412,0,.52683-.10143,.6208-.29668,.08869-.19641,.13515-.6609,.13515-1.4106v-5.8111Z"/><path class="cls-3" d="M93.1398,11.11827h-4.40055v-.93851c0-.43923-.05384-.7158-.1742-.83721-.1077-.12153-.29773-.18275-.56063-.18275-.284,0-.50677,.09511-.65563,.2365-.14781,.16574-.22912,.415-.22912,.74222,0,.41177,.08764,.72856,.25655,.93438,.16154,.20698,.60074,.4699,1.34403,.77715,2.10525,.88361,3.43447,1.60998,3.98138,2.15591,.54584,.56695,.82351,1.46434,.82351,2.7101,0,.90487-.1552,1.55946-.45927,1.99133-.29668,.43497-.89108,.7854-1.77478,1.07577-.86469,.28715-1.8698,.43188-3.03646,.43188-1.2701,0-2.34912-.16793-3.2476-.49838-.89743-.32839-1.49078-.7506-1.77478-1.26909-.2629-.5141-.41176-1.24898-.41176-2.2076v-.80976h4.40158v1.51924c0,.46874,.06019,.77174,.19427,.9175,.12141,.12037,.34419,.19629,.65565,.19629,.32412,0,.55324-.09498,.70842-.2575,.14781-.17218,.2365-.43188,.2365-.76233,0-.75279-.15625-1.22475-.43921-1.46756-.303-.21961-1.03995-.60174-2.22032-1.14446-1.16771-.54272-1.96377-.93864-2.36285-1.18042-.36425-.25016-.68732-.58486-.93016-1.0188-.25127-.43923-.38535-.98929-.38535-1.66076,0-.97975,.18266-1.67442,.53951-2.1264,.35157-.44863,.93226-.80344,1.73465-1.05257,.78973-.25029,1.75473-.37478,2.88232-.37478,1.2416,0,2.28789,.13094,3.16631,.4159,.86258,.27568,1.43694,.61979,1.71355,1.04522,.28296,.41822,.42444,1.13299,.42444,2.13272v.50676Z"/><polygon class="cls-3" points="104.57348 7.2909 104.57348 9.81542 101.73867 9.81542 101.73867 19.9319 97.00029 19.9319 97.00029 9.81542 94.20773 9.81542 94.20773 7.2909 104.57348 7.2909"/><polygon class="cls-3" points="105.67341 7.2909 113.58971 7.2909 113.58971 9.81542 110.43924 9.81542 110.43924 12.21092 113.39439 12.21092 113.39439 14.60333 110.43924 14.60333 110.43924 17.41808 113.90012 17.41808 113.90012 19.9319 105.67341 19.9319 105.67341 7.2909"/><path class="cls-3" d="M123.45692,7.29142l2.71443,12.63996h-4.83341l-.25551-2.27732h-1.74205l-.25551,2.27732h-4.90731l2.4167-12.63996h6.86263Zm-2.51594,8.13907c-.22912-1.45803-.46561-3.23271-.72956-5.34545-.47932,2.43262-.77601,4.20421-.89741,5.34545h1.62697Z"/><polygon class="cls-3" points="138.30619 7.2909 135.60546 13.0007 138.5828 19.9319 133.69026 19.9319 131.7455 14.5126 131.7455 19.9319 127.00184 19.9319 127.00184 7.2909 131.7455 7.2909 131.7455 12.20461 133.86448 7.2909 138.30619 7.2909"/><path class="cls-1" d="M22.61062,7.2909V15.74044c0,1.26277-.0264,2.07884-.04752,2.43043-.04645,.37698-.21538,.69467-.51945,.99251-.3104,.28921-.73483,.48459-1.24161,.59968-.52578,.10865-1.31023,.16883-2.35546,.16883h-2.3692v-2.22023c.27662,.01998,.48672,.01998,.6208,.01998,.32413,0,.58807-.04743,.78235-.16252,.20377-.11831,.31146-.26292,.34524-.42763,.02007-.15517,.03379-.48253,.03379-.96184V7.2909h4.75105Z"/><path class="cls-1" d="M35.24567,7.2909V15.76158c0,.95436-.04118,1.61217-.12882,2.00706-.08658,.38535-.36425,.79287-.79606,1.20465-.44554,.40546-1.03256,.7158-1.75473,.91853-.72215,.21639-1.58684,.3231-2.57823,.3231-1.07374,0-2.03873-.11728-2.86858-.37478-.82985-.24822-1.45066-.5797-1.8698-.98091-.41176-.39901-.65459-.81401-.72216-1.26587-.08024-.44876-.12142-1.37992-.12142-2.81785V7.2909h4.74472v9.48316c0,.54684,.04751,.91015,.14148,1.05579,.08235,.15208,.25761,.23327,.50677,.23327,.30407,0,.49939-.08442,.58702-.2575,.06757-.16162,.11508-.56695,.11508-1.19099V7.2909h4.74472Z"/><path class="cls-1" d="M51.72667,7.2909v12.641h-4.1577l-.01373-8.52339-1.64598,8.52339h-2.88863l-1.73467-8.365-.01373,8.365h-4.16404V7.2909h6.11514c.14781,.76233,.35052,1.65341,.5659,2.68278l.66937,3.22227,1.0864-5.90505h6.18166Z"/><path class="cls-1" d="M53.65654,7.29052h4.73204c1.49817,0,2.6321,.08764,3.39438,.24706,.76966,.15827,1.40419,.49516,1.86241,.97447,.47299,.50676,.71582,1.29963,.71582,2.39666,0,.73578-.16154,1.24795-.49938,1.55198-.3368,.28715-.99878,.50573-1.98383,.6609,1.10647,.18262,1.84868,.45933,2.24038,.851,.39909,.39798,.58069,1.01249,.58069,1.82972v1.17397c0,.84675-.14148,1.47066-.41176,1.88243-.29668,.415-.73589,.6948-1.35036,.84365-.61341,.15195-1.87613,.22902-3.78606,.22902h-5.49432V7.29052Zm4.75212,2.15269v2.86231c.19637-.02011,.36423-.02011,.4656-.02011,.4656,0,.75595-.08029,.88475-.24603,.13408-.15943,.20165-.61128,.20165-1.37039,0-.40121-.05384-.68526-.16891-.84778-.1003-.15517-.22912-.25969-.40438-.30931-.16154-.03493-.49938-.05387-.9787-.06869m0,4.80274v3.53275c.65458-.01379,1.09379-.08442,1.26906-.21536,.18899-.1352,.28294-.45302,.28294-.96506v-1.16766c0-.54697-.08023-.88477-.24916-.98929-.1626-.11084-.60074-.18262-1.30284-.19538"/><path class="cls-1" d="M77.2529,14.7018c0,1.28275-.04118,2.16648-.1288,2.69966-.09503,.54053-.36425,1.01133-.82351,1.45055-.44556,.43923-1.05368,.77715-1.82864,1.00617-.77601,.24926-1.68081,.35687-2.71337,.35687-.97872,0-1.86347-.10762-2.62575-.3378-.78973-.21858-1.41688-.54581-1.88248-.99457-.47194-.44245-.76228-.92175-.84357-1.44114-.09503-.53009-.13515-1.43805-.13515-2.73974v-2.17396c0-1.27218,.04011-2.17705,.12775-2.70598,.08869-.52042,.36425-1.00617,.80346-1.44114,.4582-.44876,1.07267-.77921,1.84868-1.01571,.7834-.2365,1.67448-.34733,2.70706-.34733,.98505,0,1.85607,.09395,2.62575,.33367,.78234,.22271,1.41686,.54053,1.88986,.99238,.46561,.44554,.74222,.93129,.83619,1.44436,.10135,.52686,.14253,1.44114,.14253,2.73974v2.17396Zm-4.7521-4.15782c0-.58383-.05386-.97228-.13515-1.14021-.1077-.14886-.29668-.24384-.58069-.24384-.24916,0-.43815,.07488-.55957,.20582-.13515,.12141-.19532,.53009-.19532,1.17823v5.90505c0,.73591,.04011,1.18467,.12141,1.35673,.08024,.16265,.28296,.2566,.59337,.2566,.32412,0,.52683-.10143,.6208-.29668,.08869-.19641,.13515-.6609,.13515-1.4106v-5.8111Z"/><path class="cls-1" d="M93.1398,11.11827h-4.40055v-.93851c0-.43923-.05384-.7158-.1742-.83721-.1077-.12153-.29773-.18275-.56063-.18275-.284,0-.50677,.09511-.65563,.2365-.14781,.16574-.22912,.415-.22912,.74222,0,.41177,.08764,.72856,.25655,.93438,.16154,.20698,.60074,.4699,1.34403,.77715,2.10525,.88361,3.43447,1.60998,3.98138,2.15591,.54584,.56695,.82351,1.46434,.82351,2.7101,0,.90487-.1552,1.55946-.45927,1.99133-.29668,.43497-.89108,.7854-1.77478,1.07577-.86469,.28715-1.8698,.43188-3.03646,.43188-1.2701,0-2.34912-.16793-3.2476-.49838-.89743-.32839-1.49078-.7506-1.77478-1.26909-.2629-.5141-.41176-1.24898-.41176-2.2076v-.80976h4.40158v1.51924c0,.46874,.06019,.77174,.19427,.9175,.12141,.12037,.34419,.19629,.65565,.19629,.32412,0,.55324-.09498,.70842-.2575,.14781-.17218,.2365-.43188,.2365-.76233,0-.75279-.15625-1.22475-.43921-1.46756-.303-.21961-1.03995-.60174-2.22032-1.14446-1.16771-.54272-1.96377-.93864-2.36285-1.18042-.36425-.25016-.68732-.58486-.93016-1.0188-.25127-.43923-.38535-.98929-.38535-1.66076,0-.97975,.18266-1.67442,.53951-2.1264,.35157-.44863,.93226-.80344,1.73465-1.05257,.78973-.25029,1.75473-.37478,2.88232-.37478,1.2416,0,2.28789,.13094,3.16631,.4159,.86258,.27568,1.43694,.61979,1.71355,1.04522,.28296,.41822,.42444,1.13299,.42444,2.13272v.50676Z"/><polygon class="cls-1" points="104.57348 7.2909 104.57348 9.81542 101.73867 9.81542 101.73867 19.9319 97.00029 19.9319 97.00029 9.81542 94.20773 9.81542 94.20773 7.2909 104.57348 7.2909"/><polygon class="cls-1" points="105.67341 7.2909 113.58971 7.2909 113.58971 9.81542 110.43924 9.81542 110.43924 12.21092 113.39439 12.21092 113.39439 14.60333 110.43924 14.60333 110.43924 17.41808 113.90012 17.41808 113.90012 19.9319 105.67341 19.9319 105.67341 7.2909"/><path class="cls-1" d="M123.45692,7.29142l2.71443,12.63996h-4.83341l-.25551-2.27732h-1.74205l-.25551,2.27732h-4.90731l2.4167-12.63996h6.86263Zm-2.51594,8.13907c-.22912-1.45803-.46561-3.23271-.72956-5.34545-.47932,2.43262-.77601,4.20421-.89741,5.34545h1.62697Z"/><polygon class="cls-1" points="138.30619 7.2909 135.60546 13.0007 138.5828 19.9319 133.69026 19.9319 131.7455 14.5126 131.7455 19.9319 127.00184 19.9319 127.00184 7.2909 131.7455 7.2909 131.7455 12.20461 133.86448 7.2909 138.30619 7.2909"/><path class="cls-4" d="M95.3291,31.03277v5.97155c.74116,.42028,1.23104,1.27437,1.23104,2.271v11.39201l-9.74071-19.6588-.03061,.02423h-12.28939v5.97155c.74855,.42028,1.25005,1.27437,1.25005,2.271v27.5646c0,.99245-.50149,1.85923-1.25005,2.27945v5.97258h12.29572v-5.97258c-.73694-.42022-1.23738-1.287-1.23738-2.27945v-10.80806l9.46833,19.11499,.30301-.16046v.10555h11.08262c-.02534-.16787-.03696-.32832-.03696-.51417V39.93739c0-1.15722,.50044-2.1813,1.24267-2.744v-6.16062h-12.28833Z"/><path class="cls-4" d="M134.75197,46.57706c-2.2953-1.04625-3.68155-1.94262-4.17671-2.67853-.51945-.7506-.77916-1.8381-.77916-3.30566,0-1.13286,.22804-1.97961,.68626-2.5423,.45822-.55741,1.13286-.83618,2.02394-.83618,.80452,0,1.39787,.21111,1.74417,.6261,.3463,.41384,.51945,1.38624,.51945,2.90755v3.26455h13.71998v-1.72726c0-.26923,0-.52893-.00633-.76967v-7.97333h-.0623C163.58769,.93748,128.31164,.0009,128.31164,.0009c27.11374,3.69952,11.86708,23.21049,5.78468,29.85674-.67466-.0317-1.36831-.05593-2.07253-.05593-3.50943,0-6.49732,.43291-8.97948,1.31755-2.48111,.87948-4.26856,2.09263-5.38347,3.64255-1.10752,1.56255-1.65231,4.02468-1.65231,7.38524,0,2.33854,.39064,4.26015,1.16982,5.76676,.77283,1.49179,1.76421,2.67324,2.95198,3.52102,1.19305,.84984,3.61926,2.20876,7.3008,4.08693,3.66359,1.85395,5.95994,3.18425,6.88798,3.98241,.91009,.8046,1.36829,2.49274,1.36829,5.08576,0,1.18879-.24811,2.07988-.72532,2.67962-.46349,.58802-1.19305,.8974-2.1781,.8974-.96499,0-1.6523-.2481-2.03556-.71161-.38431-.47087-.56801-1.52878-.56801-3.18006v-5.36755h-13.72v2.89182c0,3.29187,.42759,5.82895,1.28702,7.60479,.87207,1.80433,2.68592,3.26764,5.48271,4.42795,2.79679,1.16031,6.1637,1.74208,10.10603,1.74208,3.60129,0,6.74965-.49516,9.46093-1.50449,2.71655-1.00198,4.54095-2.25096,5.48906-3.73116,.93965-1.49076,1.40419-3.79347,1.40419-6.92385,0-4.30661-.84251-7.44756-2.54339-9.37226-1.70826-1.94056-5.84169-4.43323-12.39496-7.46554"/><path class="cls-4" d="M36.91394,36.85018v-5.97142h-15.82313v5.97142c.95339,.41396,1.59636,1.28597,1.59636,2.26997v9.72172h-5.10474v-9.72172c0-.984,.64932-1.85601,1.59108-2.26997v-5.97142h-.09291C13.95684,25.53215-4.78027,3.91062,23.91294,0,23.91294,0-10.68424,.91647,3.35038,32.5796v4.27059c.95232,.41396,1.60269,1.28597,1.60269,2.26997v27.56878c0,.9956-.65036,1.85607-1.60269,2.27629v5.97471h15.82312v-5.97471c-.94176-.42022-1.59108-1.28069-1.59108-2.27629v-9.73429h5.10474v9.73429c0,.9956-.64297,1.85607-1.59636,2.27629v5.97471h15.82313v-5.97471c-.94072-.42022-1.59003-1.28069-1.59003-2.27629v-27.56878c0-.984,.64932-1.85601,1.59003-2.26997"/><path class="cls-4" d="M71.07179,65.75952l-4.98757-34.87483h-20.74204l-4.98755,34.87483c-.1552,1.13499-.68099,2.14754-1.45487,2.96999v6.21011h15.60562v-5.99372c-.66726-.44444-1.11913-1.23416-1.12547-2.14638h4.74049c-.02533,.9291-.50149,1.74517-1.19409,2.18124v5.95886h15.60564v-6.21011c-.78023-.82245-1.29335-1.835-1.46015-2.96999"/><path class="cls-2" d="M50.45317,53.27911c-.01901,.32207-.04964,.64299-.07391,.95874-.04435,.13623-.08658,.25647-.08658,.41384,0,.4244,.0549,.8394,.14148,1.26909,.12353,.23546,.1552,.5141,.29667,.73694l.16788,.31563,.16047,.3347c-.01162,.09189-.0549,.10981-.12986,.15414-.11718,.01482-.23543,.01482-.35263,.03067-.06863,0-.12986-.01585-.19743-.03067-.08658-.06225-.19216-.11187-.28507-.17631-.02428-.11406-.04962-.2133-.06757-.33148h-.01901c-.01899-.12669-.03694-.24178-.09291-.35262-.03061-.13623-.00633-.22283,.02428-.3463,.03169-.46771-.0116-.90912-.06757-1.37464-.08024-.303-.11192-.58705-.19214-.87213-.07391-.10762-.09819-.19216-.09819-.32194,.0739-.20273,.03696-.41706,.03696-.63035-.01901-.48884-.18583-.8858-.24178-1.35569-.06758-.1361-.12353-.27439-.16049-.42647-.04962-.40855-.14253-.81723-.21749-1.2321-.0549-.40855-.21538-.79184-.33891-1.20039,.0549-.14783,.10452-.2914,.1911-.43291,.11718-.23753,.21644-.42659,.43921-.57223,.24705-.11831,.4202-.22283,.56274-.44554,.06228-.19848,.24176-.33792,.4033-.43613,.30935-.0348,.55641-.1245,.8288-.27026,.37691,.08132,.74855,.16471,1.1202,.27026,.22171,.02745,.43286,0,.65565,.02745,0-.00941,.01266-.01895,.02533-.02745,.06758,.06135,.14148,.12991,.20378,.20376,.63135,.11728,1.16875,.44554,1.81279,.44554,.07391-.02423,.14887-.04317,.21644-.05903,.17948,.02217,.29773-.01482,.46455-.09189,.67464-.01585,1.03256-.43703,1.57102,.12669l.09395,.10143,1.08219,.70304c.30935-.01895,.60601-.05271,.9027-.14667,.13091-.02011,.22277,.02217,.35368,.04111,.06863-.04111,.14254-.07385,.21644-.10762-.11825-.13313-.20482-.28199-.24176-.45302,0-.46977,.52683-.74532,.89108-.89946,.05595-.00954,.09291-.01907,.13726-.01907,.01162,.01907,.02956,.04962,.04222,.06753-.03061,.10568-.06123,.17322-.14148,.24822-.17948,.10555-.31039,.19216-.42126,.3927,0,.0781,.04329,.14886,.05597,.23856,.10452,.01276,.18581,.02745,.29034,.01276,.18583,.09924,.26606-.1236,.45189-.0781,.08658,.0464,.1668,.06534,.25971,.0781,.09292-.04124,.17315-.0781,.27241-.0781,.16154-.17322,.30301-.36112,.3653-.5913v-.46345c.01268-.01907,.02429-.0317,.04329-.0433h.01268c.0739,.06856,.11085,.07385,.14146,.16677,.08658,.38961,.04964,.68732-.08023,1.08646-.02429,.12669-.07391,.22064-.1172,.3347-.03061,.01469-.038,.05903-.05595,.08867,.17315,.21111,.35263,.45186,.53845,.61966,.03063,.07398,.08024,.11728,.1172,.16059,.01899,.09292,.05595,.15827,.07496,.24706h-.03802v.03054c-.0116,.00954-.01795,.02539-.01795,.02539-.08658,.15517-.11825,.26601-.10557,.45186l-.01268,.22915,.16154,.62494,.39592,.88477c.33997,.12669,.29773,.45817,.4086,.76014v.1669l-.43921,.14357c-.16154,.16046-.43921,.09292-.66198,.17837l-.23545,.02539-.56907-.36215c-.19849-.06444-.31039-.0464-.49516,.03377h-.27874c-.17315-.01895-.32729,0-.49516-.03377l-.32201-.15208-.40227,.71271-.18581,.43291c-.06123,.16149-.08551,.28508-.21538,.40855-.14254,.0433-.27874,.08661-.42126,.08661l-.52578,.19745-.7739,.51939c-.05595,.15517-.05595,.29771-.05595,.46242l-.01901,.10143-.01162,.43072c.01901,.07076,.01901,.12566,0,.19745-.04329,.16149-.07391,.32194-.1172,.49825,0,.6029,.14254,1.08543,.37693,1.65135,.02534,.07385,.07496,.10878,.12458,.17412,.08658,.06238,.1288,.1236,.17315,.22812,.12986,.12772,.24072,.26395,.24072,.45508-.04962,.04111-.10557,.09073-.17315,.12141-.30301,.04008-.55639,.01263-.8668-.08029,.12458,.15414,.14887,.36215,.2534,.52583,.038,.16677,.07496,.29037,0,.45082-.07391,.07179-.12882,.08661-.22805,.06225-.02534,.0433-.02534,.05916-.08129,.05916-.21539-.04962-.40121-.08455-.5997-.22064-.06123-.13829-.11085-.25982-.12352-.39811,.08658-.17631,0-.41809-.01901-.5944,0-.66515-.03696-1.27437-.19743-1.91517-.09925-.3347-.21644-.58808-.21644-.9407-.09924-.40855-.23545-.81929-.35896-1.22475l-.27241-.99032-.1668-.38432-.92804-.01688c-.2175,.01688-.4466,.01688-.65671,.03596l-.42653-.03596c-.08658-.0348-.1795-.02539-.26606-.02539-.01901,.17322-.05597,.31576-.05597,.4699l.16682,1.38946c.14253,.49194,.37163,.90049,.54478,1.37039,.17948,.26601,.53213,.39592,.6377,.70627,.01162,.06122,.03063,.1352,.03063,.21227-.03063,.02848-.05597,.04962-.09292,.06547-.01795,0-.03694-.01585-.06123-.01585-.09395,.07707-.1742,.06225-.2914,.06225-.19848,0-.38324-.03699-.58702-.09924-.1119-.16368-.04433-.36744-.18053-.5047-.09291,.01907-.12986,.04756-.18477,.11831-.01901-.00954-.03167-.02436-.04962-.0433,.06757-.23546,.17948-.41487,.16047-.65355-.14253-.47299-.31568-.9059-.50677-1.35776-.08129-.17528-.18055-.34733-.30406-.5047-.03696-.15517-.0623-.31563-.08024-.46126-.0623-.1669-.13619-.30313-.19849-.45082,.1552-.20698,.19849-.40868,.19849-.66837-.06863-.22593-.68627-.6292-.87313-.86041-.03063-.09292-.08658-.15414-.15416-.23766-.03694,.04549-.08023,.06766-.10557,.11406-.09925,.45714-.13619,.88799-.15414,1.34925"/><path class="cls-4" d="M114.52991,33.00684c0,1.40106-1.55308,13.13203-2.43782,13.02532-.89214-.12978-2.5624-11.62426-2.5624-13.02532,0-1.39887,1.12653-2.53701,2.50644-2.53701,1.37359,0,2.49379,1.13814,2.49379,2.53701"/></g></g></svg>