<?xml version="1.0" encoding="UTF-8"?><svg id="_レイヤー_2" xmlns="http://www.w3.org/2000/svg" viewBox="0 0 32.96236 32.96236"><defs><style>.cls-1{fill:#fff;}.cls-2{fill:#4d4d4d;}</style></defs><g id="footer"><g><path class="cls-2" d="M32.96236,16.48118C32.96236,7.37887,25.58348,0,16.48118,0S0,7.37887,0,16.48118c0,8.22623,6.02693,15.04455,13.90599,16.28089v-11.51679h-4.18467v-4.76409h4.18467v-3.63101c0-4.1306,2.46054-6.41221,6.22516-6.41221,1.80322,0,3.6893,.3219,3.6893,.3219v4.05591h-2.07827c-2.04734,0-2.68582,1.27042-2.68582,2.57381v3.0916h4.57095l-.73071,4.76409h-3.84024v11.51679c7.87906-1.23633,13.90599-8.05465,13.90599-16.28089Z"/><path class="cls-1" d="M22.8966,21.24527l.73071-4.76409h-4.57095v-3.0916c0-1.30338,.63849-2.57381,2.68582-2.57381h2.07827V6.75986s-1.88608-.3219-3.6893-.3219c-3.76462,0-6.22516,2.28161-6.22516,6.41221v3.63101h-4.18467v4.76409h4.18467v11.51679c.8391,.13167,1.69911,.20029,2.57518,.20029s1.73609-.06863,2.57518-.20029v-11.51679h3.84024Z"/></g></g></svg>