<?xml version="1.0" encoding="UTF-8"?><svg id="_レイヤー_2" xmlns="http://www.w3.org/2000/svg" viewBox="0 0 32.96236 32.96236"><defs><style>.cls-1{fill:#fff;}.cls-2{fill:#4d4d4d;}</style></defs><g id="footer"><g><circle class="cls-2" cx="16.48118" cy="16.48118" r="16.48118"/><path class="cls-1" d="M16.4809,11.36449c-2.82534,0-5.11621,2.29128-5.11621,5.11662,0,2.8259,2.29086,5.11621,5.11621,5.11621,2.8259,0,5.11717-2.29032,5.11717-5.11621,0-2.82534-2.29128-5.11662-5.11717-5.11662Zm0,8.43793c-1.83395,0-3.3213-1.48694-3.3213-3.32131s1.48735-3.3213,3.3213-3.3213c1.83437,0,3.32172,1.48694,3.32172,3.3213s-1.48735,3.32131-3.32172,3.32131Zm6.51458-8.63983c0,.65978-.53544,1.19522-1.19564,1.19522s-1.19563-.53544-1.19563-1.19522c0-.66006,.53544-1.19564,1.19563-1.19564s1.19564,.53559,1.19564,1.19564Zm2.9263-1.20788c-.25473-.65551-.59542-1.21089-1.14901-1.76491-.5536-.5536-1.10954-.89484-1.76492-1.14901-.63392-.24661-1.35793-.4151-2.41836-.4631-1.0629-.0491-1.40222-.05997-4.10859-.05997-2.70541,0-3.04471,.01087-4.10763,.05997-1.06043,.048-1.78485,.21648-2.41836,.4631-.65537,.25417-1.21131,.59541-1.76491,1.14901-.55401,.55401-.89483,1.10939-1.14942,1.76491-.24661,.63392-.41455,1.35794-.46324,2.41878-.04841,1.06291-.05983,1.40181-.05983,4.10763s.01142,3.04528,.05983,4.10859c.04869,1.06002,.21663,1.78444,.46324,2.41795,.25459,.65538,.59541,1.21131,1.14942,1.76492,.55359,.554,1.10954,.89428,1.76491,1.14942,.63351,.24606,1.35794,.41454,2.41836,.4631,1.06291,.04856,1.40222,.05955,4.10763,.05955,2.70637,0,3.04569-.011,4.10859-.05955,1.06044-.04856,1.78444-.21704,2.41836-.4631,.65538-.25514,1.21131-.59542,1.76492-1.14942,.55359-.5536,.89428-1.10954,1.14901-1.76492,.24647-.63351,.41495-1.35793,.46309-2.41795,.04856-1.06331,.05997-1.40277,.05997-4.10859s-.01142-3.04471-.05997-4.10763c-.04814-1.06084-.21662-1.78485-.46309-2.41878Zm-1.33043,10.55261c-.04415,.97144-.20603,1.49891-.34261,1.8506-.18087,.46502-.39695,.79677-.74547,1.14571-.3488,.34784-.68055,.56446-1.14612,.74533-.35072,.13616-.8786,.29846-1.84949,.34275-1.05094,.04758-1.36564,.05804-4.02676,.05804-2.66016,0-2.97484-.01046-4.02579-.05804-.97145-.04429-1.49878-.20659-1.85006-.34275-.46543-.18087-.79718-.39749-1.14611-.74533-.34839-.34894-.56446-.68069-.74533-1.14571-.13575-.35169-.29901-.87916-.34275-1.8506-.04759-1.05039-.05804-1.36549-.05804-4.02621,0-2.66015,.01045-2.97526,.05804-4.0262,.04374-.97103,.207-1.49878,.34275-1.84964,.18087-.46599,.39694-.79718,.74533-1.14612,.34894-.34894,.68068-.56446,1.14611-.74533,.35128-.13657,.8786-.29846,1.85006-.34275,1.05094-.048,1.36563-.05804,4.02579-.05804,2.66071,0,2.97582,.01004,4.02676,.05804,.97089,.04429,1.49877,.20618,1.84949,.34275,.46557,.18087,.79732,.39639,1.14612,.74533,.34853,.34894,.56461,.68014,.74547,1.14612,.13657,.35086,.29846,.8786,.34261,1.84964,.04814,1.05094,.0586,1.36605,.0586,4.0262,0,2.66071-.01045,2.97582-.0586,4.02621Z"/></g></g></svg>