<?xml version="1.0" encoding="UTF-8"?><svg id="_レイヤー_2" xmlns="http://www.w3.org/2000/svg" viewBox="0 0 150.55954 45.27952"><defs><style>.cls-1{fill:#c67216;}.cls-2{fill:#b60005;fill-rule:evenodd;}.cls-3{fill:#a5640a;}.cls-4{fill:#f08300;}</style></defs><g id="header"><g><g><path class="cls-3" d="M13.5469,4.36826v5.06245c0,.75658-.01582,1.24552-.02847,1.45616-.02783,.22586-.12904,.4162-.31122,.59465-.18597,.17328-.44026,.29034-.7439,.35929-.31502,.06509-.78501,.10115-1.41125,.10115h-1.41948v-1.33022c.16573,.01197,.29161,.01197,.37195,.01197,.1942,0,.35234-.02842,.46873-.09737,.12209-.07089,.18661-.15752,.20685-.25621,.01202-.09297,.02025-.2891,.02025-.57627V4.36826h2.84654Z"/><path class="cls-3" d="M21.11704,4.36826v5.07511c0,.57179-.02467,.96591-.07718,1.20251-.05187,.23088-.21824,.47504-.47695,.72175-.26694,.24293-.61865,.42887-1.05132,.55033-.43267,.12965-.95074,.19358-1.54472,.19358-.64332,0-1.22148-.07027-1.71868-.22455-.49719-.14872-.86914-.34732-1.12027-.5877-.2467-.23906-.39219-.4877-.43267-.75843-.04808-.26887-.07275-.82677-.07275-1.68828V4.36826h2.84275v5.68173c0,.32763,.02846,.54531,.08477,.63256,.04934,.09112,.15434,.13976,.30363,.13976,.18218,0,.2992-.05058,.35171-.15428,.04049-.09683,.06895-.33968,.06895-.71357V4.36826h2.84275Z"/><path class="cls-3" d="M30.99144,4.36826v7.57371h-2.49104l-.00822-5.10669-.98617,5.10669h-1.73069l-1.03931-5.01179-.00822,5.01179h-2.49483V4.36826h3.66382c.08856,.45674,.21001,.99062,.33905,1.60736l.40105,1.93059,.6509-3.53794h3.70367Z"/><path class="cls-3" d="M32.14771,4.36803h2.83515c.89761,0,1.57699,.05251,2.0337,.14803,.46113,.09482,.8413,.29667,1.11584,.58384,.28339,.30362,.42887,.77866,.42887,1.43593,0,.44083-.09678,.7477-.2992,.92985-.20179,.17204-.59841,.303-1.18859,.39597,.66293,.10942,1.10762,.2752,1.3423,.50987,.23911,.23845,.34791,.60662,.34791,1.09625v.70337c0,.50732-.08477,.88113-.2467,1.12784-.17775,.24864-.4409,.41628-.80905,.50546-.36752,.09104-1.12406,.13722-2.26838,.13722h-3.29186V4.36803Zm2.84718,1.28976v1.71492c.11765-.01205,.21823-.01205,.27896-.01205,.27896,0,.45292-.04811,.53009-.14741,.08033-.09552,.12082-.36624,.12082-.82105,0-.24038-.03226-.41056-.1012-.50794-.06009-.09297-.13727-.15559-.24228-.18532-.09678-.02093-.2992-.03228-.58638-.04116m0,2.8775v2.1166c.39219-.00826,.65533-.05058,.76034-.12903,.11323-.081,.16952-.27142,.16952-.5782v-.69959c0-.32771-.04807-.5301-.14928-.59272-.09742-.06641-.35993-.10942-.78058-.11706"/><path class="cls-3" d="M46.2852,8.80841c0,.76854-.02467,1.29802-.07717,1.61747-.05694,.32385-.21824,.60592-.4934,.86908-.26695,.26316-.6313,.46562-1.09561,.60284-.46494,.14934-1.00704,.21381-1.62569,.21381-.58639,0-1.11648-.06448-1.57319-.20239-.47316-.13096-.84891-.32702-1.12787-.59589-.28276-.26509-.45671-.55226-.50542-.86344-.05694-.31759-.08097-.86159-.08097-1.64149v-1.3025c0-.76221,.02403-1.30436,.07654-1.62126,.05314-.3118,.21824-.60284,.48138-.86344,.27453-.26887,.64268-.46686,1.10762-.60855,.46937-.14169,1.00325-.2081,1.6219-.2081,.59018,0,1.11205,.05629,1.57319,.19992,.46873,.13343,.8489,.32385,1.13229,.59457,.27897,.26694,.44469,.55797,.501,.86537,.06072,.31566,.08539,.86344,.08539,1.64149v1.3025Zm-2.84717-2.49111c0-.34979-.03227-.58253-.08097-.68314-.06452-.08919-.17775-.1461-.34791-.1461-.14928,0-.26251,.04486-.33526,.12332-.08097,.07274-.11702,.31759-.11702,.70592v3.53794c0,.44091,.02403,.70978,.07274,.81287,.04808,.09745,.16953,.15374,.35551,.15374,.19419,0,.31565-.06077,.37195-.17775,.05314-.11768,.08097-.39597,.08097-.84514v-3.48165Z"/><path class="cls-3" d="M55.80365,6.66139h-2.63654v-.5623c0-.26316-.03226-.42887-.10437-.5016-.06452-.07282-.17838-.10949-.3359-.10949-.17016,0-.30363,.05699-.39281,.14169-.08856,.0993-.13727,.24864-.13727,.44469,0,.24671,.05251,.43651,.15371,.55983,.09678,.12401,.35993,.28153,.80526,.46562,1.26134,.5294,2.05773,.9646,2.3854,1.29169,.32703,.33968,.4934,.87734,.4934,1.62373,0,.54214-.09299,.93433-.27516,1.19309-.17775,.26061-.53388,.47056-1.06334,.64453-.51807,.17204-1.12027,.25876-1.81926,.25876-.76097,0-1.40745-.10061-1.94576-.2986-.53768-.19675-.89318-.44971-1.06334-.76036-.15751-.30802-.2467-.74831-.2467-1.32266v-.48516h2.63716v.91024c0,.28084,.03606,.46238,.1164,.54971,.07274,.07212,.20622,.1176,.39282,.1176,.19419,0,.33147-.05691,.42444-.15428,.08856-.10316,.14169-.25876,.14169-.45674,0-.45103-.09362-.7338-.26315-.87927-.18154-.13158-.62308-.36053-1.33028-.68569-.69962-.32516-1.17657-.56237-1.41567-.70723-.21824-.14988-.4118-.35041-.5573-.6104-.15054-.26316-.23088-.59272-.23088-.99502,0-.58701,.10944-1.00321,.32324-1.27401,.21064-.26879,.55855-.48137,1.0393-.63063,.47316-.14996,1.05132-.22455,1.72691-.22455,.74389,0,1.37076,.07845,1.89706,.24918,.51681,.16517,.86093,.37134,1.02665,.62623,.16953,.25057,.2543,.67882,.2543,1.27779v.30362Z"/><polygon class="cls-3" points="62.65401 4.36826 62.65401 5.8808 60.95556 5.8808 60.95556 11.94197 58.11662 11.94197 58.11662 5.8808 56.44349 5.8808 56.44349 4.36826 62.65401 4.36826"/><polygon class="cls-3" points="63.31302 4.36826 68.05598 4.36826 68.05598 5.8808 66.16841 5.8808 66.16841 7.31603 67.93896 7.31603 67.93896 8.74942 66.16841 8.74942 66.16841 10.43585 68.24196 10.43585 68.24196 11.94197 63.31302 11.94197 63.31302 4.36826"/><path class="cls-3" d="M73.96781,4.36857l1.62632,7.57309h-2.89588l-.15308-1.36443h-1.04373l-.15308,1.36443h-2.94016l1.44794-7.57309h4.11167Zm-1.5074,4.87643c-.13727-.87356-.27897-1.93684-.43711-3.20267-.28718,1.45748-.46494,2.51891-.53767,3.20267h.97478Z"/><polygon class="cls-3" points="82.86458 4.36826 81.24647 7.78922 83.0303 11.94197 80.099 11.94197 78.93382 8.69506 78.93382 11.94197 76.09171 11.94197 76.09171 4.36826 78.93382 4.36826 78.93382 7.31225 80.20338 4.36826 82.86458 4.36826"/><path class="cls-1" d="M13.5469,4.36826v5.06245c0,.75658-.01582,1.24552-.02847,1.45616-.02783,.22586-.12904,.4162-.31122,.59465-.18597,.17328-.44026,.29034-.7439,.35929-.31502,.06509-.78501,.10115-1.41125,.10115h-1.41948v-1.33022c.16573,.01197,.29161,.01197,.37195,.01197,.1942,0,.35234-.02842,.46873-.09737,.12209-.07089,.18661-.15752,.20685-.25621,.01202-.09297,.02025-.2891,.02025-.57627V4.36826h2.84654Z"/><path class="cls-1" d="M21.11704,4.36826v5.07511c0,.57179-.02467,.96591-.07718,1.20251-.05187,.23088-.21824,.47504-.47695,.72175-.26694,.24293-.61865,.42887-1.05132,.55033-.43267,.12965-.95074,.19358-1.54472,.19358-.64332,0-1.22148-.07027-1.71868-.22455-.49719-.14872-.86914-.34732-1.12027-.5877-.2467-.23906-.39219-.4877-.43267-.75843-.04808-.26887-.07275-.82677-.07275-1.68828V4.36826h2.84275v5.68173c0,.32763,.02846,.54531,.08477,.63256,.04934,.09112,.15434,.13976,.30363,.13976,.18218,0,.2992-.05058,.35171-.15428,.04049-.09683,.06895-.33968,.06895-.71357V4.36826h2.84275Z"/><path class="cls-1" d="M30.99144,4.36826v7.57371h-2.49104l-.00822-5.10669-.98617,5.10669h-1.73069l-1.03931-5.01179-.00822,5.01179h-2.49483V4.36826h3.66382c.08856,.45674,.21001,.99062,.33905,1.60736l.40105,1.93059,.6509-3.53794h3.70367Z"/><path class="cls-1" d="M32.14771,4.36803h2.83515c.89761,0,1.57699,.05251,2.0337,.14803,.46113,.09482,.8413,.29667,1.11584,.58384,.28339,.30362,.42887,.77866,.42887,1.43593,0,.44083-.09678,.7477-.2992,.92985-.20179,.17204-.59841,.303-1.18859,.39597,.66293,.10942,1.10762,.2752,1.3423,.50987,.23911,.23845,.34791,.60662,.34791,1.09625v.70337c0,.50732-.08477,.88113-.2467,1.12784-.17775,.24864-.4409,.41628-.80905,.50546-.36752,.09104-1.12406,.13722-2.26838,.13722h-3.29186V4.36803Zm2.84718,1.28976v1.71492c.11765-.01205,.21823-.01205,.27896-.01205,.27896,0,.45292-.04811,.53009-.14741,.08033-.09552,.12082-.36624,.12082-.82105,0-.24038-.03226-.41056-.1012-.50794-.06009-.09297-.13727-.15559-.24228-.18532-.09678-.02093-.2992-.03228-.58638-.04116m0,2.8775v2.1166c.39219-.00826,.65533-.05058,.76034-.12903,.11323-.081,.16952-.27142,.16952-.5782v-.69959c0-.32771-.04807-.5301-.14928-.59272-.09742-.06641-.35993-.10942-.78058-.11706"/><path class="cls-1" d="M46.2852,8.80841c0,.76854-.02467,1.29802-.07717,1.61747-.05694,.32385-.21824,.60592-.4934,.86908-.26695,.26316-.6313,.46562-1.09561,.60284-.46494,.14934-1.00704,.21381-1.62569,.21381-.58639,0-1.11648-.06448-1.57319-.20239-.47316-.13096-.84891-.32702-1.12787-.59589-.28276-.26509-.45671-.55226-.50542-.86344-.05694-.31759-.08097-.86159-.08097-1.64149v-1.3025c0-.76221,.02403-1.30436,.07654-1.62126,.05314-.3118,.21824-.60284,.48138-.86344,.27453-.26887,.64268-.46686,1.10762-.60855,.46937-.14169,1.00325-.2081,1.6219-.2081,.59018,0,1.11205,.05629,1.57319,.19992,.46873,.13343,.8489,.32385,1.13229,.59457,.27897,.26694,.44469,.55797,.501,.86537,.06072,.31566,.08539,.86344,.08539,1.64149v1.3025Zm-2.84717-2.49111c0-.34979-.03227-.58253-.08097-.68314-.06452-.08919-.17775-.1461-.34791-.1461-.14928,0-.26251,.04486-.33526,.12332-.08097,.07274-.11702,.31759-.11702,.70592v3.53794c0,.44091,.02403,.70978,.07274,.81287,.04808,.09745,.16953,.15374,.35551,.15374,.19419,0,.31565-.06077,.37195-.17775,.05314-.11768,.08097-.39597,.08097-.84514v-3.48165Z"/><path class="cls-1" d="M55.80365,6.66139h-2.63654v-.5623c0-.26316-.03226-.42887-.10437-.5016-.06452-.07282-.17838-.10949-.3359-.10949-.17016,0-.30363,.05699-.39281,.14169-.08856,.0993-.13727,.24864-.13727,.44469,0,.24671,.05251,.43651,.15371,.55983,.09678,.12401,.35993,.28153,.80526,.46562,1.26134,.5294,2.05773,.9646,2.3854,1.29169,.32703,.33968,.4934,.87734,.4934,1.62373,0,.54214-.09299,.93433-.27516,1.19309-.17775,.26061-.53388,.47056-1.06334,.64453-.51807,.17204-1.12027,.25876-1.81926,.25876-.76097,0-1.40745-.10061-1.94576-.2986-.53768-.19675-.89318-.44971-1.06334-.76036-.15751-.30802-.2467-.74831-.2467-1.32266v-.48516h2.63716v.91024c0,.28084,.03606,.46238,.1164,.54971,.07274,.07212,.20622,.1176,.39282,.1176,.19419,0,.33147-.05691,.42444-.15428,.08856-.10316,.14169-.25876,.14169-.45674,0-.45103-.09362-.7338-.26315-.87927-.18154-.13158-.62308-.36053-1.33028-.68569-.69962-.32516-1.17657-.56237-1.41567-.70723-.21824-.14988-.4118-.35041-.5573-.6104-.15054-.26316-.23088-.59272-.23088-.99502,0-.58701,.10944-1.00321,.32324-1.27401,.21064-.26879,.55855-.48137,1.0393-.63063,.47316-.14996,1.05132-.22455,1.72691-.22455,.74389,0,1.37076,.07845,1.89706,.24918,.51681,.16517,.86093,.37134,1.02665,.62623,.16953,.25057,.2543,.67882,.2543,1.27779v.30362Z"/><polygon class="cls-1" points="62.65401 4.36826 62.65401 5.8808 60.95556 5.8808 60.95556 11.94197 58.11662 11.94197 58.11662 5.8808 56.44349 5.8808 56.44349 4.36826 62.65401 4.36826"/><polygon class="cls-1" points="63.31302 4.36826 68.05598 4.36826 68.05598 5.8808 66.16841 5.8808 66.16841 7.31603 67.93896 7.31603 67.93896 8.74942 66.16841 8.74942 66.16841 10.43585 68.24196 10.43585 68.24196 11.94197 63.31302 11.94197 63.31302 4.36826"/><path class="cls-1" d="M73.96781,4.36857l1.62632,7.57309h-2.89588l-.15308-1.36443h-1.04373l-.15308,1.36443h-2.94016l1.44794-7.57309h4.11167Zm-1.5074,4.87643c-.13727-.87356-.27897-1.93684-.43711-3.20267-.28718,1.45748-.46494,2.51891-.53767,3.20267h.97478Z"/><polygon class="cls-1" points="82.86458 4.36826 81.24647 7.78922 83.0303 11.94197 80.099 11.94197 78.93382 8.69506 78.93382 11.94197 76.09171 11.94197 76.09171 4.36826 78.93382 4.36826 78.93382 7.31225 80.20338 4.36826 82.86458 4.36826"/><path class="cls-4" d="M57.11534,18.59293v3.57779c.44406,.25181,.73756,.76353,.73756,1.36065v6.8254l-5.83604-11.77835-.01834,.01452h-7.36305v3.57779c.44849,.25181,.74895,.76353,.74895,1.36065v16.51501c0,.59461-.30046,1.11394-.74895,1.3657v3.57841h7.36684v-3.57841c-.44153-.25177-.74136-.77109-.74136-1.3657v-6.47552l5.67284,11.45253,.18155-.09614v.06324h6.64003c-.01518-.10058-.02214-.19671-.02214-.30806V23.92803c0-.69333,.29983-1.3069,.74453-1.64403v-3.69107h-7.36241Z"/><path class="cls-4" d="M80.7351,27.90612c-1.3752-.62685-2.20576-1.1639-2.50243-1.60481-.31122-.44971-.46683-1.10127-.46683-1.98055,0-.67874,.13663-1.18606,.41116-1.52319,.27454-.33396,.67874-.50099,1.21262-.50099,.48202,0,.83752,.12648,1.045,.37512,.20748,.24794,.31122,.83055,.31122,1.74202v1.95592h8.22017v-1.03487c0-.16131,0-.3169-.00379-.46114v-4.77713h-.03732C98.0117,.56168,76.87646,.00054,76.87646,.00054c16.24489,2.21652,7.11003,13.9063,3.46582,17.88832-.40421-.019-.81981-.03351-1.24173-.03351-2.10264,0-3.8928,.25937-5.37995,.78939-1.48653,.52693-2.55746,1.25378-3.22545,2.18239-.66356,.93618-.98996,2.41134-.98996,4.42479,0,1.40111,.23405,2.55242,.70088,3.45509,.46303,.89379,1.05701,1.60164,1.76864,2.10958,.7148,.50917,2.16844,1.32335,4.37419,2.44864,2.195,1.11077,3.57083,1.90781,4.12685,2.38602,.54527,.48207,.8198,1.4935,.8198,3.04707,0,.71225-.14865,1.24613-.43457,1.60546-.27769,.3523-.7148,.53766-1.30498,.53766-.57816,0-.98996-.14864-1.21958-.42636-.23025-.28211-.34032-.91595-.34032-1.9053v-3.21591h-8.22018v1.7326c0,1.97229,.25619,3.49235,.7711,4.55633,.52249,1.08104,1.60924,1.95777,3.2849,2.65296,1.67566,.69519,3.69291,1.04375,6.05491,1.04375,2.15767,0,4.04398-.29667,5.66841-.9014,1.62759-.60033,2.72066-1.34864,3.28871-2.23548,.56298-.89317,.8413-2.27282,.8413-4.14835,0-2.58026-.50478-4.46212-1.52385-5.61528-1.02349-1.16266-3.49998-2.65612-7.4263-4.47289"/><path class="cls-4" d="M22.11656,22.07837v-3.57771H12.63632v3.57771c.57121,.24802,.95644,.77047,.95644,1.36003v5.82466h-3.05845v-5.82466c0-.58955,.38903-1.11201,.95328-1.36003v-3.57771h-.05567C8.36208,15.2973-2.86404,2.34301,14.32716,0,14.32716,0-6.40134,.54909,2.00734,19.51969v2.55867c.57057,.24802,.96023,.77047,.96023,1.36003v16.51752c0,.5965-.38966,1.11205-.96023,1.36381v3.57968H11.48758v-3.57968c-.56425-.25177-.95328-.76731-.95328-1.36381v-5.83219h3.05845v5.83219c0,.5965-.38523,1.11205-.95644,1.36381v3.57968h9.48025v-3.57968c-.56362-.25177-.95265-.76731-.95265-1.36381V23.4384c0-.58955,.38903-1.11201,.95265-1.36003"/><path class="cls-4" d="M42.58185,39.39907l-2.98824-20.89486h-12.42736l-2.98823,20.89486c-.09299,.68001-.40801,1.28667-.87167,1.77944v3.72072h9.34993v-3.59107c-.39978-.26628-.67052-.73943-.67431-1.28598h2.84021c-.01517,.55666-.30046,1.0456-.71543,1.30686v3.57018h9.34994v-3.72072c-.46746-.49276-.7749-1.09942-.87483-1.77944"/><path class="cls-2" d="M30.22844,31.92157c-.01139,.19297-.02974,.38524-.04428,.57442-.02657,.08162-.05187,.15366-.05187,.24794,0,.25428,.03289,.50292,.08477,.76036,.07401,.14108,.09299,.30802,.17774,.44153l.10059,.18911,.09615,.20053c-.00696,.05506-.03289,.06579-.07781,.09235-.07021,.00888-.14106,.00888-.21128,.01838-.04112,0-.07781-.0095-.11829-.01838-.05187-.0373-.11513-.06702-.1708-.10563-.01455-.06834-.02973-.12779-.04048-.1986h-.01139c-.01138-.0759-.02213-.14486-.05566-.21127-.01834-.08162-.00379-.13351,.01455-.20748,.01899-.28022-.00695-.54469-.04048-.8236-.04808-.18154-.06705-.35172-.11512-.52253-.04428-.06448-.05883-.11513-.05883-.19289,.04427-.12146,.02214-.24988,.02214-.37767-.01139-.29289-.11134-.53071-.14486-.81225-.04049-.08154-.07401-.1644-.09615-.25551-.02973-.24478-.08539-.48964-.1303-.7382-.03289-.24478-.12904-.47442-.20305-.7192,.03289-.08857,.06262-.17459,.11449-.25937,.07021-.14231,.12968-.25559,.26315-.34284,.14802-.07089,.25176-.13351,.33716-.26694,.03732-.11891,.14485-.20246,.24163-.2613,.18534-.02085,.33337-.07459,.49657-.16192,.22582,.04872,.44849,.09868,.67115,.16192,.13283,.01645,.25934,0,.39282,.01645,0-.00564,.00759-.01135,.01517-.01645,.04049,.03676,.08477,.07784,.12209,.12208,.37827,.07027,.70025,.26694,1.08611,.26694,.04428-.01452,.0892-.02587,.12968-.03537,.10753,.01328,.17838-.00888,.27833-.05506,.4042-.0095,.61865-.26184,.94126,.0759l.05629,.06077,.64838,.42122c.18534-.01135,.36309-.03158,.54084-.08787,.07843-.01205,.13347,.01328,.2119,.02463,.04112-.02463,.0854-.04425,.12968-.06448-.07085-.07977-.12272-.16895-.14485-.27142,0-.28146,.31565-.44655,.53388-.5389,.03352-.00571,.05566-.01143,.08224-.01143,.00696,.01143,.01771,.02973,.0253,.04046-.01834,.06332-.03669,.10378-.08477,.14872-.10753,.06324-.18597,.11513-.25239,.23528,0,.04679,.02594,.08919,.03353,.14293,.06262,.00764,.11133,.01645,.17395,.00764,.11134,.05946,.15941-.07405,.27074-.04679,.05187,.0278,.09994,.03915,.1556,.04679,.05567-.02471,.10374-.04679,.16321-.04679,.09678-.10378,.18155-.21636,.21886-.35427v-.27767c.0076-.01143,.01456-.019,.02594-.02595h.0076c.04427,.04108,.06642,.04425,.08476,.09992,.05187,.23343,.02974,.4118-.04807,.65094-.01456,.0759-.04428,.1322-.07022,.20053-.01834,.0088-.02277,.03537-.03352,.05313,.10374,.12648,.21128,.27072,.3226,.37126,.01835,.04432,.04808,.07027,.07022,.09621,.01138,.05567,.03352,.09482,.04491,.14803h-.02278v.0183c-.00695,.00571-.01075,.01521-.01075,.01521-.05187,.09297-.07085,.15938-.06325,.27072l-.0076,.13729,.09678,.37443,.23721,.5301c.20369,.0759,.17838,.27451,.24481,.45543v.1l-.26315,.08602c-.09678,.09614-.26315,.05567-.39662,.10687l-.14107,.01521-.34095-.21698c-.11892-.03861-.18597-.0278-.29667,.02023h-.167c-.10374-.01135-.19609,0-.29667-.02023l-.19293-.09112-.24101,.42701-.11133,.25937c-.03669,.09675-.05123,.1708-.12904,.24478-.0854,.02595-.167,.05189-.25239,.05189l-.31502,.1183-.46367,.31119c-.03352,.09297-.03352,.17837-.03352,.27706l-.01139,.06077-.00696,.25806c.01139,.04239,.01139,.07529,0,.1183-.02594,.09675-.04428,.19289-.07022,.29852,0,.36122,.0854,.65032,.22583,.98939,.01518,.04425,.04491,.06517,.07464,.10432,.05187,.03737,.07717,.07405,.10374,.13667,.07781,.07652,.14422,.15814,.14422,.27265-.02973,.02463-.06325,.05436-.10374,.07274-.18155,.02401-.33336,.00757-.51933-.04811,.07464,.09235,.0892,.21698,.15182,.31505,.02277,.09992,.04491,.17397,0,.27011-.04428,.04301-.07718,.05189-.13664,.0373-.01518,.02595-.01518,.03544-.0487,.03544-.12905-.02973-.24038-.05065-.3593-.1322-.03669-.08285-.06642-.15567-.074-.23852,.05187-.10563,0-.25049-.01139-.35613,0-.39852-.02214-.76353-.11829-1.14745-.05947-.20053-.12968-.35234-.12968-.56361-.05946-.24478-.14107-.49087-.21507-.7338l-.16321-.59334-.09994-.23026-.55602-.01012c-.13031,.01012-.26758,.01012-.39346,.02154l-.25555-.02154c-.05187-.02085-.10754-.01521-.15941-.01521-.01139,.10378-.03353,.18918-.03353,.28153l.09995,.83248c.08539,.29474,.22266,.53952,.3264,.82105,.10753,.15938,.31882,.23721,.38207,.42315,.00696,.03668,.01835,.081,.01835,.12718-.01835,.01707-.03353,.02973-.05567,.03923-.01075,0-.02213-.0095-.03669-.0095-.05629,.04618-.10437,.0373-.17459,.0373-.11891,0-.22962-.02216-.35171-.05946-.06704-.09807-.02656-.22015-.10816-.30238-.05566,.01143-.07781,.02849-.1107,.07089-.01139-.00571-.01898-.01459-.02973-.02595,.04048-.14108,.10753-.24856,.09615-.39157-.08539-.28339-.18913-.54276-.30363-.81348-.0487-.10502-.10817-.2081-.18218-.30238-.02214-.09297-.03732-.18911-.04808-.27636-.03732-.1-.0816-.18162-.11892-.27011,.09299-.12401,.11892-.24486,.11892-.40045-.04112-.13536-.41117-.37698-.52313-.5155-.01835-.05567-.05187-.09235-.09236-.14239-.02213,.02726-.04807,.04054-.06325,.06834-.05947,.27389-.0816,.53203-.09235,.80839"/><path class="cls-4" d="M68.61929,19.77567c0,.83943-.93051,7.86791-1.46059,7.80397-.53452-.07776-1.53524-6.96454-1.53524-7.80397,0-.83812,.67495-1.52002,1.5017-1.52002,.82297,0,1.49413,.68191,1.49413,1.52002"/></g><g><path class="cls-1" d="M98.68991,24.52329c.63965,0,1.24219,.08765,1.80762,.26245,.56445,.17505,1.05957,.43274,1.48486,.77258,.4248,.33997,.76221,.76001,1.0127,1.25989,.24951,.50024,.375,1.08008,.375,1.74011,0,.65991-.12549,1.23999-.375,1.73999-.25049,.50012-.58789,.92017-1.0127,1.26001-.42529,.33997-.92041,.59009-1.48486,.75-.56543,.16003-1.16797,.23999-1.80762,.23999-.64014,0-1.24268-.07996-1.80762-.23999-.56494-.15991-1.06006-.41003-1.48486-.75-.42529-.33984-.7627-.75989-1.0127-1.26001-.25-.5-.375-1.08008-.375-1.73999,0-.66003,.125-1.23987,.375-1.74011,.25-.49988,.5874-.91992,1.0127-1.25989,.4248-.33984,.91992-.59753,1.48486-.77258,.56494-.1748,1.16748-.26245,1.80762-.26245Zm0,1.82996c-.33008,0-.64258,.05017-.9375,.15002-.29492,.1001-.55518,.24255-.78027,.42749-.22461,.18518-.40479,.41504-.53955,.69006-.13525,.27515-.20264,.58752-.20264,.9375,0,.3501,.06738,.66248,.20264,.9375,.13477,.27515,.31494,.505,.53955,.68994,.2251,.18518,.48535,.32764,.78027,.42749,.29492,.1001,.60742,.15002,.9375,.15002s.64258-.04993,.9375-.15002c.29492-.09985,.55518-.24231,.77979-.42749,.2251-.18494,.40527-.41479,.54004-.68994,.13525-.27502,.20264-.5874,.20264-.9375,0-.34998-.06738-.66235-.20264-.9375-.13477-.27502-.31494-.50488-.54004-.69006-.22461-.18494-.48486-.32739-.77979-.42749-.29492-.09985-.60742-.15002-.9375-.15002Z"/><path class="cls-1" d="M105.36422,25.06333c0-.06995-.02246-.12756-.06738-.17261-.04492-.04492-.1626-.07727-.35254-.09741v-.18005h3.61523v.18005c-.17041,.01001-.28271,.03259-.3374,.0675-.05518,.03516-.08252,.07751-.08252,.12744,0,.02014,.06494,.11023,.19482,.27002,.12988,.16003,.2998,.35999,.51025,.59998,.20996,.23999,.44727,.50769,.7124,.80249,.26465,.29517,.53223,.59021,.80225,.88501,.27002,.29504,.53027,.5752,.78027,.83997,.24951,.26514,.46484,.49268,.64502,.6825v-4.00488c0-.16992-.10498-.26001-.31494-.27002v-.18005h2.74463v.18005c-.18994,.02014-.30713,.05249-.35254,.09741-.04492,.04504-.06738,.10266-.06738,.17261v6.98999c0,.07007,.02246,.12744,.06738,.17249,.04541,.04492,.1626,.07751,.35254,.09741v.18005h-2.8501v-.18005c.14014,0,.23291-.01489,.27783-.04492s.06738-.06982,.06738-.12c0-.03003-.01514-.0675-.04492-.11255-.03027-.04492-.09521-.12231-.19482-.23242-.1001-.10999-.24756-.26746-.44287-.47253-.19482-.20483-.45264-.47998-.77246-.82507-.31982-.34497-.71484-.77478-1.18506-1.28992-.47021-.51501-1.03467-1.14233-1.69482-1.88257v4.71008c0,.07007,.02246,.12744,.06738,.17249,.04492,.04492,.1626,.07751,.35254,.09741v.18005h-2.8501v-.18005c.18994-.0199,.30762-.05249,.35254-.09741,.04492-.04504,.06738-.10242,.06738-.17249v-6.98999Z"/><path class="cls-1" d="M124.06979,30.67331c.08008,0,.14014-.02747,.18018-.08252,.03955-.05481,.06982-.16736,.08984-.33752h.18018v2.59497h-.18018c-.02002-.16003-.05029-.25757-.08984-.29248-.04004-.03516-.1001-.05249-.18018-.05249h-7.83008v-.18005c.18994-.0199,.30762-.05249,.35254-.09741,.04492-.04504,.06738-.10242,.06738-.17249v-6.98999c0-.06995-.02246-.12756-.06738-.17261-.04492-.04492-.1626-.07727-.35254-.09741v-.18005h3.09033v.18005c-.19043,.02014-.30762,.05249-.35254,.09741-.04492,.04504-.06787,.10266-.06787,.17261v5.60999h5.16016Z"/><path class="cls-1" d="M126.03463,32.32321c.18994-.0199,.30762-.05249,.35254-.09741,.04492-.04504,.06738-.10242,.06738-.17249v-6.98999c0-.06995-.02246-.12756-.06738-.17261-.04492-.04492-.1626-.07727-.35254-.09741v-.18005h3.09033v.18005c-.19043,.02014-.30762,.05249-.35254,.09741-.04541,.04504-.06787,.10266-.06787,.17261v6.98999c0,.07007,.02246,.12744,.06787,.17249,.04492,.04492,.16211,.07751,.35254,.09741v.18005h-3.09033v-.18005Z"/><path class="cls-1" d="M131.74899,25.06333c0-.06995-.02246-.12756-.06738-.17261-.04492-.04492-.1626-.07727-.35254-.09741v-.18005h3.61523v.18005c-.17041,.01001-.28271,.03259-.3374,.0675-.05518,.03516-.08252,.07751-.08252,.12744,0,.02014,.06494,.11023,.19482,.27002,.12988,.16003,.2998,.35999,.51025,.59998,.20996,.23999,.44727,.50769,.7124,.80249,.26465,.29517,.53223,.59021,.80225,.88501,.27002,.29504,.53027,.5752,.78027,.83997,.24951,.26514,.46484,.49268,.64502,.6825v-4.00488c0-.16992-.10498-.26001-.31494-.27002v-.18005h2.74463v.18005c-.18994,.02014-.30713,.05249-.35254,.09741-.04492,.04504-.06738,.10266-.06738,.17261v6.98999c0,.07007,.02246,.12744,.06738,.17249,.04541,.04492,.1626,.07751,.35254,.09741v.18005h-2.8501v-.18005c.14014,0,.23291-.01489,.27783-.04492s.06738-.06982,.06738-.12c0-.03003-.01514-.0675-.04492-.11255-.03027-.04492-.09521-.12231-.19482-.23242-.1001-.10999-.24756-.26746-.44287-.47253-.19482-.20483-.45264-.47998-.77246-.82507-.31982-.34497-.71484-.77478-1.18506-1.28992-.47021-.51501-1.03467-1.14233-1.69482-1.88257v4.71008c0,.07007,.02246,.12744,.06738,.17249,.04492,.04492,.1626,.07751,.35254,.09741v.18005h-2.8501v-.18005c.18994-.0199,.30762-.05249,.35254-.09741,.04492-.04504,.06738-.10242,.06738-.17249v-6.98999Z"/><path class="cls-1" d="M148.53463,29.62326c-.02002-.09985-.0625-.18237-.12744-.24744-.06543-.06494-.17236-.09753-.32275-.09753h-2.79004v1.39502h4.81543c.07959,0,.13965-.02747,.17969-.08252,.04004-.05481,.06982-.17749,.09033-.36755h.17969v2.56506h-.17969c-.02051-.13013-.05029-.21008-.09033-.23999-.04004-.03003-.1001-.04504-.17969-.04504h-7.48535v-.18005c.18994-.0199,.30762-.05249,.35254-.09741,.04492-.04504,.06738-.10242,.06738-.17249v-6.98999c0-.06995-.02246-.12756-.06738-.17261-.04492-.04492-.1626-.07727-.35254-.09741v-.18005h7.48535c.07959,0,.13965-.02747,.17969-.08252,.04004-.05481,.06982-.16736,.09033-.33752h.17969v2.61011h-.17969c-.02051-.16992-.05029-.28247-.09033-.33752-.04004-.05481-.1001-.08252-.17969-.08252h-4.81543v1.245h2.79004c.15039,0,.25732-.03235,.32275-.09753,.06494-.06494,.10742-.14734,.12744-.24744h.18018v2.33997h-.18018Z"/><path class="cls-1" d="M95.14987,40.35825c-.02002,.06006-.02979,.16504-.02979,.31506,0,.1001,.09229,.21252,.27734,.33752,.18506,.12512,.4248,.24255,.71973,.35242,.29492,.11023,.63232,.20251,1.0127,.27759,.37988,.07495,.76514,.11243,1.15479,.11243,.75,0,1.30029-.0874,1.65039-.26245,.34961-.17493,.5249-.42749,.5249-.75757,0-.17993-.15283-.3075-.45752-.38245-.30518-.07495-.6875-.13501-1.14746-.18005-.45996-.04492-.95508-.09485-1.48486-.1499-.53027-.05493-1.02539-.15503-1.48535-.30005-.45996-.1449-.84229-.35486-1.14746-.63-.30518-.2749-.45752-.65247-.45752-1.13245,0-.38,.0874-.72498,.2627-1.03503,.1748-.30981,.41992-.57495,.73486-.79504,.31494-.21985,.69775-.39233,1.14746-.51746,.4502-.125,.9502-.1875,1.5-.1875,.51025,0,.98486,.03259,1.42529,.09753,.43994,.06506,.82959,.13757,1.16992,.21741,.33984,.0802,.62451,.15259,.85498,.21753,.22998,.06519,.39502,.09753,.49512,.09753,.09961,0,.17969-.02258,.23975-.0675,.06006-.04504,.11475-.09753,.16504-.15747l.16504,.05994-1.03516,2.08496-.17969-.08997v-.16504c0-.08997-.09766-.18225-.29248-.27747-.19531-.09485-.44287-.17993-.74268-.255-.2998-.07495-.63525-.13733-1.00488-.1875-.37012-.04993-.73047-.07495-1.08008-.07495-.65039,0-1.10498,.07495-1.36523,.22498-.25977,.15002-.38965,.31006-.38965,.47998,0,.17017,.08984,.29773,.27002,.38257,.17969,.08508,.41455,.14758,.70459,.1875,.29004,.04004,.62012,.07263,.99023,.09741,.36963,.02515,.75,.06262,1.14014,.11255,.38965,.05017,.76953,.12,1.13965,.20996,.37012,.09009,.7002,.22266,.99023,.39758,.29004,.17505,.5249,.40491,.70508,.68994,.17969,.28503,.27002,.6427,.27002,1.07251,0,.32996-.06787,.65503-.20264,.97498-.13525,.32019-.36523,.60754-.68994,.86255-.3252,.255-.76025,.45752-1.30518,.60742-.54492,.15002-1.22217,.2251-2.03223,.2251-.63037,0-1.17285-.03003-1.62744-.09009-.45557-.05994-.84277-.13232-1.1626-.21741-.32031-.08484-.57275-.16248-.75781-.23254-.18506-.06982-.32227-.10498-.41211-.10498-.06006,0-.11279,.02014-.15771,.05994-.04492,.04016-.09277,.08508-.14258,.13501l-.17969-.04492,1.10986-2.67004,.1499,.07495Z"/><path class="cls-1" d="M112.93991,42.95334c0,.07007,.02246,.12744,.06738,.17249,.04492,.04492,.1626,.07751,.35254,.09741v.18005h-3.08984v-.18005c.18945-.0199,.30713-.05249,.35205-.09741,.04541-.04504,.06787-.10242,.06787-.17249v-2.77502h-3.90039v2.77502c0,.07007,.02295,.12744,.06787,.17249,.04492,.04492,.16211,.07751,.35254,.09741v.18005h-3.09033v-.18005c.18994-.0199,.30762-.05249,.35254-.09741,.04492-.04504,.06738-.10242,.06738-.17249v-6.98999c0-.06995-.02246-.12756-.06738-.17261-.04492-.04492-.1626-.07727-.35254-.09741v-.18005h3.09033v.18005c-.19043,.02014-.30762,.05249-.35254,.09741-.04492,.04504-.06787,.10266-.06787,.17261v2.38489h3.90039v-2.38489c0-.06995-.02246-.12756-.06787-.17261-.04492-.04492-.1626-.07727-.35205-.09741v-.18005h3.08984v.18005c-.18994,.02014-.30762,.05249-.35254,.09741-.04492,.04504-.06738,.10266-.06738,.17261v6.98999Z"/><path class="cls-1" d="M119.61471,35.42331c.63965,0,1.24219,.08765,1.80762,.26245,.56445,.17505,1.05957,.43274,1.48486,.77258,.4248,.33997,.76221,.76001,1.0127,1.25989,.24951,.50024,.375,1.08008,.375,1.74011,0,.65991-.12549,1.23999-.375,1.73999-.25049,.50012-.58789,.92017-1.0127,1.26001-.42529,.33997-.92041,.59009-1.48486,.75-.56543,.16003-1.16797,.23999-1.80762,.23999-.64014,0-1.24268-.07996-1.80762-.23999-.56494-.15991-1.06006-.41003-1.48486-.75-.42529-.33984-.7627-.75989-1.0127-1.26001-.25-.5-.375-1.08008-.375-1.73999,0-.66003,.125-1.23987,.375-1.74011,.25-.49988,.5874-.91992,1.0127-1.25989,.4248-.33984,.91992-.59753,1.48486-.77258,.56494-.1748,1.16748-.26245,1.80762-.26245Zm0,1.82996c-.33008,0-.64258,.05017-.9375,.15002-.29492,.1001-.55518,.24255-.78027,.42749-.22461,.18518-.40479,.41504-.53955,.69006-.13525,.27515-.20264,.58752-.20264,.9375,0,.3501,.06738,.66248,.20264,.9375,.13477,.27515,.31494,.505,.53955,.68994,.2251,.18518,.48535,.32764,.78027,.42749,.29492,.1001,.60742,.15002,.9375,.15002s.64258-.04993,.9375-.15002c.29492-.09985,.55518-.24231,.77979-.42749,.2251-.18494,.40527-.41479,.54004-.68994,.13525-.27502,.20264-.5874,.20264-.9375,0-.34998-.06738-.66235-.20264-.9375-.13477-.27502-.31494-.50488-.54004-.69006-.22461-.18494-.48486-.32739-.77979-.42749-.29492-.09985-.60742-.15002-.9375-.15002Z"/><path class="cls-1" d="M128.53952,42.95334c0,.07007,.02295,.12744,.06787,.17249,.04492,.04492,.16211,.07751,.35254,.09741v.18005h-3.09033v-.18005c.18994-.0199,.30762-.05249,.35254-.09741,.04492-.04504,.06738-.10242,.06738-.17249v-6.98999c0-.06995-.02246-.12756-.06738-.17261-.04492-.04492-.1626-.07727-.35254-.09741v-.18005h5.37012c.46973,0,.88525,.0675,1.24512,.20251s.66016,.31763,.8999,.54749c.24023,.23022,.41992,.49756,.54004,.80249,.12012,.30518,.18018,.62256,.18018,.95251s-.06006,.64758-.18018,.95251c-.12012,.30518-.2998,.56995-.54004,.79504-.23975,.22498-.54004,.40491-.8999,.53992s-.77539,.20251-1.24512,.20251h-2.7002v2.44507Zm2.28027-4.03503c.41992,0,.72754-.06982,.92236-.20996,.19531-.14001,.29248-.36987,.29248-.69006,0-.28992-.09717-.49988-.29248-.63-.19482-.12988-.50244-.19495-.92236-.19495h-2.28027v1.72498h2.28027Z"/></g></g></g></svg>