<?xml version="1.0" encoding="UTF-8"?><svg id="_レイヤー_2" xmlns="http://www.w3.org/2000/svg" viewBox="0 0 35.13357 30.2312"><defs><style>.cls-1{fill:#f08300;}.cls-2{fill:none;stroke:#f08300;stroke-miterlimit:10;stroke-width:1.05247px;}</style></defs><g id="header"><g><g><path class="cls-2" d="M31.64166,14.8086c1.83337-1.515,2.96567-3.5934,2.96567-5.88771,0-4.63615-4.61858-8.39466-10.3157-8.39466s-10.3157,3.75851-10.3157,8.39466c0,.90967,.18021,1.78462,.50899,2.60499,3.0054,.9279,5.40561,2.89205,6.57086,5.36574,1.01829,.27342,2.10519,.42364,3.23585,.42364,1.48299,0,2.89167-.25682,4.16605-.71516l4.16849,1.74598c.66625,.27923,.9294-.01201,.58466-.6469l-1.56917-2.89059Z"/><path class="cls-1" d="M29.1877,12.55145h-9.16478c-.25989,0-.47065-.21059-.47065-.47062,0-.26006,.21076-.47065,.47065-.47065h9.16478c.26017,0,.47062,.21059,.47062,.47065,0,.26003-.21045,.47062-.47062,.47062Z"/><path class="cls-1" d="M29.1877,9.41788h-9.16478c-.25989,0-.47065-.21062-.47065-.47065s.21076-.47065,.47065-.47065h9.16478c.26017,0,.47062,.21062,.47062,.47065s-.21045,.47065-.47062,.47065Z"/><path class="cls-1" d="M29.1877,6.28442h-9.16478c-.25989,0-.47065-.21073-.47065-.47079,0-.25989,.21076-.47062,.47065-.47062h9.16478c.26017,0,.47062,.21073,.47062,.47062,0,.26006-.21045,.47079-.47062,.47079Z"/></g><path class="cls-1" d="M1.42434,30.21217c.03782,.01201,.08106,.01876,.13078,.01837-.00163,0-.00407,.00066-.0057,.00066-.04753,0-.08834-.0073-.12508-.01903Zm18.07748-13.32976c-1.01397-1.61266-2.64879-2.92378-4.64992-3.72257-1.36925-.54653-2.90815-.85454-4.53619-.85454C4.61858,12.3053,0,16.06378,0,20.69993c0,2.29431,1.13227,4.37288,2.96567,5.88788l-1.56916,2.89042c-.0389,.07147-.06753,.13698-.09133,.19953-.00675,.01837-.01187,.03552-.01754,.05309-.01461,.04446-.02487,.08632-.03135,.12521-.00243,.01474-.00595,.03013-.00703,.04418-.00459,.04905-.00407,.09442,.00487,.13332,.0008,.00365,.00351,.00636,.00432,.0104,.00946,.03405,.02484,.0631,.04484,.08823,.00675,.00838,.01486,.01541,.02241,.02269,.01973,.01837,.04296,.03309,.06944,.04446,.00974,.00432,.01837,.00943,.02919,.01284,.03782,.01201,.08106,.01876,.13078,.01837,.03862-.00055,.08482-.00946,.13022-.01743,.02133-.00393,.03917-.00338,.06186-.00918,.07132-.01743,.14912-.04324,.23369-.07876l4.16876-1.74598c1.27411,.45834,2.68307,.71513,4.16605,.71513,5.6971,0,10.3157-3.75835,10.3157-8.39439,0-1.37517-.40904-2.67172-1.12959-3.81752Zm-4.29008,7.44811H6.04698c-.25992,0-.47065-.21073-.47065-.47065,0-.25978,.21073-.47065,.47065-.47065H15.21174c.25992,0,.47065,.21087,.47065,.47065,0,.25992-.21073,.47065-.47065,.47065Zm0-3.13346H6.04698c-.25992,0-.47065-.21087-.47065-.47076,0-.25978,.21073-.47065,.47065-.47065H15.21174c.25992,0,.47065,.21087,.47065,.47065,0,.25989-.21073,.47076-.47065,.47076Zm0-3.13357H6.04698c-.25992,0-.47065-.21076-.47065-.47065,0-.26006,.21073-.47079,.47065-.47079H15.21174c.25992,0,.47065,.21073,.47065,.47079,0,.25989-.21073,.47065-.47065,.47065Z"/></g></g></svg>