<?xml version="1.0" encoding="UTF-8"?><svg id="_レイヤー_2" xmlns="http://www.w3.org/2000/svg" viewBox="0 0 52.70048 45.34673"><defs><style>.cls-1{fill:#fff;}</style></defs><g id="header"><g><g><path class="cls-1" d="M49.58915,28.46649c-.26001,0-.57568-.06024-.95508-.21936l-5.9729-2.50177c-3.56104,1.21417-7.59814,1.34381-11.28223,.35431l-.35303-.09485-.15601-.33105c-1.65967-3.52222-5.07715-6.30359-9.37573-7.63074l-.35962-.11115-.13989-.34955c-.54419-1.35809-.82031-2.77148-.82031-4.20099C20.17436,6.00293,27.47001,0,36.43779,0c8.96704,0,16.2627,6.00293,16.2627,13.38135,0,3.36694-1.50073,6.54529-4.24146,9.01373l2.05078,3.77692c.56982,1.04901,.25854,1.6441,.02197,1.90558-.15454,.1712-.44897,.38873-.94263,.38892Zm-6.88037-4.41302l6.28345,2.63196-2.53418-4.66699,.50171-.414c2.68359-2.21777,4.16162-5.13812,4.16162-8.22308,0-6.50793-6.58667-11.80261-14.68359-11.80261s-14.68433,5.29468-14.68433,11.80261c0,1.10815,.19336,2.20697,.57642,3.27136,4.41357,1.4577,7.95337,4.35059,9.80347,8.01123,3.38086,.83459,7.05981,.65369,10.28613-.50665l.28931-.10382Z"/><path class="cls-1" d="M43.78154,18.8271h-13.74718c-.38984,0-.70597-.31589-.70597-.70593,0-.39008,.31613-.70597,.70597-.70597h13.74718c.39025,0,.70593,.31589,.70593,.70597,0,.39004-.31568,.70593-.70593,.70593Z"/><path class="cls-1" d="M43.78154,14.12674h-13.74718c-.38984,0-.70597-.31593-.70597-.70597s.31613-.70597,.70597-.70597h13.74718c.39025,0,.70593,.31593,.70593,.70597s-.31568,.70597-.70593,.70597Z"/><path class="cls-1" d="M43.78154,9.42655h-13.74718c-.38984,0-.70597-.31609-.70597-.70618,0-.38984,.31613-.70593,.70597-.70593h13.74718c.39025,0,.70593,.31609,.70593,.70593,0,.39008-.31568,.70618-.70593,.70618Z"/></g><path class="cls-1" d="M2.1365,45.31818c.05673,.01801,.12159,.02814,.19616,.02755-.00245,0-.0061,.001-.00855,.001-.07129,0-.1325-.01096-.18761-.02855ZM29.25272,25.32353c-1.52096-2.41898-3.97318-4.38568-6.97489-5.58386-2.05388-.8198-4.36223-1.2818-6.80429-1.2818C6.92787,18.45787,0,24.0956,0,31.04982c0,3.44146,1.69841,6.55932,4.4485,8.83181l-2.35374,4.33563c-.05835,.1072-.1013,.20547-.13699,.2993-.01013,.02755-.0178,.05328-.02631,.07964-.02191,.06669-.03731,.12948-.04702,.18782-.00365,.02211-.00892,.04519-.01054,.06627-.00689,.07358-.0061,.14163,.0073,.19998,.0012,.00548,.00527,.00954,.00648,.0156,.01419,.05107,.03726,.09465,.06727,.13234,.01013,.01257,.02228,.02311,.03361,.03403,.02959,.02755,.06445,.04963,.10416,.06669,.01461,.00647,.02755,.01415,.04378,.01926,.05673,.01801,.12159,.02814,.19616,.02755,.05793-.00083,.12723-.01419,.19534-.02614,.03199-.00589,.05876-.00506,.09279-.01378,.10698-.02614,.22368-.06486,.35054-.11815l6.25315-2.61896c1.91117,.6875,4.0246,1.07269,6.24908,1.07269,8.54565,0,15.47355-5.63753,15.47355-12.59158,0-2.06276-.61355-4.00758-1.69438-5.72628Zm-6.43512,11.17216H9.07047c-.38988,0-.70597-.31609-.70597-.70597,0-.38967,.31609-.70597,.70597-.70597h13.74713c.38988,0,.70597,.3163,.70597,.70597,0,.38988-.31609,.70597-.70597,.70597Zm0-4.70019H9.07047c-.38988,0-.70597-.3163-.70597-.70614,0-.38967,.31609-.70597,.70597-.70597h13.74713c.38988,0,.70597,.3163,.70597,.70597,0,.38984-.31609,.70614-.70597,.70614Zm0-4.70036H9.07047c-.38988,0-.70597-.31613-.70597-.70597,0-.39008,.31609-.70618,.70597-.70618h13.74713c.38988,0,.70597,.31609,.70597,.70618,0,.38984-.31609,.70597-.70597,.70597Z"/></g></g></svg>