<?xml version="1.0" encoding="UTF-8"?><svg id="_レイヤー_2" xmlns="http://www.w3.org/2000/svg" viewBox="0 0 50.50712 23.75182"><defs><style>.cls-1{fill:#f08300;}</style></defs><g id="header"><g><path class="cls-1" d="M3.40775,18.0648c3.65991,1.36632,10.56663,2.76486,23.36648,2.76385,9.22725,.00051,15.03587-.90857,18.66203-2.04897,2.77229-.87227,4.2537-1.8691,5.05104-2.68434-.29588-2.15664-1.92431-3.56363-4.51887-4.48105-.02979,.71783-.07443,1.41146-.13197,1.95451-.04372,.38576-.08143,.67818-.16492,.95077-.23426,.7402-.67908,1.35534-1.22123,1.84185-.54315,.48855-1.18361,.85845-1.85883,1.14588-1.35035,.57192-2.84366,.82012-4.06296,.87573-.15292,.00651-.30686,.00946-.46374,.00946-1.32758-.00102-2.81894-.21698-4.04913-.42948-.90959-.15739-1.82599-.21942-2.75042-.21942-3.17939-.006-6.43516,.75657-9.67901,.76257-2.34138,.00295-4.70849-.42155-6.92765-1.90194-.53716-.35841-.98108-.64686-1.42184-.86089-.44187-.21342-.88376-.36237-1.4686-.4488-.66221-.10025-1.59853-.06599-2.56273-.13004-.96114-.07097-2.00168-.23182-2.86654-.91203-.42694-.3396-.75758-.69607-.99296-1.08183-.23436-.38372-.36634-.80273-.38027-1.21777-.00203-.05907-.00295-.13055-.00498-.20803-2.87549,.95168-4.67464,2.37362-4.96064,4.47759,.00497,.00498,.00792,.00793,.0129,.0124,.54712,.47513,1.56387,1.14731,3.39485,1.82996Z"/><path class="cls-1" d="M26.77422,21.8454c-12.87325-.00102-19.88338-1.39855-23.72192-2.82841-1.38422-.51427-2.35329-1.03709-3.03645-1.50429,.84696,5.40111,11.81683,6.23912,25.23324,6.23912,13.52955,0,24.5769-.23833,25.25803-6.31598-.44483,.35048-.98595,.70644-1.65324,1.0559-3.33028,1.73967-9.68795,3.35072-22.07965,3.35367Z"/><path class="cls-1" d="M6.6506,12.37931c.1162,.19268,.31773,.42551,.63751,.68021,.44086,.35993,1.16163,.5282,2.02252,.58331,.85591,.06151,1.79925,.01789,2.67794,.14245,.73378,.10625,1.35432,.31326,1.91434,.58636,.56206,.27351,1.06048,.60324,1.6016,.96266,1.91241,1.27044,3.91013,1.64379,6.08171,1.64674,2.99862,.00641,6.26728-.75708,9.67901-.76257,.99295,0,1.99771,.0665,3.0105,.24229,1.1896,.2065,2.62628,.40762,3.78904,.4066,.13706,0,.26903-.00254,.39613-.00844,.79734-.03426,1.7595-.17234,2.66014-.44239,.9035-.26802,1.73957-.67319,2.30946-1.18849,.38128-.34458,.64544-.72586,.78748-1.16968,.01779-.04616,.06843-.31723,.10218-.65184,.03682-.34061,.06853-.76857,.09435-1.23129,.01291-.2303,.02389-.46913,.03376-.71092-.54213,.48753-1.18259,.85743-1.8568,1.14436-1.35035,.57192-2.84366,.82012-4.06296,.87573-.15292,.00651-.30686,.00946-.46374,.00946-1.32758-.00102-2.81894-.21698-4.04913-.42948-.90959-.15729-1.82599-.21942-2.75042-.21942-3.17939-.0059-6.43516,.75667-9.67901,.76257-2.34138,.00305-4.70849-.42145-6.92765-1.90194-.53716-.35841-.98108-.64686-1.42184-.86089-.44187-.21342-.88376-.36237-1.4686-.4488-.66221-.10025-1.59853-.0665-2.56273-.13004-.9105-.067-1.88659-.22989-2.72256-.82215-.00203,.4369-.00305,.86638-.00305,1.24766,0,.54163,.00305,.99235,.00995,1.20791,.00691,.13747,.04372,.28591,.16086,.48001Z"/><path class="cls-1" d="M9.0118,4.67769c-.84004,.38423-1.65518,.90806-2.10204,1.41888-.30288,.34305-.42195,.63893-.42002,.87624,.00203,.14255,.03478,.291,.14895,.48906,.1152,.19664,.31875,.43588,.64941,.69902,.44086,.35993,1.16163,.5282,2.02252,.58331,.85591,.06162,1.79925,.01789,2.67794,.14255,.73378,.10625,1.35432,.31326,1.91434,.58626,.56206,.27361,1.06048,.60324,1.6016,.96266,1.91241,1.27044,3.91013,1.64379,6.08171,1.64674,2.99862,.00651,6.26728-.75708,9.67901-.76257,.99295,0,1.99771,.0666,3.0105,.24229,1.1896,.2065,2.62628,.40762,3.78904,.4066,.13706,0,.26903-.00244,.39613-.00844,.79734-.03426,1.7595-.17224,2.66014-.44229,.9035-.26812,1.73957-.6733,2.30946-1.18859,.38128-.34458,.64544-.72586,.78748-1.17018,.16573-.52129,.24026-1.03313,.24128-1.53754,.00193-1.55238-.72983-3.07264-1.8935-4.33311-1.1588-1.25803-2.7365-2.22913-4.27952-2.67244C36.79881,.18617,35.25579,0,33.69191,0c-3.49012-.00142-7.08545,.93186-10.31743,2.09757-2.37118,.85438-4.70351,1.32656-7.14413,1.66514-.58382,.08093-1.15381,.10025-1.70581,.10025-.59379,0-1.16673-.02176-1.71486-.02176-.552,0-1.07827,.02227-1.57577,.10269-.51234,.07992-1.38614,.34509-2.22212,.73379Zm12.08791-.07199c.25509-.11571,.55697-.00193,.67217,.25368,.14895,.34702,.57986,.71447,1.12402,1.05102,.13594,.08592,.28195,.16929,.4249,.25277,.10728-.10035,.21352-.20213,.3217-.29893,.32872-.28988,.83801-.82215,1.40109-1.36723,.07148-.06853,.14489-.13706,.21738-.20559-.29293-.18119-.5401-.27005-.6126-.26009l-.02481,.00193c-.27015,.07595-.55108-.08185-.62652-.35251-.07554-.27056,.08236-.55098,.35241-.62652,.10035-.02827,.20162-.03965,.29893-.03965,.36837,.00498,.6851,.14448,1.00882,.32618,.12811,.07392,.25815,.16227,.3882,.25266,.2671-.22145,.53817-.42897,.81127-.60019,.41799-.25724,.83903-.4553,1.30958-.46618,.28103-.00346,.51143,.22145,.51439,.50238,.00294,.28052-.22146,.51092-.50239,.51438-.1519-.00346-.44686,.09781-.7825,.31174-.1698,.10574-.35048,.23629-.53613,.3823,.58279,.50045,1.16367,1.06241,1.64825,1.52666,.01393,.01383,.02684,.02583,.04169,.03965,.24128-.2184,.48154-.42643,.72384-.6067,.27207-.2,.92341-.7645,1.61054-1.34588-.61169-.48896-1.20243-.8614-1.67511-.95473-.27502-.05948-.4488-.33014-.38921-.60416,.05857-.27452,.32963-.4488,.60375-.38972,.79734,.18169,1.54395,.6797,2.26382,1.28386,.5164-.419,1.00485-.79083,1.38024-.99886,.16573-.08195,.28886-.16034,.54305-.17183l.12516,.012c.27503,.05409,.4548,.3217,.40009,.59724-.04464,.23182-.2432,.38616-.46761,.40009v.00153l-.00793,.00295-.10624,.05063c-.09935,.05409-.2423,.14601-.40417,.26161-.20355,.14397-.44279,.33116-.69302,.53075,.02776,.02633,.05653,.05165,.08439,.07799,.47655,.45418,.93826,.92687,1.36621,1.35534,.67818-.4488,1.34446-.8862,1.98491-1.32412-.50543-.45673-.99988-.90705-1.45965-1.33947-.20447-.19257-.21443-.51427-.02176-.71834,.19257-.20457,.51427-.21393,.71885-.02135,.50136,.4736,1.04756,.96907,1.60952,1.47552,.21942-.16085,.4428-.32068,.64839-.48601,.21942-.17529,.53919-.1396,.71386,.08043,.1758,.21942,.13909,.53908-.08043,.71386-.16583,.13106-.34254,.25571-.51427,.38372,.60466,.54417,1.21136,1.09769,1.80515,1.65426,.55006-.37579,1.03455-.69505,1.33541-.85296,.24931-.12903,.55606-.03172,.68611,.21748,.12913,.24921,.03182,.55606-.21738,.68509-.18373,.09385-.58585,.35251-1.05255,.66872,.77944,.7586,1.50724,1.51476,2.10204,2.2451,.17773,.21789,.14397,.53807-.07351,.71539-.2184,.17671-.53817,.14397-.71488-.07402-.59379-.73176-1.3474-1.50876-2.1665-2.29858-.58585,.40904-1.17466,.82754-1.59366,1.12494-.0487,.03376-.0973,.06406-.14601,.0973,.91945,.69658,1.80413,1.35788,2.31952,1.74851,.2244,.1698,.26802,.48855,.09822,.71244-.1697,.22348-.48844,.26761-.71183,.09781-.56501-.42795-1.58278-1.18798-2.60645-1.966-.53715,.34356-1.05753,.67868-1.50032,1.06149-.02379,.02034-.0487,.0367-.07351,.05602-.0486,.1212-.14499,.22348-.27503,.27757-.09232,.03721-.1459,.06009-.22938,.08236l-.14692,.01942-.1638-.02583c-.01688-.00549-.04179-.02186-.06355-.03223-.01098,.03864-.01595,.07839-.03681,.1151-.13604,.24534-.44575,.3337-.69109,.19715-.8797-.48997-1.71771-1.0743-2.53294-1.67561-.45968,.44188-.89363,.90064-1.25803,1.40404h.00102c-.16583,.22684-.48459,.27656-.71092,.11072-.22643-.16532-.27605-.48357-.11123-.71041,.3763-.51194,.8073-.97456,1.25703-1.41888-.42888-.32424-.85388-.64594-1.2739-.95372-.06151-.04525-.13106-.10625-.19857-.16238-.33065,.32414-.67126,.66374-1.02174,1.00039-.21341,.20254-.42896,.40365-.6494,.59623,.08348,.05013,.16085,.10778,.24829,.15394,.24819,.13208,.34254,.43985,.21047,.68753-.13208,.24778-.43985,.34214-.68712,.21006-.2244-.12018-.4249-.25317-.62347-.38779-.40314,.28154-.82022,.52434-1.26505,.67523-.26608,.08886-.55403-.05511-.6434-.32119-.08836-.26659,.05562-.55454,.3217-.64289,.23131-.07504,.47462-.2061,.7219-.35851-.425-.35495-.82418-.71935-1.25112-1.05499-.12608-.10076-.28693-.20549-.45978-.31275-1.06332,1.05743-2.17148,2.27031-3.56352,3.03583-.24727,.13462-.55505,.04321-.69007-.20305-.13411-.24666-.0427-.55545,.20355-.68956,1.12392-.60517,2.12482-1.65772,3.1495-2.6819-.06954-.0422-.13899-.08236-.20854-.12608-.58779-.37579-1.19052-.80873-1.50826-1.4929-.11611-.25561-.00294-.55698,.25328-.67269Z"/><path class="cls-1" d="M33.78922,6.61288c-.75555,.51336-1.48538,1.04512-2.16355,1.61257,.73572,.53817,1.47846,1.04553,2.23208,1.46657,.02481-.08144,.0546-.13462,.06955-.16492l.0665-.07636,.07443-.06456,.12516-.09191,.2125-.15689c.41698-.3579,.86282-.66221,1.3047-.94823-.45479-.34997-.88569-.6856-1.24715-.97598-.21545-.17376-.44188-.37986-.67421-.60029Z"/><path class="cls-1" d="M30.78562,7.59893c.71691-.61859,1.48345-1.18208,2.26097-1.71537-.39024-.39369-.79338-.80425-1.20649-1.19591-.05857-.05663-.11815-.10574-.17773-.16136-.72779,.61168-1.42183,1.21878-1.78329,1.48792-.18363,.13553-.37528,.2973-.57294,.47411,.01789,.01434,.04077,.03376,.05663,.04514,.47462,.34854,.94823,.70797,1.42285,1.06546Z"/><path class="cls-1" d="M35.09992,6.4198c.42897,.34407,.96114,.75708,1.5172,1.18259,.13899-.09191,.28001-.18271,.41199-.27656,.37733-.2671,.89464-.63598,1.42691-1.00882-.58687-.54712-1.1896-1.09464-1.79132-1.63637-.65529,.4553-1.33041,.90064-2.00769,1.34893,.15394,.14245,.30686,.28154,.4429,.39023Z"/><path class="cls-1" d="M24.31774,6.62528c-.0358,.03132-.07149,.06711-.10728,.09934,.11418,.07595,.23833,.14499,.34254,.22684,.5402,.42897,1.00384,.85001,1.4745,1.22926,.27015-.22491,.5402-.46415,.81025-.72383,.32668-.31174,.65042-.63547,.97304-.9527-.18668-.17976-.38027-.36735-.58779-.56501-.36939-.35393-.75962-.71336-1.13389-1.02814-.67319,.62551-1.30968,1.30368-1.77138,1.71425Z"/></g></g></svg>