<?xml version="1.0" encoding="UTF-8"?><svg id="_レイヤー_2" xmlns="http://www.w3.org/2000/svg" viewBox="0 0 39.29611 44.00432"><defs><style>.cls-1{fill:#fff;}</style></defs><g id="header"><path class="cls-1" d="M26.60873,38.02593c.20557,2.44886,2.09955,4.59506,5.00657,5.69704-7.2505,1.07154-10.91438-1.02759-12.32972-4.43144C8.60166,39.09806,0,30.37819,0,19.64806,0,8.79674,8.79673,0,19.64805,0s19.64806,8.79674,19.64806,19.64806c0,8.40014-5.27209,15.56774-12.68738,18.37787Zm-4.6249-29.67989c-.64328-.5425-1.41652-.81374-2.32068-.81374-.92441,0-1.69814,.27125-2.32068,.81374-.66305,.56275-.99458,1.23569-.99458,2.01929s.33152,1.43677,.99458,1.95902c.6428,.5425,1.42641,.81374,2.35082,.81374,.90416,0,1.66751-.27125,2.29054-.81374,.6428-.52225,.96444-1.17541,.96444-1.95902s-.32164-1.45654-.96444-2.01929Zm.72333,9.67453c0-.88391-.32164-1.58698-.96444-2.10971-.5425-.46197-1.2258-.69319-2.04943-.69319-.82411,0-1.51731,.23122-2.07958,.69319-.64328,.52273-.96444,1.21592-.96444,2.07957v11.51299c0,.88439,.29102,1.56721,.87402,2.04944,.58252,.52224,1.26583,.78361,2.04944,.78361,.84388,0,1.55684-.23123,2.13985-.69319,.66305-.50247,.99458-1.21544,.99458-2.13985v-11.48285Z"/></g></svg>