<?xml version="1.0" encoding="UTF-8"?><svg id="_レイヤー_2" xmlns="http://www.w3.org/2000/svg" viewBox="0 0 75.76068 35.62773"><defs><style>.cls-1{fill:#fff;}</style></defs><g id="header"><g><path class="cls-1" d="M5.11162,27.0972c5.48987,2.04947,15.84995,4.1473,35.04971,4.14577,13.84087,.00076,22.55381-1.36286,27.99304-3.07345,4.15843-1.30841,6.38055-2.80365,7.57656-4.0265-.44381-3.23496-2.88647-5.34544-6.7783-6.72157-.04469,1.07674-.11164,2.11719-.19796,2.93176-.06558,.57864-.12215,1.01726-.24738,1.42615-.35139,1.1103-1.01862,2.033-1.83184,2.76278-.81473,.73283-1.77541,1.28767-2.78825,1.71883-2.02553,.85789-4.26549,1.23017-6.09443,1.3136-.22938,.00976-.46029,.01418-.69561,.01418-1.99137-.00153-4.22842-.32546-6.07369-.64422-1.36438-.23609-2.73899-.32912-4.12562-.32912-4.76909-.009-9.65274,1.13485-14.51852,1.14385-3.51208,.00442-7.06274-.63232-10.39148-2.85291-.80574-.53761-1.47162-.97029-2.13276-1.29133-.66281-.32013-1.32565-.54356-2.2029-.67319-.99332-.15038-2.3978-.09898-3.8441-.19506-1.44171-.10645-3.00251-.34773-4.29981-1.36804-.6404-.50939-1.13638-1.04411-1.48945-1.62274-.35154-.57559-.54951-1.20409-.5704-1.82665-.00305-.08861-.00442-.19583-.00747-.31204-4.31323,1.42752-7.01195,3.56042-7.44096,6.71638,.00746,.00747,.01188,.0119,.01935,.01861,.82067,.71269,2.34581,1.72096,5.09227,2.74493Z"/><path class="cls-1" d="M40.16134,32.7681c-19.30988-.00153-29.82506-2.09782-35.58289-4.24262-2.07633-.77141-3.52994-1.55564-4.55467-2.25643,1.27044,8.10166,17.72525,9.35868,37.84986,9.35868,20.29432,0,36.86535-.35749,37.88704-9.47398-.66725,.52571-1.47892,1.05966-2.47987,1.58385-4.99542,2.6095-14.53193,5.02608-33.11947,5.0305Z"/><path class="cls-1" d="M9.9759,18.56896c.17431,.28901,.47659,.63827,.95626,1.02031,.66128,.5399,1.74245,.79231,3.03378,.87497,1.28387,.09227,2.69888,.02684,4.01691,.21367,1.10067,.15938,2.03148,.46989,2.87151,.87954,.84309,.41026,1.59071,.90486,2.40241,1.444,2.86861,1.90565,5.86519,2.46568,9.12257,2.47011,4.49792,.00961,9.40092-1.13561,14.51852-1.14385,1.48943,0,2.99657,.09974,4.51575,.36344,1.78441,.30975,3.93942,.61143,5.68356,.6099,.20559,0,.40355-.00381,.59419-.01266,1.19601-.0514,2.63924-.25851,3.99021-.66359,1.35525-.40203,2.60935-1.00979,3.46419-1.78273,.57192-.51687,.96815-1.08879,1.18122-1.75451,.02669-.06924,.10264-.47584,.15328-.97776,.05523-.51092,.10279-1.15285,.14153-1.84694,.01937-.34544,.03584-.7037,.05063-1.06637-.8132,.7313-1.77388,1.28614-2.7852,1.71654-2.02553,.85789-4.26549,1.23017-6.09443,1.3136-.22938,.00976-.46029,.01418-.69561,.01418-1.99137-.00153-4.22842-.32546-6.07369-.64422-1.36438-.23594-2.73899-.32912-4.12562-.32912-4.76909-.00885-9.65274,1.135-14.51852,1.14385-3.51208,.00458-7.06274-.63217-10.39148-2.85291-.80574-.53761-1.47162-.97029-2.13276-1.29133-.66281-.32013-1.32565-.54356-2.2029-.67319-.99332-.15038-2.3978-.09974-3.8441-.19506-1.36576-.10051-2.82988-.34483-4.08383-1.23322-.00305,.65535-.00458,1.29957-.00458,1.87149,0,.81244,.00458,1.48853,.01493,1.81186,.01037,.2062,.06558,.42887,.24129,.72002Z"/><path class="cls-1" d="M13.5177,7.01653c-1.26007,.57635-2.48276,1.3621-3.15306,2.12832-.45432,.51458-.63293,.95839-.63003,1.31436,.00305,.21382,.05217,.43649,.22343,.73359,.1728,.29496,.47813,.65382,.97412,1.04853,.66128,.5399,1.74245,.79231,3.03378,.87497,1.28387,.09242,2.69888,.02684,4.01691,.21382,1.10067,.15938,2.03148,.46989,2.87151,.87939,.84309,.41041,1.59071,.90486,2.40241,1.444,2.86861,1.90565,5.86519,2.46568,9.12257,2.47011,4.49792,.00976,9.40092-1.13561,14.51852-1.14385,1.48943,0,2.99657,.0999,4.51575,.36344,1.78441,.30975,3.93942,.61143,5.68356,.6099,.20559,0,.40355-.00366,.59419-.01266,1.19601-.0514,2.63924-.25836,3.99021-.66343,1.35525-.40218,2.60935-1.00994,3.46419-1.78288,.57192-.51687,.96815-1.08879,1.18122-1.75528,.2486-.78194,.36039-1.54969,.36191-2.30631,.0029-2.32857-1.09474-4.60895-2.84026-6.49966-1.73819-1.88705-4.10474-3.3437-6.41929-4.00866C55.19822,.27925,52.88368,0,50.53787,0c-5.23517-.00214-10.62818,1.39778-15.47614,3.14635-3.55676,1.28157-7.05527,1.98984-10.7162,2.49771-.87573,.1214-1.73072,.15038-2.55872,.15038-.89068,0-1.75009-.03264-2.57229-.03264-.82799,0-1.6174,.0334-2.36365,.15404-.76851,.11988-2.07921,.51763-3.33318,1.10069Zm18.13187-.10798c.38264-.17356,.83545-.0029,1.00825,.38052,.22343,.52053,.86978,1.07171,1.68603,1.57653,.20391,.12887,.42292,.25393,.63735,.37915,.16092-.15053,.32028-.3032,.48255-.44839,.49308-.43482,1.25701-1.23322,2.10163-2.05085,.10722-.10279,.21733-.20559,.32607-.30838-.43939-.27178-.81015-.40508-.91889-.39013l-.03721,.0029c-.40523,.11393-.82662-.12277-.93979-.52876-.11332-.40584,.12354-.82647,.52861-.93979,.15053-.0424,.30243-.05948,.44839-.05948,.55256,.00747,1.02765,.21672,1.51324,.48926,.19217,.11088,.38723,.24341,.5823,.379,.40065-.33217,.80725-.64345,1.2169-.90029,.62698-.38586,1.25854-.68295,1.96437-.69927,.42155-.00519,.76714,.33217,.77158,.75357,.00441,.42078-.33219,.76638-.75358,.77156-.22785-.00519-.6703,.14672-1.17374,.46761-.2547,.15861-.52571,.35444-.80419,.57345,.87419,.75067,1.7455,1.59361,2.47238,2.28999,.02089,.02074,.04026,.03874,.06253,.05948,.36191-.3276,.7223-.63964,1.08576-.91005,.40811-.29999,1.38511-1.14675,2.41581-2.01882-.91754-.73344-1.80364-1.29209-2.51267-1.4321-.41253-.08922-.67319-.49521-.58382-.90623,.08785-.41179,.49445-.67319,.90562-.58458,1.19601,.27254,2.31593,1.01955,3.39572,1.92579,.7746-.62851,1.50727-1.18625,2.07035-1.49829,.2486-.12293,.43329-.24051,.81457-.25775l.18774,.018c.41255,.08114,.68221,.48255,.60014,.89586-.06695,.34773-.3648,.57925-.70141,.60014v.00229l-.0119,.00442-.15936,.07595c-.14902,.08114-.36345,.21901-.60626,.39242-.30533,.21596-.66418,.49674-1.03953,.79612,.04164,.0395,.0848,.07748,.12659,.11698,.71483,.68128,1.40739,1.39031,2.04932,2.033,1.01726-.67319,2.01668-1.32931,2.97737-1.98618-.75814-.68509-1.49982-1.36057-2.18948-2.00921-.3067-.28886-.32165-.77141-.03264-1.07751,.28886-.30686,.77141-.32089,1.07827-.03203,.75204,.71041,1.57134,1.4536,2.41429,2.21327,.32912-.24128,.6642-.48103,.97258-.72901,.32912-.26293,.80878-.2094,1.0708,.12064,.2637,.32912,.20864,.80863-.12064,1.0708-.24875,.19659-.51382,.38357-.77141,.57559,.907,.81625,1.81704,1.64653,2.70772,2.48139,.8251-.56369,1.55182-1.04258,2.00311-1.27943,.37396-.19354,.8341-.04758,1.02916,.32623,.19369,.37381,.04774,.8341-.32607,1.02763-.27559,.14077-.87878,.52876-1.57882,1.00308,1.16917,1.1379,2.26086,2.27214,3.15306,3.36765,.26659,.32684,.21596,.8071-.11027,1.07308-.3276,.26507-.80725,.21596-1.07232-.11103-.89068-1.09764-2.02111-2.26315-3.24975-3.44787-.87878,.61356-1.76199,1.24131-2.39049,1.68741-.07305,.05063-.14596,.09608-.21901,.14596,1.37918,1.04487,2.7062,2.03682,3.47929,2.62277,.3366,.2547,.40203,.73283,.14733,1.06866-.25454,.33522-.73266,.40142-1.06775,.14672-.84752-.64193-2.37418-1.78197-3.90968-2.949-.80573,.51534-1.58629,1.01803-2.25049,1.59224-.03569,.0305-.07305,.05506-.11027,.08403-.0729,.1818-.21748,.33522-.41255,.41636-.13848,.05582-.21886,.09014-.34407,.12354l-.22038,.02913-.2457-.03874c-.02532-.00824-.06268-.03279-.09532-.04835-.01647,.05796-.02393,.11759-.05521,.17265-.20406,.36801-.66862,.50055-1.03663,.29572-1.31955-.73496-2.57656-1.61146-3.79941-2.51342-.68951,.66282-1.34044,1.35096-1.88705,2.10606h.00153c-.24875,.34026-.72688,.41484-1.06637,.16609-.33965-.24799-.41407-.72535-.16685-1.06561,.56445-.7679,1.21096-1.46184,1.88554-2.12832-.64332-.48637-1.28082-.96892-1.91085-1.43058-.09227-.06787-.19659-.15938-.29786-.24356-.49597,.48621-1.00689,.99561-1.53261,1.50058-.32011,.30381-.64344,.60548-.9741,.89434,.12521,.07519,.24128,.16166,.37244,.23091,.37229,.19811,.51382,.65977,.3157,1.0313-.19811,.37167-.65977,.51321-1.03069,.31509-.3366-.18027-.63735-.37976-.93521-.58169-.60472,.42231-1.23033,.78651-1.89757,1.01284-.39913,.1333-.83105-.08266-.9651-.48179-.13253-.39989,.08342-.83181,.48255-.96434,.34697-.11255,.71193-.30914,1.08284-.53776-.63751-.53242-1.23627-1.07903-1.87668-1.58248-.18912-.15114-.43039-.30823-.68967-.46913-1.59498,1.58614-3.25723,3.40547-5.34529,4.55374-.37091,.20193-.83257,.06482-1.03511-.30457-.20117-.37-.06406-.83318,.30533-1.03435,1.68588-.90776,3.18722-2.48658,4.72425-4.02284-.1043-.06329-.20849-.12354-.3128-.18912-.88168-.56369-1.78578-1.21309-2.26238-2.23935-.17417-.38342-.00441-.83547,.37993-1.00903Z"/><path class="cls-1" d="M50.68383,9.91932c-1.13333,.77004-2.22807,1.56768-3.24533,2.41886,1.10359,.80725,2.2177,1.56829,3.34813,2.19985,.03721-.12216,.0819-.20193,.10432-.24738l.09974-.11454,.11164-.09685,.18774-.13787,.31875-.23533c.62547-.53685,1.29423-.99332,1.95705-1.42234-.68219-.52495-1.32853-1.0284-1.87073-1.46398-.32318-.26065-.66282-.56979-1.01132-.90044Z"/><path class="cls-1" d="M46.17843,11.39839c1.07537-.92789,2.22517-1.77312,3.39145-2.57305-.58536-.59053-1.19008-1.20638-1.80974-1.79386-.08785-.08495-.17722-.15861-.26659-.24204-1.09169,.91752-2.13275,1.82818-2.67493,2.23188-.27544,.2033-.56293,.44595-.85941,.71117,.02684,.0215,.06116,.05063,.08495,.06772,.71193,.52282,1.42234,1.06195,2.13427,1.59819Z"/><path class="cls-1" d="M52.64987,9.62969c.64345,.51611,1.44171,1.13561,2.2758,1.77388,.20849-.13787,.42002-.27407,.61798-.41484,.56599-.40065,1.34196-.95397,2.14037-1.51324-.88031-.82067-1.78441-1.64196-2.68698-2.45455-.98293,.68295-1.99562,1.35096-3.01153,2.02339,.23091,.21367,.46029,.42231,.66435,.58535Z"/><path class="cls-1" d="M36.47661,9.93792c-.0537,.04697-.10723,.10066-.16092,.14901,.17127,.11393,.35749,.21748,.51382,.34026,.8103,.64345,1.50576,1.27501,2.21175,1.84389,.40523-.33736,.8103-.69622,1.21538-1.08574,.49003-.46761,.97563-.95321,1.45955-1.42905-.28001-.26964-.5704-.55103-.88168-.84752-.55408-.5309-1.13943-1.07003-1.70083-1.54221-1.00979,.93826-1.96452,1.95553-2.65707,2.57137Z"/></g></g></svg>