<?xml version="1.0" encoding="UTF-8"?><svg id="_レイヤー_2" xmlns="http://www.w3.org/2000/svg" viewBox="0 0 80.88982 41.57486"><defs><style>.cls-1{fill:#fff;}</style></defs><g id="header"><path class="cls-1" d="M64.25519,35.95268h-2.93725c-.57445-.00073-1.0401-.46639-1.04085-1.04084V9.30224c.00075-.57518,.4664-1.04084,1.04085-1.04157h11.3656c.37486,0,.72075,.20235,.90586,.52949l7.16618,12.68849c.08782,.15652,.13424,.33289,.13424,.5119v12.92129c-.00074,.27571-.11028,.54027-.30468,.73619-.19514,.19587-.45971,.3054-.73617,.30465h-3.3535c-.27201,3.17732-2.93076,5.61846-6.11976,5.61846s-5.84777-2.44114-6.11977-5.61846h-.00074Zm6.12051,3.53918c2.04084,0,3.76476-1.51502,4.02655-3.53918,.04141-.32288,.04438-.64909,.00873-.97271v-.00129c-.00074-.00741-.00129-.01466-.00204-.02042l-.00297-.02171-.00223-.01967v-.00281c-.03267-.25457-.08837-.50483-.16822-.74768-.03342-.10024-.06963-.19811-.11028-.29595-.63089-1.51301-2.10973-2.49852-3.74879-2.49852-1.6398,0-3.11864,.98552-3.74954,2.49852-.02915,.06963-.05588,.13925-.08057,.20962v.00131l-.00372,.00945c-.14129,.40624-.21742,.83196-.2254,1.26198v.14872c.00204,.15076,.013,.30096,.03249,.45116,.26198,2.02339,1.98515,3.53846,4.026,3.53918h0Zm8.43186-5.62143v-11.60642l-.65336-1.15743h-8.68586c-.57501,0-1.04066-.46566-1.04066-1.04084v-6.7282c0-.27628,.10954-.54104,.30448-.73619,.19514-.19514,.45991-.3052,.73617-.3052h3.71056l-1.10325-1.95399h-9.71631v23.52826h2.07427c.70999-2.6994,3.15058-4.58077,5.94134-4.58077s5.23135,1.88137,5.94134,4.58077h2.49127Zm-8.29763-14.84611h6.46844l-2.62384-4.64611h-3.84461v4.64611ZM23.24677,36.05553H14.13962c-.27551,0-.5403-.10951-.73616-.30447-.19494-.19514-.3045-.46063-.3045-.73619,0-.27628,.10956-.54102,.3045-.73616,.19587-.19512,.46065-.30543,.73616-.30543h9.25066c.6725-2.74935,3.13687-4.6829,5.96754-4.6829s5.29447,1.93355,5.96752,4.6829h20.02954V2.08222H14.14037c-.27626,0-.54104-.10951-.73616-.30543-.19496-.19491-.30524-.45972-.30524-.73614,0-.27555,.11028-.54032,.30524-.736,.19512-.19514,.45991-.30465,.73616-.30465H56.39628c.57445,.00073,1.0401,.46639,1.04066,1.04138V35.01487c-.00056,.57445-.46621,1.03993-1.04066,1.04066h-20.92744c-.31991,3.13462-2.95972,5.51933-6.11103,5.51933s-5.79114-2.3847-6.11105-5.51933h0Zm6.11105,3.43633c2.00167,0,3.70461-1.45841,4.01208-3.43633,.0711-.4597,.06312-.92833-.02323-1.38525l-.00054-.00501-.00297-.01376-.00147-.0102-.00299-.01224-.00204-.01247-.00222-.01077-.00297-.01392-.00204-.00927-.00297-.01451-.00222-.00945-.00281-.01376-.00222-.0102-.00354-.01373-.0022-.01022-.00299-.01373-.00279-.01095-.00295-.01151-.00299-.01244-.00204-.00947-.00444-.01727c-.03919-.15745-.08839-.31191-.1465-.46269-.60417-1.56738-2.11049-2.60156-3.79021-2.60156-1.68045,0-3.18677,1.03418-3.79092,2.60156-.02751,.07169-.05292,.14428-.07613,.21744l-.0015,.00372-.00501,.01521-.00596,.02024-.00499,.01523-.00152,.00594-.00648,.02099c-.09934,.33362-.15448,.6788-.16597,1.02692v.19809c.00277,.17973,.018,.35891,.04417,.5366l.00075,.00576,.00222,.01392v.0015c.30749,1.9777,2.00965,3.43688,4.0106,3.4376h0ZM1.04064,28.3526c-.57425,0-1.04064-.46564-1.04064-1.04068,0-.57518,.46639-1.04157,1.04064-1.04157h15.61646c.57502,0,1.04066,.46639,1.04066,1.04157,0,.57504-.46564,1.04068-1.04066,1.04068H1.04064Zm9.05722-6.24602c-.57445,0-1.04086-.46621-1.04086-1.04143,0-.57518,.46641-1.04061,1.04086-1.04061h10.93113c.575,0,1.04141,.46544,1.04141,1.04061,0,.57522-.46641,1.04143-1.04141,1.04143H10.09785ZM2.29037,15.86073c-.27626,0-.54102-.10951-.73619-.30543-.19512-.1951-.30468-.45968-.30468-.73614,0-.27551,.10956-.54032,.30468-.736,.19516-.19514,.45993-.30465,.73619-.30465h15.6155c.5752,0,1.04159,.46639,1.04159,1.04066,0,.57522-.46639,1.04157-1.04159,1.04157H2.29037Zm7.91183-6.24676c-.27555,0-.54104-.10951-.73616-.30447-.19498-.19514-.3045-.45986-.3045-.73619,0-.27623,.10951-.541,.3045-.73614,.19512-.19514,.46061-.30543,.73616-.30543h12.90903c.57502,0,1.04066,.46639,1.04066,1.04157,0,.57504-.46564,1.04066-1.04066,1.04066H10.2022Z"/></g></svg>