<?xml version="1.0" encoding="UTF-8"?><svg id="_レイヤー_2" xmlns="http://www.w3.org/2000/svg" viewBox="0 0 53.92655 27.71657"><defs><style>.cls-1{fill:#f08300;}</style></defs><g id="header"><path class="cls-1" d="M42.83679,23.96845h-1.95817c-.38297-.00048-.6934-.31093-.6939-.69389V6.2015c.0005-.38345,.31093-.69389,.6939-.69438h7.57707c.24991,0,.4805,.1349,.60391,.35299l4.77745,8.45899c.05855,.10435,.08949,.22193,.08949,.34127v8.6142c-.00049,.18381-.07352,.36018-.20312,.49079-.13009,.13058-.30648,.2036-.49078,.2031h-2.23567c-.18134,2.11822-1.95384,3.74564-4.07984,3.74564s-3.89851-1.62743-4.07985-3.74564h-.00049Zm4.08034,2.35946c1.36056,0,2.50984-1.01002,2.68436-2.35946,.02761-.21525,.02958-.43272,.00582-.64847v-.00086c-.00049-.00494-.00086-.00978-.00136-.01361l-.00198-.01448-.00149-.01312v-.00187c-.02178-.16971-.05891-.33655-.11214-.49845-.02228-.06683-.04642-.13207-.07352-.1973-.42059-1.00867-1.40648-1.66568-2.4992-1.66568-1.0932,0-2.0791,.65701-2.4997,1.66568-.01943,.04642-.03725,.09283-.05371,.13975v.00088l-.00248,.0063c-.09419,.27082-.14495,.55464-.15027,.84132v.09915c.00136,.10051,.00867,.20064,.02166,.30077,.17465,1.34892,1.32344,2.35897,2.684,2.35946h0Zm5.62124-3.74762v-7.73761l-.43557-.77162h-5.79057c-.38334,0-.69377-.31044-.69377-.69389v-4.48547c0-.18419,.07302-.3607,.20299-.49079,.13009-.13009,.3066-.20347,.49078-.20347h2.47371l-.7355-1.30266h-6.47754v15.68551h1.38285c.47332-1.7996,2.10039-3.05385,3.96089-3.05385s3.48757,1.25425,3.96089,3.05385h1.66085Zm-5.53175-9.89741h4.3123l-1.74922-3.09741h-2.56307v3.09741ZM15.49784,24.03702h-6.07143c-.18367,0-.3602-.07301-.49078-.20298-.12996-.13009-.203-.30709-.203-.49079,0-.18419,.07304-.36068,.203-.49078,.13058-.13008,.3071-.20362,.49078-.20362h6.16711c.44833-1.8329,2.09124-3.12193,3.97836-3.12193s3.52965,1.28903,3.97834,3.12193h13.35303V1.38815H9.42691c-.18417,0-.3607-.07301-.49078-.20362-.12997-.12994-.2035-.30648-.2035-.49076,0-.1837,.07352-.36021,.2035-.49067,.13008-.13009,.3066-.2031,.49078-.2031h28.17061c.38297,.00048,.6934,.31093,.69377,.69426V23.34325c-.00037,.38297-.3108,.69329-.69377,.69377h-13.95163c-.21327,2.08975-1.97315,3.67955-4.07402,3.67955s-3.86076-1.5898-4.07403-3.67955h0Zm4.07403,2.29089c1.33445,0,2.46974-.97227,2.67472-2.29089,.0474-.30647,.04208-.61889-.01549-.9235l-.00036-.00334-.00198-.00917-.00098-.0068-.00199-.00816-.00136-.00831-.00148-.00718-.00198-.00928-.00136-.00618-.00198-.00967-.00148-.0063-.00187-.00917-.00148-.0068-.00236-.00916-.00147-.00681-.00199-.00916-.00186-.0073-.00196-.00768-.00199-.0083-.00136-.00632-.00296-.01151c-.02612-.10497-.05893-.20794-.09767-.30846-.40278-1.04492-1.40699-1.73437-2.52681-1.73437-1.1203,0-2.12452,.68945-2.52728,1.73437-.01834,.04779-.03528,.09619-.05075,.14496l-.001,.00248-.00334,.01014-.00397,.01349-.00332,.01015-.00101,.00396-.00432,.01399c-.06623,.22241-.10299,.45253-.11065,.68462v.13206c.00184,.11982,.012,.23928,.02945,.35773l.0005,.00384,.00148,.00928v.001c.20499,1.31846,1.33977,2.29125,2.67374,2.29173h0ZM.69376,18.90174c-.38283,0-.69376-.31043-.69376-.69379,0-.38345,.31093-.69438,.69376-.69438H11.10473c.38335,0,.69377,.31093,.69377,.69438,0,.38336-.31043,.69379-.69377,.69379H.69376Zm6.03815-4.16401c-.38297,0-.69391-.3108-.69391-.69429,0-.38345,.31094-.69374,.69391-.69374h7.28742c.38333,0,.69427,.31029,.69427,.69374,0,.38348-.31094,.69429-.69427,.69429H6.7319ZM1.52692,10.57382c-.18417,0-.36068-.07301-.49079-.20362-.13008-.13006-.20312-.30645-.20312-.49076,0-.18367,.07304-.36021,.20312-.49067,.13011-.13009,.30662-.2031,.49079-.2031H11.93725c.38347,0,.69439,.31093,.69439,.69377,0,.38348-.31093,.69438-.69439,.69438H1.52692ZM6.80147,6.40931c-.1837,0-.3607-.07301-.49078-.20298-.12999-.13009-.203-.30657-.203-.49079,0-.18416,.07301-.36067,.203-.49076,.13008-.13009,.30707-.20362,.49078-.20362H15.40749c.38335,0,.69377,.31093,.69377,.69438,0,.38336-.31043,.69377-.69377,.69377H6.80147Z"/></g></svg>