<?xml version="1.0" encoding="UTF-8"?><svg id="_レイヤー_2" xmlns="http://www.w3.org/2000/svg" viewBox="0 0 26.19741 29.33621"><defs><style>.cls-1{fill:#f08300;}</style></defs><g id="header"><path class="cls-1" d="M17.73915,25.35062c.13705,1.63257,1.3997,3.06337,3.33771,3.79803-4.83367,.71436-7.27625-.68506-8.21981-2.9543-7.12262-.12898-12.85706-5.94222-12.85706-13.09564C0,5.86449,5.86449,0,13.0987,0s13.09871,5.86449,13.09871,13.09871c0,5.60009-3.51473,10.3785-8.45825,12.25191ZM14.65589,5.56403c-.42885-.36166-.94435-.5425-1.54712-.5425-.61628,0-1.13209,.18083-1.54712,.5425-.44204,.37517-.66305,.82379-.66305,1.3462s.22102,.95785,.66305,1.30601c.42853,.36166,.95094,.5425,1.56721,.5425,.60277,0,1.11167-.18083,1.52703-.5425,.42853-.34816,.64296-.78361,.64296-1.30601s-.21443-.97103-.64296-1.3462Zm.48222,6.44969c0-.58927-.21443-1.05799-.64296-1.40647-.36166-.30798-.8172-.46213-1.36629-.46213-.54941,0-1.01154,.15415-1.38638,.46213-.42885,.34848-.64296,.81061-.64296,1.38638v7.67533c0,.5896,.19401,1.04481,.58268,1.36629,.38835,.34816,.84389,.5224,1.36629,.5224,.56259,0,1.0379-.15415,1.42657-.46213,.44204-.33498,.66305-.81029,.66305-1.42657v-7.65524Z"/></g></svg>