<?xml version="1.0" encoding="UTF-8"?><svg id="_レイヤー_2" xmlns="http://www.w3.org/2000/svg" viewBox="0 0 33.17273 25.89184"><defs><style>.cls-1{fill:#3e0005;}</style></defs><g id="header"><path class="cls-1" d="M33.09145,3.50991c-.1379-.69676-.44876-1.35529-.90227-1.90894-.09211-.11623-.18846-.21967-.29381-.32452-.80687-.81115-1.92931-1.27645-3.07957-1.27645H4.35674C3.1937,0,2.09981,.45351,1.27668,1.27689c-.10421,.10395-.2008,.20834-.29643,.32831C.52864,2.15651,.21917,2.81411,.08456,3.51185c-.05621,.27399-.08456,.5579-.08456,.8451V21.53532c0,.59763,.12141,1.1796,.36212,1.73281,.20829,.49129,.52434,.95709,.91432,1.34684,.09825,.09776,.1958,.18797,.29995,.27588,.77969,.64573,1.76699,1.00099,2.78034,1.00099H28.8158c1.01991,0,2.00625-.35666,2.78387-1.00811,.1039-.08407,.20025-.17239,.29661-.26875,.37698-.37656,.67652-.80926,.89193-1.28638l.02835-.06806c.2362-.54276,.35617-1.12285,.35617-1.72522V4.35695c0-.28345-.02737-.56922-.08128-.84704ZM2.25621,2.78052c.06163-.09021,.14028-.18279,.24066-.28389,.49816-.49793,1.15884-.77191,1.85988-.77191H28.8158c.70718,0,1.36804,.27448,1.86073,.77287,.08506,.08596,.1663,.18141,.23719,.27678l.18706,.25136-13.05528,11.37827c-.40248,.35282-.9207,.54701-1.45926,.54701-.5333,0-1.05106-.1937-1.45828-.5466L2.08563,3.02903l.17058-.24851Zm-.52273,18.90646c-.00708-.04678-.00871-.09874-.00871-.15166V4.71268L11.85609,13.55083,1.82704,22.295l-.09356-.60802Zm28.38754,2.1334c-.39209,.22622-.8437,.34624-1.30522,.34624H4.35674c-.46177,0-.91316-.12002-1.30504-.34624l-.41002-.23763L13.00402,14.55233l1.13567,.98777c.68118,.59143,1.54994,.91743,2.44654,.91743,.89997,0,1.7701-.326,2.45082-.91743l1.13521-.98826,10.35884,9.03135-.41008,.23719Zm1.32649-2.28506c0,.05201-.00096,.10348-.00754,.1493l-.08978,.61367-10.03333-8.74278L31.44751,4.71693V21.53532Z"/></g></svg>