<?xml version="1.0" encoding="UTF-8"?><svg id="_レイヤー_2" xmlns="http://www.w3.org/2000/svg" viewBox="0 0 169.5541 898.48974"><defs><style>.cls-1{fill:#fff;}.cls-2{stroke:#fff;stroke-linejoin:round;stroke-width:31.28894px;}.cls-2,.cls-3{fill:none;stroke-linecap:round;}.cls-4{fill:#f08300;}.cls-3{stroke:#c8c9ca;stroke-miterlimit:10;stroke-width:12.51558px;}</style></defs><g id="text"><g><g><path class="cls-4" d="M169.5541,801.46325c0,40.08635-32.49516,72.57829-72.57972,72.57829-40.08097,0-72.5747-32.49194-72.5747-72.57829,0-40.07918,32.49373-72.57291,72.5747-72.57291,40.08456,0,72.57972,32.49373,72.57972,72.57291Z"/><path class="cls-3" d="M96.97599,710.7952c-11.17938,0-21.88298,2.0361-31.77057,5.73005-34.43159,12.87595-58.94763,46.0663-58.94763,84.98671,0,50.10516,40.61483,90.71999,90.7182,90.71999"/><g><path class="cls-1" d="M43.18314,813.28386l.17188,1.41162c-.65381,.22363-1.3252,.44727-1.96191,.6709v4.66455c0,1.51465-.55078,1.84131-3.1499,1.80713-.05127-.41309-.2583-1.06738-.46436-1.49707,.43018,.0166,.86035,.03418,1.1875,.03418,.74023,0,.82617,0,.82617-.34424v-4.14795c-.68848,.22363-1.30811,.43018-1.82471,.58496-.01709,.15527-.12061,.2583-.2583,.30957l-.55078-1.87598c.72314-.17188,1.63525-.41309,2.63379-.68848v-3.61426h-2.39258v-1.51465h2.39258v-3.33887l1.99658,.10303c-.01709,.15479-.12061,.2583-.396,.29248v2.94336h1.85889v1.51465h-1.85889v3.18457l1.79004-.49951Zm2.46143-2.71924c0,.63672,.20654,.74023,1.34229,.74023h3.70068c.94678,0,1.10156-.31055,1.20459-2.11719,.36182,.25781,1.0332,.49902,1.49756,.60254-.22363,2.375-.73975,2.97754-2.59912,2.97754h-3.94141c-2.22021,0-2.80566-.46484-2.80566-2.18652v-4.85352l2.01416,.12061c-.01709,.15479-.1377,.24072-.41309,.27539v2.1001c1.96191-.43066,4.02734-1.0332,5.2666-1.61816l1.32568,1.25684c-.06934,.06836-.15527,.06836-.37891,.06836-1.54883,.60254-3.99316,1.20508-6.21338,1.61816v1.01562Zm-1.34277,11.30762v-7.83105h8.021v7.71094h-1.61816v-.63672h-4.85352v.75684h-1.54932Zm6.40283-6.4541h-4.85352v1.48047h4.85352v-1.48047Zm-4.85352,4.32031h4.85352v-1.51465h-4.85352v1.51465Z"/><path class="cls-1" d="M63.38724,816.70915v3.14941c.75684,.12109,1.60059,.17236,2.47852,.17236,.75684,0,3.7002,0,4.69873-.03467-.2583,.37891-.53369,1.1709-.60254,1.65234h-4.18262c-3.45947,0-5.98975-.58496-7.59033-3.35645-.58496,1.49805-1.41113,2.75391-2.5127,3.63184-.27539-.29199-.87793-.80859-1.25684-1.06689,1.85889-1.32568,2.78857-3.90674,3.1499-7.00537l1.99658,.30957c-.03418,.15527-.17188,.24121-.396,.24121-.08594,.63672-.20654,1.25684-.34424,1.85938,.61963,1.66895,1.60059,2.61621,2.87451,3.14941v-6.81592h-3.9585v-1.56592h9.65576v1.56592h-4.01025v2.58154h5.0083v1.53223h-5.0083Zm-6.48926-7.45312v2.47852h-1.60059v-4.02734h6.36816v-1.99658l2.15186,.12061c-.01709,.15479-.12061,.25781-.41309,.29248v1.5835h6.41992v4.02734h-1.66943v-2.47852h-11.25684Z"/><path class="cls-1" d="M77.84232,806.53679c-.03467,.20654-.18945,.34424-.53369,.37842-.1377,2.16895-.31006,6.4375-.31006,8.96777,0,2.39258,1.1875,3.51074,3.18457,3.51074,1.89307,0,3.90674-.94629,5.86914-3.0459,.20654,.37842,.75732,1.22168,1.01562,1.49707-2.08301,2.2207-4.42383,3.32227-6.90234,3.32227-3.49414,0-5.02588-1.9624-5.02588-5.28418,0-2.2373,.1377-7.40137,.27539-9.50098l2.42725,.15479Z"/><path class="cls-1" d="M99.62943,809.9279c-1.37695,.46436-3.21875,.77441-4.99121,.91211-.68848,3.76953-1.75586,7.67627-3.04688,10.55078l-1.75537-.62012c1.37695-2.75391,2.39209-6.16113,3.0293-9.84473-.2583,.01709-.53369,.01709-.7749,.01709-.82617,0-1.61768,0-2.22021-.01709l-.01709-1.63525c.55078,.03467,1.4458,.03467,2.27197,.03467,.31006,0,.63672,0,.98096-.01758,.1377-1.03223,.27539-2.2373,.37891-3.27051l2.32324,.22412c-.03418,.18896-.25781,.34424-.49902,.37842-.10303,.68848-.24072,1.61816-.39551,2.51318,1.53174-.15479,3.08057-.43018,4.37158-.9126l.34424,1.6875Zm4.56104,11.16992c-.51611,.03467-1.06689,.05176-1.63525,.05176-1.44531,0-2.92578-.12012-3.88965-.36133-1.37695-.34424-2.09961-1.30811-2.08252-2.47852,0-.98145,.53369-1.89355,1.08447-2.53027l1.44531,.56836c-.56787,.61914-.84326,1.22168-.84326,1.7041,0,1.2041,1.29102,1.42822,3.90723,1.42822,.68848,0,1.39404-.01709,2.04834-.08643l-.03467,1.7041Zm-6.59229-8.48535c1.73877-.55078,4.18262-.89453,6.19629-.86035v1.63477c-1.89307-.06836-4.0791,.18945-5.81738,.68848l-.37891-1.46289Z"/><path class="cls-1" d="M108.37016,812.56071c-.56787,.86084-1.17041,1.65234-1.77295,2.34082-.15479-.39551-.56787-1.22168-.7915-1.61768,1.56592-1.68701,3.1499-4.57861,4.11377-7.45264l1.8584,.63672c-.06836,.1377-.20605,.18945-.44727,.18945-.43018,1.15332-.94678,2.30664-1.51465,3.4082l.53369,.1543c-.01709,.1377-.1377,.22363-.37891,.25879v11.41113h-1.60059v-9.3291Zm9.19092,7.16016h4.7334v1.56641h-11.27344v-1.56641h4.8877v-3.97559h-3.87256v-1.54883h3.87256v-3.47754h-4.45752v-1.56592h5.54199c-.87744-.73975-2.2373-1.65234-3.32178-2.28955l1.08448-1.15283c1.29052,.70557,3.0293,1.80713,3.88965,2.58154l-.75732,.86084h4.14844v1.56592h-4.47559v3.47754h3.95898v1.54883h-3.95898v3.97559Z"/><path class="cls-1" d="M130.81156,815.41813h-4.95703c-.06885,2.13428-.41309,4.69922-1.54932,6.47168-.25781-.29297-.9292-.80859-1.27344-.99805,1.1875-1.87598,1.29102-4.56152,1.29102-6.55762v-4.5791h6.48877v5.66309Zm.49902-8.79492v1.49707h-7.81396v-1.49707h7.81396Zm-2.06543,4.59521h-3.37354v2.73682h3.37354v-2.73682Zm10.36182,.44775v1.58301h-1.8418v8.62305h-1.61816v-8.62305h-2.58154c-.10303,2.70215-.68848,6.12793-3.04639,8.57178-.22363-.34424-.80908-.9126-1.20508-1.11865,2.40967-2.49609,2.66797-5.9209,2.66797-8.53711v-4.66455l1.0498,.2583c1.80762-.48242,3.70068-1.15332,4.83691-1.80762l1.53174,1.30859c-.06885,.06836-.17236,.06836-.41309,.06836-1.34277,.63672-3.44238,1.29102-5.40479,1.75586v2.58203h6.02441Z"/><path class="cls-1" d="M141.39408,807.94841c.51611,0,1.25635-.01758,1.73828-.05176,1.75586-.1377,9.81055-.67139,12.39258-.74023l.01709,1.82422c-1.41113-.05176-2.32373,.05176-3.64893,.94727-2.22021,1.41113-4.62988,3.97559-4.62988,6.05859,0,2.16797,1.7041,3.44238,5.71436,3.92383l-.82617,1.7041c-4.90527-.63672-6.76416-2.59863-6.76416-5.61133,0-2.25488,2.15137-5.09473,4.99121-6.9707-2.01367,.15527-6.52344,.49902-8.39941,.68848-.05176,.12061-.25781,.24121-.41309,.27539l-.17188-2.04785Zm11.34277,3.76953c.77441,.60205,1.7207,1.61719,2.20312,2.35742l-.84375,.6543c-.43018-.68848-1.46289-1.82422-2.13428-2.3584l.7749-.65332Zm1.94482-1.53223c.80908,.63672,1.73828,1.5835,2.20312,2.34082l-.82617,.6709c-.43018-.65332-1.39404-1.75488-2.15186-2.35742l.7749-.6543Z"/><path class="cls-1" d="M64.35111,833.53239c-.87793,.27539-1.94531,.48145-3.1499,.63672-.01709,.94629-.01709,1.94434-.01709,2.80566,1.25635-.41309,2.58154-.68848,3.58008-.68848,2.85693,0,4.87061,1.51465,4.87061,4.11328,0,2.40967-1.39404,4.18262-4.2168,4.18262-1.22217,0-2.35791-.43066-3.2876-1.56641,.31006-.37891,.61963-.89502,.86084-1.29102,.73975,.91211,1.56592,1.27344,2.46143,1.27344,1.60059,0,2.44385-1.13574,2.44385-2.59863,0-1.51465-1.11865-2.63379-3.16699-2.63379-1.03271,0-2.32373,.27539-3.54541,.68848,0,1.30859,.01709,3.16699,.01709,3.61523,0,1.54883-1.01562,2.83984-2.94336,2.83984-1.51465,0-3.04639-.89551-3.04639-2.78857,0-1.13623,.7915-2.35791,2.11719-3.30469,.61914-.46436,1.39404-.87744,2.22021-1.23926v-3.27002c-1.18799,.08594-2.51318,.10303-3.95898,.10303l-.01709-1.65234c1.46289,.01709,2.78809,0,3.97607-.06885v-3.08105l2.25439,.08594c-.01709,.20703-.18896,.36133-.46436,.39648-.05176,.65332-.06885,1.56592-.08643,2.42676,1.05029-.1377,2.01416-.34473,2.85742-.67188l.24121,1.6875Zm-4.80225,5.61035c-.53369,.25879-2.771,1.39453-2.771,2.92676,0,.79102,.48145,1.37695,1.44531,1.37695,.7749,0,1.34277-.49951,1.34277-1.46338,0-.43018,0-1.65234-.01709-2.84033Zm9.72461-3.75195c-.91211-.87793-2.51318-1.80713-3.90723-2.39258l.84326-1.41113c1.49756,.56836,3.09863,1.51465,4.0625,2.3584l-.99854,1.44531Z"/><path class="cls-1" d="M84.15873,837.28434l1.22217,.68848c-.06885,.10352-.17236,.18945-.27539,.22363-.84326,1.7041-2.06543,3.04688-3.58008,4.11328,1.77295,.72363,3.87256,1.20508,6.1792,1.46338-.36133,.396-.80908,1.11865-1.03271,1.60107-2.61621-.36182-4.92285-1.01562-6.86768-2.03125-1.92773,.98096-4.18262,1.61816-6.5752,2.01367-.17188-.41309-.65381-1.15332-.99805-1.51465,2.16895-.27539,4.19971-.75732,5.95508-1.49707-1.20459-.84375-2.2373-1.87646-3.04639-3.08105l1.18799-.48242h-1.77295v-1.44531h9.29443l.30957-.05176Zm-10.36133-1.63525v2.42725h-1.53223v-3.87305h2.59912c-.22363-.58496-.58496-1.34277-.94678-1.91016l1.42871-.41309c.46484,.6709,.94678,1.58301,1.13623,2.18555l-.44775,.1377h3.13281c-.1377-.63672-.43066-1.54883-.75732-2.2373l1.46289-.32715c.37842,.74023,.75732,1.73828,.87793,2.35791l-.80908,.20654h2.8916c.5166-.82617,1.10156-1.97949,1.4458-2.82275l1.92773,.65381c-.05176,.10352-.20654,.17236-.43018,.17236-.31006,.58545-.77441,1.34229-1.22217,1.99658h2.771v3.87305h-1.60059v-2.42725h-11.92773Zm12.71973-4.9917c-.05176,.03467-.12061,.05176-.20703,.05176-.06836,0-.1377-.01709-.22363-.03418-3.35645,.6543-8.72656,1.08398-13.2876,1.23926-.01709-.41309-.20654-1.0332-.36133-1.39453,4.52686-.17188,9.82812-.60254,12.8916-1.23926l1.18799,1.37695Zm-9.81104,8.12402c.75732,1.08496,1.8418,1.99707,3.1499,2.7373,1.22168-.72363,2.22021-1.63574,2.94336-2.7373h-6.09326Z"/><path class="cls-1" d="M92.91654,830.67497c-.01709,.17188-.22363,.29248-.44727,.32715-.48193,2.06543-.91211,5.11133-.91211,6.8501,0,.96387,.03418,1.85889,.1377,2.56494,.32715-.70605,1.03271-2.11719,1.53174-3.0127l1.03271,1.23926c-.49902,.80957-1.46289,2.41016-1.80713,3.30469-.10352,.27539-.17236,.49902-.17236,.77441,0,.20703,.03467,.43066,.10352,.68848l-1.68701,.31055c-.44727-1.37695-.7915-3.39111-.7915-5.81836,0-2.27148,.36133-5.21484,.7915-7.55566l2.22021,.32715Zm2.23779,3.71777c1.13623,0,3.16699-.03418,4.3374-.12061-.10352-1.99658-.22363-4.16553-.27539-4.59521l2.32373,.06836c-.01709,.18945-.18945,.37891-.48193,.44727,.01709,.86133,.08594,2.51367,.1377,3.97656,1.06689-.10352,2.28906-.25879,3.16699-.5166l.1377,1.7041c-.87793,.17188-2.01367,.34375-3.23584,.43018l.01709,1.18799c0,3.68262-.86036,6.36816-4.11377,8.07227-.22363-.27539-.96387-.92969-1.34229-1.1875,3.06348-1.51465,3.71777-3.68359,3.71777-6.60938,0-.22412,0-1.15332-.01758-1.39453-1.08398,.08594-2.90869,.12012-4.3545,.12012l-.01709-1.58301Z"/><path class="cls-1" d="M115.11723,831.50114h-1.47998v13.82129h-1.60107v-3.30469c-1.91064,.36133-3.80371,.68848-5.07764,.89453-.01709,.1377-.1377,.24121-.25781,.27539l-.60254-1.82422,1.48047-.18945v-9.67285h-1.41162v-1.51465h8.9502v1.51465Zm-3.08105,2.08252v-2.08252h-2.90869v2.08252h2.90869Zm0,3.58008v-2.1167h-2.90869v2.1167h2.90869Zm-2.90869,1.46338v2.34082c.92969-.12109,1.91064-.25879,2.90869-.39648v-1.94434h-2.90869Zm11.65234-7.07422l.99854,.34375c-.03467,.10352-.10352,.20703-.17236,.27539-.41309,3.47705-1.27344,6.2998-2.56445,8.55469,.89502,1.39404,2.01367,2.5127,3.37354,3.27051-.36133,.30957-.89502,.91211-1.15332,1.3418-1.27344-.79102-2.32373-1.84131-3.18408-3.11523-.96387,1.27393-2.06543,2.30664-3.33887,3.11523-.24121-.41309-.72314-1.03223-1.08447-1.3252,1.3252-.75684,2.5127-1.89307,3.47656-3.39062-.99805-1.97949-1.70361-4.37207-2.20312-7.02246l1.46338-.27539c.37842,2.04834,.9292,3.97607,1.68652,5.64551,.80908-1.65234,1.41113-3.58008,1.75586-5.76562h-5.31885v-1.58398h5.98975l.27539-.06836Z"/><path class="cls-1" d="M126.85307,839.41813c-.32715-1.06641-.46484-2.5127-.46484-3.49365,0-1.4458,.15479-3.32178,.5332-5.45654l2.22071,.32715c-.05176,.22363-.2583,.27539-.46484,.31006-.32715,1.35986-.60254,3.51123-.60254,4.78467,0,.24121,.01758,.44775,.03467,.60254,.34424-.79199,.94678-1.87598,1.3252-2.49561,.18945,.31006,.60254,.84326,.82617,1.08447-.99854,1.58301-1.75537,2.87402-1.75537,3.59717,0,.1377,.01709,.29248,.05127,.46436l-1.70361,.27539Zm9.58691-9.39746c-.01758,.20703-.15527,.32715-.44775,.396,.1377,1.42822,.29248,3.8208,.29248,5.90381,0,3.33887-1.13574,6.40234-6.47168,8.60547-.25781-.36133-.86035-1.0498-1.22168-1.37695,4.71582-1.80664,5.83496-4.6123,5.83496-7.19434,0-2.25488-.22412-4.71582-.41309-6.4375l2.42676,.10352Z"/></g><g><path class="cls-1" d="M78.97318,776.30974c-1.46973-1.4502-2.20508-3.45898-2.20508-6.02832v-13.12793c0-2.59473,.73828-4.61084,2.21484-6.04785,1.47607-1.43652,3.61768-2.15479,6.4248-2.15479,2.82031,0,4.96533,.71533,6.43506,2.14502s2.20459,3.44922,2.20459,6.05762v13.12793c0,2.5957-.73828,4.61133-2.21436,6.04785-1.47656,1.43701-3.61816,2.15527-6.42529,2.15527-2.82031,0-4.96484-.7251-6.43457-2.1748Zm8.85742-4.19092c.5166-.74756,.7749-1.82373,.7749-3.22705v-10.34766c0-1.40332-.2583-2.47949-.7749-3.22754-.51611-.74805-1.32422-1.12207-2.42285-1.12207-1.09912,0-1.90625,.37402-2.42285,1.12207s-.77441,1.82422-.77441,3.22754v10.34766c0,1.40332,.25781,2.47949,.77441,3.22705,.5166,.74854,1.32373,1.12256,2.42285,1.12256,1.09863,0,1.90674-.37402,2.42285-1.12256Z"/><path class="cls-1" d="M98.814,768.75212l8.89795-19.42383h6.15674l-8.65918,19.18555h12.96924v5.24365h-19.36475v-5.00537Zm11.65869-7.54688h5.44189v17.00098h-5.44189v-17.00098Z"/></g><rect class="cls-1" x="76.28307" y="786.02943" width="41.38764" height="2.12812"/></g><g><path class="cls-4" d="M169.5541,566.69908c0,40.08635-32.49516,72.57829-72.57972,72.57829-40.08097,0-72.5747-32.49194-72.5747-72.57829,0-40.07918,32.49373-72.57291,72.5747-72.57291,40.08456,0,72.57972,32.49373,72.57972,72.57291Z"/><g><g><path class="cls-2" d="M96.97599,476.03102c-11.17938,0-21.88298,2.0361-31.77057,5.73005-34.43159,12.87595-58.94763,46.0663-58.94763,84.98671,0,50.10516,40.61483,90.71999,90.7182,90.71999v42.42505"/><polyline class="cls-2" points="124.76757 678.09374 96.98137 705.87314 69.19695 678.09374"/></g><g><path class="cls-3" d="M96.97599,476.03102c-11.17938,0-21.88298,2.0361-31.77057,5.73005-34.43159,12.87595-58.94763,46.0663-58.94763,84.98671,0,50.10516,40.61483,90.71999,90.7182,90.71999v42.42505"/><polyline class="cls-3" points="124.76757 678.09374 96.98137 705.87314 69.19695 678.09374"/></g></g><g><path class="cls-1" d="M43.02982,574.90544c-.05176,.12012-.20654,.22363-.31006,.29199-1.87598,5.59424-4.62988,9.08789-9.34619,11.46387-.27539-.39648-.77441-.96387-1.25635-1.32568,4.40625-2.1001,7.05713-5.31885,8.39941-9.51807h-5.57666c-.9292,1.42871-2.28906,2.94336-3.75195,4.09668-.32715-.32715-.92969-.82617-1.39453-1.10156,2.28955-1.77344,4.33789-4.44141,5.45654-7.38428l2.18604,.55078c-.05176,.17236-.27539,.2583-.5166,.2583-.30957,.68848-.67139,1.34277-1.01562,1.96191h5.47363l.25781-.10352,1.39453,.80957Z"/><path class="cls-1" d="M50.96146,584.04509c4.02734-1.15332,7.3667-3.30469,9.3291-6.73047,.30957,.39648,.91211,.94727,1.25635,1.22266-2.27197,3.76904-6.21338,6.19629-11.32568,7.52148-.03418,.1543-.15479,.32715-.30957,.37842l-.98145-1.61768,.24121-.36133v-12.42773l2.30664,.12109c-.01758,.18945-.17236,.34375-.5166,.39551v11.49805Z"/><path class="cls-1" d="M64.69389,576.40251c1.54883,.37891,3.39062,1.01562,4.52637,1.56641l-.74023,1.49707c-1.11865-.55078-3.01172-1.23926-4.50928-1.63477l.72314-1.42871Zm.75684,8.22754c5.3877-1.75586,9.27734-4.66455,11.58398-9.77637,.34424,.30957,1.11865,.87793,1.47998,1.10156-2.30615,4.99121-6.47168,8.26172-11.51465,10,.03467,.15527-.05176,.36133-.24072,.44727l-1.30859-1.77246Zm1.23926-12.47852c1.54932,.44727,3.33936,1.10156,4.50977,1.68652l-.80908,1.46289c-1.22217-.6543-2.90869-1.3252-4.45752-1.77246l.75684-1.37695Zm7.93506-.56836c.70557,.62012,1.61768,1.66992,2.13428,2.46143l-.87793,.63721c-.44727-.68848-1.41113-1.87646-2.06543-2.46191l.80908-.63672Zm2.5127-.99805c.70557,.61914,1.61816,1.66943,2.13428,2.42676l-.87793,.63672c-.44727-.70557-1.39404-1.82422-2.04785-2.42676l.7915-.63672Z"/><path class="cls-1" d="M83.91654,576.05876c.48193,1.0498,1.03271,2.66748,1.25635,3.68262l-1.34229,.37891c-.20703-1.0498-.70605-2.58203-1.22217-3.66602l1.30811-.39551Zm10.1377,.29199c-.05176,.12109-.20654,.18945-.396,.18945-1.37695,5.04297-3.97607,8.08984-8.02051,9.72461-.18945-.29199-.63721-.82617-.92969-1.10156,3.87256-1.47998,6.35107-4.26855,7.55615-9.37988l1.79004,.56738Zm-5.98975-1.0498c.36133,1.10156,.68848,2.75391,.80908,3.83838l-1.39453,.29248c-.1377-1.11865-.46436-2.70215-.82617-3.83789l1.41162-.29297Z"/><path class="cls-1" d="M110.41996,580.91227c-1.5835-.89551-3.90723-1.99707-5.69727-2.70215v8.33008h-1.80713v-15.06055l2.30615,.1377c-.01709,.18945-.17188,.32715-.49902,.39648v4.92236l.34424-.48193c1.96191,.72266,4.57812,1.87598,6.31689,2.78809l-.96387,1.66992Z"/><path class="cls-1" d="M129.33256,575.50798c-.03418,.08594-.08594,.18896-.17188,.24023-.2583,5.1123-.75732,8.22754-1.41113,9.36328-.56836,.94727-1.42871,1.32568-2.39258,1.32568-.72314,0-1.87598-.1377-3.08105-.37842,.01709-.46484-.03418-1.23926-.10352-1.72168,1.1709,.25879,2.44434,.41309,2.85742,.41309,.56787,0,.92969-.1543,1.22217-.75684,.46436-.89551,.87744-3.63184,1.03271-7.17773h-4.83691c-.82617,3.80371-2.39209,7.17773-5.5249,9.65625-.30957-.31006-.94678-.79199-1.39404-1.0498,2.90869-2.2207,4.37207-5.18115,5.11182-8.62354h-4.4751v-1.60107h4.78516c.18945-1.2041,.25781-2.21973,.34424-3.61426l2.28906,.20703c-.03467,.18896-.18945,.29199-.48193,.34375-.10352,1.1709-.17188,2.03125-.34424,3.06348h4.9917l.32666-.12012,1.25635,.43066Z"/><path class="cls-1" d="M132.70365,577.90007h14.37158v1.72119h-13.68311c-.10352,.17188-.32715,.29297-.55078,.30957l-.1377-2.03076Z"/><path class="cls-1" d="M162.04691,580.94645c-1.5835-.89453-3.90723-1.97949-5.69727-2.68457v8.27832h-1.80713v-15.06055l2.30615,.1377c-.01709,.18945-.17188,.32715-.49902,.39648v4.95703l.34424-.48242c1.96191,.72314,4.57812,1.87598,6.31689,2.80566l-.96387,1.65234Zm-1.5835-8.39941c.72266,.58496,1.7041,1.65234,2.25488,2.42676l-.82617,.70605c-.46484-.70605-1.49756-1.8418-2.20312-2.44434l.77441-.68848Zm2.34082-1.51465c.75732,.6543,1.75537,1.65234,2.25488,2.41016l-.82617,.6709c-.48242-.6709-1.49756-1.79004-2.2207-2.40967l.79199-.67139Z"/><path class="cls-1" d="M72.55766,596.65056c.5166,0,1.25635-.0166,1.73877-.05176,1.75537-.1377,9.81055-.6709,12.39258-.73975l.01709,1.82471c-1.41162-.05176-2.32373,.05176-3.64893,.94629-2.2207,1.41113-4.62988,3.97607-4.62988,6.05859,0,2.16895,1.70361,3.44238,5.71387,3.9248l-.82617,1.70361c-4.90527-.63721-6.76416-2.59912-6.76416-5.61084,0-2.25488,2.15186-5.09473,4.9917-6.9707-2.01367,.1543-6.52344,.49902-8.39941,.68848-.05176,.12012-.2583,.24023-.41309,.27539l-.17236-2.04883Zm11.34277,3.76953c.77441,.60254,1.72119,1.61816,2.20312,2.3584l-.84326,.65381c-.43066-.68848-1.46289-1.82471-2.13428-2.35791l.77441-.6543Zm1.94482-1.53174c.80908,.63721,1.73828,1.5835,2.20312,2.34082l-.82617,.67139c-.43018-.6543-1.39404-1.75586-2.15137-2.3584l.77441-.65381Z"/><path class="cls-1" d="M89.76664,599.25017c1.08447,.41309,2.51318,1.13574,3.21875,1.70361l-.94678,1.37695c-.6709-.60205-2.04785-1.37695-3.16699-1.85889l.89502-1.22168Zm-.396,10.03418c.86084-1.34277,2.1001-3.59766,3.0293-5.61133l1.23926,1.0332c-.82617,1.8418-1.87598,3.87207-2.66748,5.21484,.06885,.08594,.10303,.18945,.10303,.27539s-.03418,.17188-.08594,.24121l-1.61816-1.15332Zm1.35986-14.71582c1.08447,.44727,2.46143,1.2041,3.1499,1.80664l-.94678,1.3252c-.63672-.61914-1.99658-1.44531-3.09814-1.94434l.89502-1.1875Zm14.30322,9.46582h-4.52686c.84326,2.37598,2.42725,4.23438,4.71631,5.12988-.37891,.32666-.87793,.98047-1.13623,1.42822-2.46143-1.11865-4.0791-3.21826-5.04297-6.00732-.55078,2.30664-1.85889,4.44141-4.87109,6.02441-.29248-.34375-.91211-.91211-1.3252-1.16992,2.87451-1.46338,4.11377-3.35645,4.62988-5.40527h-3.78662v-1.53125h4.04492c.06885-.68848,.08594-1.37695,.08594-2.06543v-1.61816h-3.13232v-1.54883h3.13232v-2.80566l2.01367,.12012c-.01709,.15527-.12012,.24121-.39551,.27539v2.41016h4.09619v5.23242h1.49756v1.53125Zm-5.59375-5.21484v1.63477c0,.68848-.01758,1.36035-.06885,2.04883h2.56445v-3.68359h-2.49561Z"/><path class="cls-1" d="M106.97562,599.25017c1.08447,.41309,2.51318,1.13574,3.21875,1.70361l-.94678,1.37695c-.6709-.60205-2.04785-1.37695-3.16699-1.85889l.89502-1.22168Zm-.37842,10.03418c.87793-1.34277,2.15137-3.59766,3.09814-5.61133l1.23926,1.0332c-.84326,1.8418-1.91064,3.87207-2.73682,5.21484,.06885,.08594,.10352,.18945,.10352,.27539s-.03467,.17188-.08643,.24121l-1.61768-1.15332Zm1.34229-14.71582c1.08447,.44727,2.46143,1.2041,3.1499,1.80664l-.94678,1.3252c-.63672-.61914-1.99658-1.44531-3.09814-1.94434l.89502-1.1875Zm11.92822,3.09766l.73975,.22363c-.06885,.17236-.22363,.20703-.41309,.18945-.51611,.86035-1.20459,1.60059-2.03076,2.2207,1.29102,.51611,2.75391,.84277,4.35449,1.11816-.36133,.36182-.74023,.98145-.91211,1.49805l-.55078-.12109c-.03467,.12109-.15527,.22412-.41309,.25879v7.52148h-1.60059v-2.97754h-5.30176c-.36133,1.08398-.99805,2.15137-2.09961,2.97754-.29248-.27539-.89502-.68848-1.29102-.91211,1.97949-1.42871,2.23779-3.58008,2.23779-5.02637v-1.91016c-.41309,.10352-.82617,.18945-1.25635,.27539-.15527-.37891-.5166-1.0498-.7749-1.37695,1.65234-.27539,3.23584-.67139,4.57861-1.27344-.86084-.6543-1.65234-1.44629-2.3584-2.46191l.56836-.22363h-2.08301v-1.46289h4.45801v-1.75586l2.08301,.1377c-.01758,.1377-.12061,.24121-.396,.27539v1.34277h4.81934v1.46289h-2.35791Zm-.82617,4.99121l1.91016,.12109v-.01758c-1.60059-.36133-3.0293-.80859-4.3374-1.48047-1.10156,.56836-2.34082,1.01562-3.66602,1.36035l1.60059,.10303c-.01709,.15479-.1377,.24072-.396,.27539v.56787h4.88867v-.92969Zm-4.88867,2.28955c-.01709,.396-.03418,.82617-.10303,1.27393h4.9917v-1.27393h-4.88867Zm.2583-7.28076c.67139,.77441,1.41162,1.39453,2.22021,1.87598,.79199-.51611,1.44629-1.13574,1.91064-1.87598h-4.13086Z"/></g><g><path class="cls-1" d="M79.78764,541.54509c-1.46973-1.44922-2.20508-3.45898-2.20508-6.02734v-13.12842c0-2.59521,.73828-4.61084,2.21484-6.04736,1.47607-1.43652,3.61768-2.15527,6.4248-2.15527,2.82031,0,4.96533,.71484,6.43506,2.14502s2.20459,3.44922,2.20459,6.05762v13.12842c0,2.59521-.73828,4.61133-2.21436,6.04785-1.47656,1.43652-3.61816,2.1543-6.42529,2.1543-2.82031,0-4.96484-.72461-6.43457-2.1748Zm8.85742-4.19043c.5166-.74805,.7749-1.82373,.7749-3.22754v-10.34766c0-1.40332-.2583-2.479-.7749-3.22754-.51611-.74756-1.32422-1.12207-2.42285-1.12207-1.09912,0-1.90625,.37451-2.42285,1.12207-.5166,.74854-.77441,1.82422-.77441,3.22754v10.34766c0,1.40381,.25781,2.47949,.77441,3.22754s1.32373,1.12207,2.42285,1.12207c1.09863,0,1.90674-.37402,2.42285-1.12207Z"/><path class="cls-1" d="M103.4224,542.76677c-1.36426-.63574-2.4502-1.56201-3.25781-2.78027s-1.25098-2.66797-1.33008-4.34961h5.62012c.07959,.5957,.25488,1.10205,.52637,1.51953,.27148,.41699,.61914,.73438,1.04297,.95312,.42383,.21826,.91357,.32764,1.46973,.32764,1.03271,0,1.83008-.28809,2.39355-.86377,.5625-.57617,.84375-1.38721,.84375-2.43311v-.67529c0-1.09863-.22852-1.94629-.68555-2.54199-.45654-.59619-1.10889-.89404-1.95605-.89404h-2.44287v-5.24365h2.44287c.68848,0,1.22168-.26074,1.59863-.78418,.37793-.52295,.56641-1.25439,.56641-2.19482v-.49658c0-.88672-.20898-1.57227-.62598-2.05566-.41699-.48291-1.00293-.72461-1.75781-.72461-.48975,0-.93652,.12598-1.34033,.37695-.40381,.25195-.74463,.61621-1.02295,1.09277-.27783,.47656-.47656,1.05273-.5957,1.72754h-5.60059c.15869-1.76074,.63184-3.28027,1.41992-4.55762,.7876-1.27783,1.81738-2.25098,3.08838-2.91992,1.271-.66846,2.68799-1.00293,4.25049-1.00293,2.55469,0,4.53125,.65234,5.92822,1.95605,1.39697,1.30469,2.09521,3.15527,2.09521,5.55176v.87354c0,1.3374-.3374,2.50244-1.0127,3.49561s-1.63574,1.73486-2.87988,2.22461c1.39062,.31738,2.46582,1.0459,3.22754,2.18457,.76123,1.13867,1.1416,2.58887,1.1416,4.34961v.87402c0,1.68164-.33105,3.11816-.99268,4.30957-.6626,1.19189-1.62842,2.09863-2.8999,2.72119-1.271,.62256-2.80029,.93311-4.58789,.93311-1.74805,0-3.30371-.31738-4.66699-.95312Z"/></g><rect class="cls-1" x="76.28307" y="551.26525" width="41.38764" height="2.12812"/></g><g><path class="cls-4" d="M169.5541,331.69002c0,40.08635-32.49516,72.57829-72.57972,72.57829-40.08097,0-72.5747-32.49194-72.5747-72.57829,0-40.07918,32.49373-72.57291,72.5747-72.57291,40.08456,0,72.57972,32.49373,72.57972,72.57291Z"/><g><g><path class="cls-2" d="M96.97599,241.02197c-11.17938,0-21.88298,2.0361-31.77057,5.73005-34.43159,12.87595-58.94763,46.0663-58.94763,84.98671,0,50.10516,40.61483,90.71999,90.7182,90.71999v42.42505"/><polyline class="cls-2" points="124.76757 443.08469 96.98137 470.86409 69.19695 443.08469"/></g><g><path class="cls-3" d="M96.97599,241.02197c-11.17938,0-21.88298,2.0361-31.77057,5.73005-34.43159,12.87595-58.94763,46.0663-58.94763,84.98671,0,50.10516,40.61483,90.71999,90.7182,90.71999v42.42505"/><polyline class="cls-3" points="124.76757 443.08469 96.98137 470.86409 69.19695 443.08469"/></g></g><g><path class="cls-1" d="M59.68851,350.41276c-1.42871,.2583-3.4082,.36133-5.18115,.36133-1.47998,0-2.78809-.06885-3.51074-.22363-2.15186-.46484-3.06396-1.87646-3.06396-3.4082,0-1.3252,.70557-2.65039,1.66943-3.64893l1.46289,.68848c-.87744,.87793-1.39404,1.85889-1.39404,2.70215,0,.92969,.60254,1.77295,1.94482,2.06543,.60254,.12061,1.54932,.18945,2.61621,.18945,1.68701,0,3.71777-.15479,5.31885-.48193l.1377,1.75586Zm-8.08984-8.8125c.72314-.56787,1.80713-1.32568,2.59912-1.75586v-.01709c-1.06738,.15479-3.78662,.20654-5.45605,.18945,0-.43066,0-1.27393-.03467-1.66992,1.63525,.03467,5.18115-.03418,6.72998-.1377,1.01562-.06836,2.16895-.18896,3.16699-.39551l.15479,1.77246c-2.15137,.27539-4.62988,1.92773-5.71436,2.80566l-1.4458-.7915Zm7.8833,2.68506c-.43066-.68848-1.49756-1.75586-2.20312-2.27197l.74023-.68848c.7915,.58496,1.75537,1.56592,2.27148,2.27197l-.80859,.68848Zm1.87598-1.72119c-.44727-.63721-1.46289-1.68701-2.20312-2.27197l.74023-.67139c.80859,.60254,1.73828,1.56641,2.2373,2.25488l-.77441,.68848Z"/><path class="cls-1" d="M63.90238,340.77409c1.15332,.37842,2.65088,1.06689,3.40771,1.63525l-.87744,1.37695c-.72314-.56836-2.20312-1.32568-3.37354-1.77295l.84326-1.23926Zm-.15479,10c.94629-1.3252,2.28906-3.56299,3.30469-5.55957l1.20459,1.08447c-.91211,1.80713-2.04834,3.82129-2.92578,5.18066,.06885,.08594,.08594,.17236,.08594,.2583,0,.10303-.03467,.18945-.08594,.2583l-1.5835-1.22217Zm1.27344-14.69873c1.15332,.43018,2.61621,1.20459,3.33936,1.82422l-.96387,1.3252c-.68848-.61963-2.1001-1.4458-3.25342-1.94482l.87793-1.20459Zm9.41504,13.90723h4.81934v1.56592h-11.35986v-1.56592h4.854v-3.76953h-3.61475v-1.56641h3.61475v-3.35645h-4.25146v-1.54883h5.76611c-.87793-.84375-2.44434-1.87598-3.73535-2.56445l1.06738-1.23926c1.41113,.68848,3.20117,1.80713,4.0791,2.66748l-.94678,1.13623h4.14795v1.54883h-4.44043v3.35645h3.78662v1.56641h-3.78662v3.76953Z"/><path class="cls-1" d="M96.30961,340.42985h-3.23584c.7915,.27539,.87793,.30957,.96387,.34424-.06885,.12061-.22363,.20654-.48193,.18896-.94678,2.58203-2.22021,4.68164-3.87256,6.36865,1.8584,1.46289,4.14795,2.53027,6.88477,3.1499-.37891,.37842-.9126,1.13574-1.1709,1.63477-2.85693-.72266-5.19775-1.91016-7.09082-3.52832-1.91064,1.54932-4.23438,2.68506-7.04004,3.52832-.18945-.41309-.63672-1.13574-.96387-1.51465,2.66797-.72266,4.90527-1.77246,6.74707-3.20117-1.72119-1.80713-3.01172-4.04492-3.99316-6.67822l.91211-.29248h-3.44238v-1.5835h7.00537v-2.87451l2.06543,.12061c-.01709,.1377-.12061,.24072-.396,.27539v2.47852h7.10889v1.5835Zm-11.54932,0c.80908,2.2373,2.03125,4.18262,3.63184,5.76562,1.51465-1.53174,2.68506-3.44238,3.51123-5.76562h-7.14307Z"/><path class="cls-1" d="M113.3809,337.77897v1.49756h-3.64893l.60254,.1377c-.06934,.12061-.18945,.18945-.43066,.20654-.20654,.46484-.51611,1.06689-.82617,1.5835h3.45996v9.03613c0,1.66992-.67139,1.87598-3.78711,1.87598-.06836-.46436-.32666-1.15283-.55078-1.58301,.6543,.03418,1.30859,.05127,1.79004,.05127,.9126,0,.98145,0,.98145-.37842v-5.23242c-.24121,.25781-.56836,.34424-1.06738,.34424h-1.72119c-1.39404,0-1.70361-.36182-1.70361-1.60107v-1.10156h-1.92773c-.18945,1.72168-.80908,2.92627-3.49414,3.52881-.12061-.31006-.43066-.79199-.70605-1.06738v7.03955h-1.54883v-10.91211h3.2876c-.17236-.55078-.44775-1.23926-.72314-1.75586l.86084-.17188h-4.37207v-1.49756h6.8335v-1.80713l2.06543,.12061c-.01758,.15479-.12061,.24072-.396,.29248v1.39404h7.02246Zm-13.02979,4.83643v2.39258c1.99707-.39551,2.58203-1.06689,2.77148-2.39258h-2.77148Zm8.70947,7.79736h-5.28418v1.01514h-1.46289v-5.37012h6.74707v4.35498Zm-5.47314-9.2085h3.73486c.27539-.56787,.58496-1.30811,.7915-1.92773h-5.11182c.32715,.60254,.67139,1.34277,.80908,1.87598l-.22363,.05176Zm3.99316,6.09277h-3.8042v1.85938h3.8042v-1.85938Zm2.1167-3.20117c.32715,0,.396-.06885,.44775-.60254,.17188,.1377,.51611,.2583,.82617,.36133v-1.23926h-3.08105v1.10156c0,.32715,.06885,.37891,.48193,.37891h1.3252Z"/><path class="cls-1" d="M115.49467,352.0822v-7.53906h6.45459v7.40137h-1.61768v-.61963h-3.2876v.75732h-1.54932Zm4.83691-5.97266h-3.2876v3.64893h3.2876v-3.64893Zm7.02246-9.55273v6.38574h-9.03613v-6.38574h9.03613Zm-1.66992,4.81934v-3.25293h-5.80029v3.25293h5.80029Zm-2.09961,3.16699h6.64355v7.40137h-1.63477v-.61963h-3.44238v.72314h-1.56641v-7.50488Zm1.56641,5.19824h3.44238v-3.63184h-3.44238v3.63184Z"/><path class="cls-1" d="M147.29935,343.76872c-.03418,.01758-.06836,.01758-.10303,.01758-.10303,0-.20654-.03467-.29248-.08643-1.29102,.396-3.08105,1.01562-4.44092,1.56641,.03467,.37842,.05176,.80908,.05176,1.29102,0,.46436-.01709,.98096-.05176,1.54883l-1.73828,.12061c.06885-.74023,.10303-1.7041,.06885-2.28906-1.61816,.80859-2.8916,1.80713-2.8916,2.65039,0,.86084,1.06738,1.27393,3.21875,1.27393,1.5835,0,3.20117-.06885,4.30273-.20654l.01758,1.60059c-.96387,.10352-2.46143,.1377-4.33789,.1377-3.30469,0-4.87061-.75732-4.87061-2.71973,0-1.44531,1.89307-2.95996,4.38916-4.23389-.08643-.77441-.43066-1.27393-1.0332-1.27393-1.20459,0-2.46094,.6543-3.92383,2.30664-.44775,.49902-1.10156,1.17041-1.85938,1.87598l-1.1875-1.17041c.80908-.72266,1.72119-1.53174,2.27197-2.2373,.75732-.96387,1.54932-2.47852,1.89355-3.71777l-.79199,.01709c-.68848,0-1.91064,0-2.771-.01709v-1.54932c1.01562,.03467,2.2373,.05176,2.96045,.05176l1.0498-.01709c.15479-.74023,.29248-1.46338,.41309-2.37549l2.16895,.24121c-.03467,.17188-.18945,.27539-.41309,.30957-.12061,.61963-.2583,1.1875-.41309,1.75586,1.27344-.03467,3.54541-.31006,5.55908-.98145l.29297,1.63525c-1.89355,.58545-4.38916,.80908-6.2998,.87793-.34424,1.10156-.70557,1.97949-1.03271,2.44385h.01709c.68848-.56787,1.68701-.96387,2.56494-.96387,1.06689,0,1.87598,.75781,2.1167,2.11719,1.39453-.61963,3.09863-1.25635,4.42383-1.77246l.6709,1.77246Z"/><path class="cls-1" d="M72.55814,364.24089c1.08447,.41309,2.51318,1.13574,3.21875,1.70361l-.94678,1.37695c-.67139-.60205-2.04834-1.37695-3.16699-1.8584l.89502-1.22217Zm-.39551,10.03467c.86035-1.34277,2.09961-3.59766,3.0293-5.61133l1.23926,1.03271c-.82617,1.8418-1.87646,3.87256-2.66797,5.21533,.06885,.08594,.10303,.18945,.10303,.27539s-.03418,.17188-.08594,.24072l-1.61768-1.15283Zm1.35938-14.71631c1.08447,.44727,2.46143,1.20459,3.1499,1.80713l-.94678,1.3252c-.63672-.61963-1.99658-1.4458-3.09814-1.94482l.89502-1.1875Zm14.30322,9.46631h-4.52686c.84375,2.37549,2.42676,4.23438,4.71631,5.12939-.37891,.32666-.87793,.98096-1.13623,1.42822-2.46094-1.11865-4.0791-3.21826-5.04297-6.00684-.55078,2.30664-1.85889,4.44092-4.87109,6.02441-.29248-.34424-.91211-.91211-1.3252-1.17041,2.87451-1.46338,4.11377-3.35645,4.62988-5.40479h-3.78662v-1.53174h4.04492c.06885-.68848,.08594-1.37695,.08594-2.06543v-1.61768h-3.13232v-1.54932h3.13232v-2.80566l2.01416,.12061c-.01758,.15479-.12061,.24121-.396,.27539v2.40967h4.09619v5.23242h1.49756v1.53174Zm-5.59375-5.21484v1.63477c0,.68848-.01709,1.35986-.06885,2.04834h2.56445v-3.68311h-2.49561Z"/><path class="cls-1" d="M101.31644,360.35075c-.05176,.17236-.22363,.24121-.44775,.2583-.18896,1.13623-.44727,2.25488-.72266,3.25293,2.75391,.6543,4.38916,2.70264,4.38916,5.45654,0,3.06348-2.20312,5.02539-6.52344,5.67969-.22363-.48193-.51611-1.0498-.7915-1.46289,3.52832-.49902,5.55908-1.82471,5.55908-4.18262,0-1.87598-1.13574-3.39062-3.13232-3.90723-.77441,2.39258-1.79004,4.26855-2.8916,5.61133,.22363,.27539,.46484,.49902,.70557,.72266l-1.1875,1.1875c-.22412-.22363-.44775-.44727-.6543-.70557-1.11865,.96387-2.30615,1.46338-3.45947,1.46338-1.65234,0-2.68506-1.37695-2.68506-3.33936,0-1.54932,.67139-3.80371,2.99463-5.30127-.32666-1.29102-.60205-2.70215-.84326-4.18262l2.13428-.06885c0,.15479-.12012,.34424-.36133,.396,.1377,1.08447,.32715,2.11719,.53369,3.13281,.98096-.48242,2.25439-.79199,3.52832-.82617,.29248-.01758,.67139-.01758,.9292,0,.27539-1.10156,.48242-2.3584,.6543-3.68359l2.27197,.49902Zm-6.62646,10.62012c-.70605-1.15332-1.27393-2.58203-1.77295-4.26855-1.34229,1.03223-1.85889,2.47852-1.85889,3.58008,0,1.08398,.44727,1.84131,1.23926,1.84131,.91211,0,1.72119-.51611,2.39258-1.15283Zm1.08398-1.30859c.86084-1.11865,1.60107-2.61621,2.18604-4.56104-.18896-.01709-.41309-.01709-.58496-.01709-1.13623,.03418-2.16895,.27539-3.08105,.77441,.37842,1.4458,.86084,2.75391,1.47998,3.80371Z"/><path class="cls-1" d="M112.67338,366.80534c1.0498-.49902,2.59912-.7915,3.76953-.7915,2.66797,0,4.44043,1.58301,4.44043,4.19922,0,3.11572-2.71924,4.87109-6.31641,4.87109-2.23779,0-3.78711-.96387-3.78711-2.59863,0-1.32568,1.34277-2.41016,2.94336-2.41016,1.87598,0,3.20166,1.37695,3.47705,2.8916,1.11865-.44727,1.89307-1.41113,1.89307-2.71924,0-1.66943-1.29102-2.73682-3.23584-2.73682-2.46143,0-4.80225,1.06738-5.98975,2.20312-.44727,.43066-1.13574,1.13623-1.5835,1.63525l-1.22217-1.20459c1.35986-1.41162,5.99023-5.81787,8.31348-7.96924-.91211,.12061-4.13086,.27539-5.7832,.34424-.03418,.12012-.22363,.24072-.37842,.27539l-.17236-1.97949c2.27197,0,6.91943-.17188,8.10693-.36133l.2583-.1377,1.1875,1.4458c-.12061,.10303-.29248,.15479-.48193,.18896-1.0498,.80908-4.04492,3.58008-5.43896,4.83691v.01709Zm1.63525,6.78174c.37842,0,.94678-.06934,1.29053-.1377-.15479-1.11914-.99805-1.99707-2.03076-1.99707-.72314,0-1.37695,.396-1.37695,1.0332,0,.87744,1.1875,1.10156,2.11719,1.10156Z"/></g><g><path class="cls-1" d="M80.03617,306.5363c-1.46973-1.44971-2.20459-3.45898-2.20459-6.02783v-13.12842c0-2.59473,.73779-4.61035,2.21436-6.04736,1.47607-1.43652,3.61768-2.15479,6.42529-2.15479,2.82031,0,4.96484,.71484,6.43457,2.14453,1.46973,1.43018,2.20508,3.44922,2.20508,6.05762v13.12842c0,2.59521-.73828,4.61133-2.21484,6.04785-1.47656,1.43701-3.61816,2.15479-6.4248,2.15479-2.82031,0-4.96533-.72461-6.43506-2.1748Zm8.85791-4.19043c.5166-.74805,.77441-1.82422,.77441-3.22754v-10.34766c0-1.40332-.25781-2.47949-.77441-3.22754s-1.32422-1.12207-2.42285-1.12207c-1.09961,0-1.90674,.37402-2.42285,1.12207-.5166,.74805-.7749,1.82422-.7749,3.22754v10.34766c0,1.40332,.2583,2.47949,.7749,3.22754,.51611,.74805,1.32324,1.12207,2.42285,1.12207,1.09863,0,1.90625-.37402,2.42285-1.12207Z"/><path class="cls-1" d="M99.83744,303.50749l9.91113-13.02881c.44971-.58252,.79736-1.18164,1.04248-1.79736,.24463-.61572,.36768-1.18848,.36768-1.71826v-.03955c0-.78076-.25195-1.3833-.75488-1.80713-.50342-.42383-1.21875-.63574-2.14502-.63574-.90088,0-1.62842,.29492-2.18506,.88379-.55566,.58936-.89355,1.42676-1.0127,2.5127v.01953h-5.58105v-.01953c.11914-1.80078,.55273-3.3501,1.30078-4.64746,.74805-1.29785,1.75781-2.2876,3.0293-2.96973,1.271-.68164,2.74072-1.02246,4.40918-1.02246,1.80029,0,3.33984,.29492,4.61719,.88379,1.27832,.58887,2.25098,1.44629,2.91992,2.57178,.66846,1.12549,1.00293,2.48291,1.00293,4.07178v.01953c0,1.31104-.22852,2.61182-.68506,3.90283s-1.09619,2.45947-1.9165,3.50537l-7.11035,8.97754h9.87109v5.24316h-17.08105v-4.90576Z"/></g><rect class="cls-1" x="76.28307" y="316.2562" width="41.38764" height="2.12812"/></g><g><path class="cls-4" d="M169.5541,96.92585c0,40.08635-32.49516,72.57829-72.57972,72.57829-40.08097,0-72.5747-32.49194-72.5747-72.57829,0-40.07918,32.49373-72.57291,72.5747-72.57291,40.08456,0,72.57972,32.49373,72.57972,72.57291Z"/><g><g><path class="cls-2" d="M96.97599,6.25779c-11.17938,0-21.88298,2.0361-31.77057,5.73005C30.77383,24.86379,6.25779,58.05415,6.25779,96.97455c0,50.10516,40.61483,90.71999,90.7182,90.71999v42.42505"/><polyline class="cls-2" points="124.76757 208.32051 96.98137 236.09991 69.19695 208.32051"/></g><g><path class="cls-3" d="M96.97599,6.25779c-11.17938,0-21.88298,2.0361-31.77057,5.73005C30.77383,24.86379,6.25779,58.05415,6.25779,96.97455c0,50.10516,40.61483,90.71999,90.7182,90.71999v42.42505"/><polyline class="cls-3" points="124.76757 208.32051 96.98137 236.09991 69.19695 208.32051"/></g></g><g><path class="cls-1" d="M59.68851,115.6486c-1.42871,.25781-3.4082,.36133-5.18115,.36133-1.47998,0-2.78809-.06885-3.51074-.22363-2.15186-.46484-3.06396-1.87598-3.06396-3.4082,0-1.3252,.70557-2.65039,1.66943-3.64893l1.46289,.68848c-.87744,.87793-1.39404,1.85889-1.39404,2.70264,0,.9292,.60254,1.77246,1.94482,2.06543,.60254,.12012,1.54932,.18896,2.61621,.18896,1.68701,0,3.71777-.15479,5.31885-.48193l.1377,1.75586Zm-8.08984-8.8125c.72314-.56836,1.80713-1.3252,2.59912-1.75586v-.01709c-1.06738,.15479-3.78662,.20654-5.45605,.18945,0-.43018,0-1.27393-.03467-1.66943,1.63525,.03418,5.18115-.03467,6.72998-.1377,1.01562-.06934,2.16895-.18945,3.16699-.396l.15479,1.77295c-2.15137,.27539-4.62988,1.92773-5.71436,2.80518l-1.4458-.7915Zm7.8833,2.68506c-.43066-.68848-1.49756-1.75586-2.20312-2.27197l.74023-.68848c.7915,.58496,1.75537,1.56641,2.27148,2.27197l-.80859,.68848Zm1.87598-1.72119c-.44727-.63672-1.46289-1.68701-2.20312-2.27197l.74023-.67139c.80859,.60254,1.73828,1.56641,2.2373,2.25488l-.77441,.68848Z"/><path class="cls-1" d="M63.90238,106.00993c1.15332,.37842,2.65088,1.06689,3.40771,1.63477l-.87744,1.37695c-.72314-.56787-2.20312-1.3252-3.37354-1.77246l.84326-1.23926Zm-.15479,10c.94629-1.3252,2.28906-3.56299,3.30469-5.55957l1.20459,1.08447c-.91211,1.80713-2.04834,3.8208-2.92578,5.18066,.06885,.08643,.08594,.17236,.08594,.2583,0,.10352-.03467,.18945-.08594,.2583l-1.5835-1.22217Zm1.27344-14.69922c1.15332,.43066,2.61621,1.20508,3.33936,1.82471l-.96387,1.3252c-.68848-.61963-2.1001-1.4458-3.25342-1.94482l.87793-1.20508Zm9.41504,13.90723h4.81934v1.56641h-11.35986v-1.56641h4.854v-3.76904h-3.61475v-1.56641h3.61475v-3.35645h-4.25146v-1.54883h5.76611c-.87793-.84326-2.44434-1.87646-3.73535-2.56494l1.06738-1.23926c1.41113,.68848,3.20117,1.80762,4.0791,2.66797l-.94678,1.13623h4.14795v1.54883h-4.44043v3.35645h3.78662v1.56641h-3.78662v3.76904Z"/><path class="cls-1" d="M96.30961,105.66569h-3.23584c.7915,.27539,.87793,.30957,.96387,.34424-.06885,.12012-.22363,.20654-.48193,.18945-.94678,2.58154-2.22021,4.68164-3.87256,6.36816,1.8584,1.46289,4.14795,2.53027,6.88477,3.1499-.37891,.37842-.9126,1.13574-1.1709,1.63525-2.85693-.72314-5.19775-1.91064-7.09082-3.52881-1.91064,1.54932-4.23438,2.68506-7.04004,3.52881-.18945-.41309-.63672-1.13623-.96387-1.51465,2.66797-.72314,4.90527-1.77295,6.74707-3.20166-1.72119-1.80713-3.01172-4.04492-3.99316-6.67822l.91211-.29248h-3.44238v-1.5835h7.00537v-2.87451l2.06543,.12061c-.01709,.1377-.12061,.24072-.396,.27539v2.47852h7.10889v1.5835Zm-11.54932,0c.80908,2.2373,2.03125,4.18213,3.63184,5.76611,1.51465-1.53223,2.68506-3.44238,3.51123-5.76611h-7.14307Z"/><path class="cls-1" d="M103.6558,101.99919c-.03418,.20703-.18896,.34473-.5332,.37891-.1377,2.16895-.31006,6.4375-.31006,8.96729,0,2.39258,1.18799,3.51123,3.18408,3.51123,1.89355,0,3.90723-.94629,5.86963-3.04639,.20654,.37842,.75732,1.22217,1.01514,1.49756-2.08252,2.22021-4.42334,3.32178-6.90186,3.32178-3.49365,0-5.02588-1.9624-5.02588-5.28418,0-2.2373,.1377-7.40088,.27539-9.50098l2.42676,.15479Z"/><path class="cls-1" d="M125.4434,105.3903c-1.37695,.46436-3.21875,.77441-4.9917,.91211-.68848,3.76953-1.75537,7.67627-3.04639,10.55078l-1.75537-.61963c1.37695-2.75391,2.39258-6.16162,3.0293-9.84521-.2583,.01709-.53369,.01709-.77441,.01709-.82617,0-1.61816,0-2.2207-.01709l-.01709-1.63525c.55078,.03467,1.4458,.03467,2.27197,.03467,.30957,0,.63672,0,.98096-.01709,.1377-1.03271,.27539-2.23779,.37891-3.27051l2.32373,.22363c-.03467,.18945-.2583,.34473-.49951,.37891-.10303,.68848-.24072,1.61816-.396,2.5127,1.53223-.15479,3.08105-.43018,4.37207-.91211l.34424,1.68701Zm4.56104,11.17041c-.51611,.03418-1.06689,.05176-1.63477,.05176-1.44629,0-2.92627-.12061-3.89014-.36133-1.37695-.34473-2.1001-1.30859-2.08252-2.47852,0-.98145,.5332-1.89355,1.08398-2.53027l1.44629,.56787c-.56836,.61963-.84375,1.22217-.84375,1.7041,0,1.20459,1.29102,1.42822,3.90723,1.42822,.68848,0,1.39404-.01709,2.04834-.08594l-.03467,1.7041Zm-6.5918-8.48535c1.73828-.55078,4.18213-.89502,6.19629-.86084v1.63525c-1.89355-.06885-4.07959,.18945-5.81787,.68848l-.37842-1.46289Z"/><path class="cls-1" d="M135.44047,103.58317c-.03418,.15479-.22363,.27539-.46436,.29248-.24121,1.34229-.37891,3.06348-.37891,4.61279,0,4.68164,1.53174,5.69727,2.40967,5.69727,.63672-.01758,1.4458-1.75586,1.92773-3.4082,.34424,.30957,.99854,.84326,1.41162,1.0498-.98145,3.06396-2.08301,4.19971-3.42529,4.19971-2.42725,0-3.82129-3.01221-4.01025-6.02393-.05176-.6543-.06934-1.37695-.06934-2.13428,0-1.51465,.08643-3.18408,.27539-4.7334l2.32373,.44775Zm10.48193,8.1582c-.49902-3.04639-1.979-5.04297-4.19922-6.31689l1.08398-1.29053c2.46143,1.3252,4.38916,3.75195,4.90527,7.03955l-1.79004,.56787Z"/><path class="cls-1" d="M70.35844,126.48161v1.49756h-3.64893l.60254,.1377c-.06934,.12061-.18945,.18945-.43066,.20654-.20654,.46484-.51611,1.06738-.82617,1.5835h3.45996v9.03613c0,1.66943-.67139,1.87646-3.78711,1.87646-.06836-.46484-.32666-1.15332-.55078-1.58398,.6543,.03467,1.30859,.05176,1.79004,.05176,.9126,0,.98145,0,.98145-.37842v-5.23242c-.24121,.2583-.56836,.34424-1.06738,.34424h-1.72119c-1.39404,0-1.70361-.36133-1.70361-1.60059v-1.10156h-1.92773c-.18945,1.7207-.80908,2.92578-3.49414,3.52832-.12061-.31006-.43066-.79199-.70605-1.06738v7.04004h-1.54883v-10.9126h3.2876c-.17236-.55078-.44775-1.23926-.72314-1.75537l.86084-.17236h-4.37207v-1.49756h6.8335v-1.80713l2.06543,.12061c-.01758,.15479-.12061,.24072-.396,.29248v1.39404h7.02246Zm-13.02979,4.83691v2.39209c1.99707-.396,2.58203-1.06689,2.77148-2.39209h-2.77148Zm8.70947,7.79688h-5.28418v1.01562h-1.46289v-5.37012h6.74707v4.35449Zm-5.47314-9.2085h3.73486c.27539-.56787,.58496-1.30811,.7915-1.92773h-5.11182c.32715,.60254,.67139,1.34229,.80908,1.87598l-.22363,.05176Zm3.99316,6.09326h-3.8042v1.8584h3.8042v-1.8584Zm2.1167-3.20166c.32715,0,.396-.06885,.44775-.60254,.17188,.1377,.51611,.2583,.82617,.36182v-1.23926h-3.08105v1.10156c0,.32666,.06885,.37842,.48193,.37842h1.3252Z"/><path class="cls-1" d="M72.47221,140.78483v-7.53857h6.45459v7.40088h-1.61768v-.61963h-3.2876v.75732h-1.54932Zm4.83691-5.97266h-3.2876v3.64893h3.2876v-3.64893Zm7.02246-9.55225v6.38525h-9.03613v-6.38525h9.03613Zm-1.66992,4.81934v-3.25342h-5.80029v3.25342h5.80029Zm-2.09961,3.16699h6.64355v7.40088h-1.63477v-.61963h-3.44238v.72266h-1.56641v-7.50391Zm1.56641,5.19775h3.44238v-3.63184h-3.44238v3.63184Z"/><path class="cls-1" d="M104.27689,132.47136c-.03418,.01709-.06836,.01709-.10303,.01709-.10303,0-.20654-.03418-.29248-.08594-1.29102,.396-3.08105,1.01562-4.44092,1.56641,.03467,.37891,.05176,.80908,.05176,1.29102,0,.46484-.01709,.98096-.05176,1.54883l-1.73828,.12061c.06885-.74023,.10303-1.7041,.06885-2.28906-1.61816,.80908-2.8916,1.80713-2.8916,2.65039,0,.86084,1.06738,1.27393,3.21875,1.27393,1.5835,0,3.20117-.06885,4.30273-.20654l.01758,1.60059c-.96387,.10303-2.46143,.1377-4.33789,.1377-3.30469,0-4.87061-.75732-4.87061-2.71924,0-1.44629,1.89307-2.96094,4.38916-4.23438-.08643-.77441-.43066-1.27344-1.0332-1.27344-1.20459,0-2.46094,.65381-3.92383,2.30615-.44775,.49902-1.10156,1.17041-1.85938,1.87598l-1.1875-1.17041c.80908-.72266,1.72119-1.53174,2.27197-2.2373,.75732-.96387,1.54932-2.47852,1.89355-3.71777l-.79199,.01709c-.68848,0-1.91064,0-2.771-.01709v-1.54932c1.01562,.03467,2.2373,.05176,2.96045,.05176l1.0498-.01709c.15479-.74023,.29248-1.46289,.41309-2.37549l2.16895,.24121c-.03467,.17188-.18945,.27539-.41309,.30957-.12061,.61963-.2583,1.18799-.41309,1.75586,1.27344-.03467,3.54541-.31006,5.55908-.98096l.29297,1.63477c-1.89355,.58545-4.38916,.80908-6.2998,.87793-.34424,1.10156-.70557,1.97949-1.03271,2.44434h.01709c.68848-.56836,1.68701-.96387,2.56494-.96387,1.06689,0,1.87598,.75684,2.1167,2.1167,1.39453-.61963,3.09863-1.25635,4.42383-1.77295l.6709,1.77295Z"/><path class="cls-1" d="M109.7476,131.4904v5.61133c1.1875,1.92773,3.4082,1.92773,6.67822,1.92773,2.01367,0,4.42334-.05176,5.93799-.15527-.17188,.36133-.41309,1.06738-.49902,1.53223-1.30811,.05127-3.32178,.08594-5.14648,.08594-3.8208,0-6.00684,0-7.625-2.06543-.70557,.72266-1.44531,1.42871-2.06543,1.99658,.01758,.15479-.03418,.24072-.17188,.30957l-.84326-1.65234c.67139-.49902,1.47998-1.15283,2.22021-1.84131v-4.23438h-2.01367v-1.51465h3.52832Zm-2.2373-6.41992c.98096,.82617,2.09961,2.01367,2.58154,2.87402l-1.37695,.92969c-.44775-.86035-1.51465-2.11719-2.49561-2.99512l1.29102-.80859Zm6.69531,10.77441l1.56641,.63672c-.06934,.10352-.20703,.15527-.396,.12061-.9126,.70557-2.32373,1.48047-3.52881,1.97949-.27539-.27539-.77441-.72314-1.10156-.94678,1.1709-.41309,2.51318-1.10156,3.33936-1.79004h-3.66602v-1.23926h3.01221v-1.39404h-2.3584v-1.22217h2.3584v-1.1875l1.92773,.10352c-.01758,.15479-.12061,.24072-.396,.27539v.80859h2.40967v-1.1875l1.96191,.10352c-.01709,.15479-.12012,.24072-.39551,.27539v.80859h2.42676v1.22217h-2.42676v1.39404h3.11523v1.23926h-3.83838c1.35986,.63672,2.87451,1.4458,3.75244,2.08301l-1.63525,.6709c-.75732-.63672-2.1001-1.46289-3.39111-2.08252l1.08447-.67139h-3.8208Zm-.32715-8.51953v-.94678h-3.25293v-1.08447h4.64697v3.13281h-2.94287v.63672c0,.34424,.08594,.39551,.60205,.39551h1.65234c.36182,0,.44775-.08594,.49951-.77441,.27539,.18945,.7915,.36133,1.15283,.43066-.1377,1.15283-.49902,1.46289-1.47998,1.46289h-2.01367c-1.39453,0-1.77295-.31006-1.77295-1.51465v-1.73828h2.90869Zm1.08447,5.88623v1.39404h2.40967v-1.39404h-2.40967Zm4.76758-5.88623v-.94678h-3.45947v-1.08447h4.87109v3.13281h-3.08105v.61914c0,.36182,.08594,.41309,.61963,.41309h1.77295c.41309,0,.49902-.10303,.5332-.82617,.27539,.20703,.80908,.36182,1.17041,.44775-.1377,1.1875-.51611,1.49756-1.53174,1.49756h-2.11719c-1.42871,0-1.82422-.31006-1.82422-1.51465v-1.73828h3.04639Z"/><path class="cls-1" d="M123.49711,137.23942c.99805-.6543,2.75391-1.97949,4.13086-3.21875l.86035,1.27344c-1.11865,1.0498-2.71924,2.39258-3.58008,3.08105,.01709,.24121-.06885,.41309-.22363,.49902l-1.1875-1.63477Zm4.81934-12.08301c1.70361,.99805,4.31982,1.85889,6.55762,2.04834l-.36133,1.56592c-.22412-.03418-.44775-.06836-.6543-.06836-.77441,0-1.46289,.32666-2.39209,1.20459l-1.48047-.49902c.41309-.44775,1.13574-1.05029,1.5835-1.23926-1.10156-.24121-2.71924-.84326-4.0791-1.68701l.82617-1.3252Zm2.54736,5.81738c-.2583,.44775-.396,.84375-.396,1.20508,0,.63672,.43018,1.1875,1.49756,1.89355,1.3252,.89453,2.03076,2.03076,2.03076,3.39062,0,1.75537-1.35986,2.771-2.94287,2.771-.89551,0-1.89355-.32715-3.33936-1.06689,.17236-.41309,.29248-.87793,.396-1.39453,1.3252,.68848,2.20312,.89502,2.68506,.89502,.94678,0,1.41113-.49902,1.41113-1.29053,0-.74023-.55078-1.66992-1.70361-2.44434-1.13623-.79199-1.72168-1.60059-1.72168-2.59912,0-.55078,.17236-1.15283,.55078-1.84131l1.53223,.48145Zm3.83789,1.61816c1.9624,.80908,3.71777,2.42676,4.54395,4.81934l-1.61768,.86035c-.70557-2.09961-2.18604-3.80371-3.89014-4.49219l.96387-1.1875Zm.67139-7.229c.84326,.67139,1.73877,1.65234,2.16895,2.39258l-.84326,.65381c-.44775-.75732-1.27393-1.72119-2.11719-2.40967l.7915-.63672Zm2.28955-1.01562c.86035,.70557,1.70361,1.5835,2.15137,2.37549l-.84375,.65381c-.46436-.75732-1.27344-1.70361-2.09961-2.375l.79199-.6543Z"/></g><g><path class="cls-1" d="M83.77982,71.77214c-1.46973-1.44971-2.20459-3.45898-2.20459-6.02783v-13.12793c0-2.59521,.73779-4.61133,2.21436-6.04785s3.61816-2.15527,6.4248-2.15527c2.82031,0,4.96582,.71533,6.43555,2.14551,1.46973,1.42969,2.2041,3.44922,2.2041,6.05762v13.12793c0,2.5957-.73828,4.61133-2.21387,6.04785-1.47656,1.43652-3.61816,2.15479-6.42578,2.15479-2.81982,0-4.96484-.7251-6.43457-2.1748Zm8.85791-4.19092c.51611-.74756,.7749-1.82324,.7749-3.22705v-10.34766c0-1.40332-.25879-2.479-.7749-3.22754-.51611-.74756-1.32422-1.12207-2.42334-1.12207-1.09863,0-1.90625,.37451-2.42285,1.12207-.5166,.74854-.77441,1.82422-.77441,3.22754v10.34766c0,1.40381,.25781,2.47949,.77441,3.22705,.5166,.74854,1.32422,1.12256,2.42285,1.12256,1.09912,0,1.90723-.37402,2.42334-1.12256Z"/><path class="cls-1" d="M111.78373,73.64909h-5.44141v-22.48291l-3.51562,1.33105v-5.77979l4.30957-1.94678h4.64746v28.87842Z"/></g><rect class="cls-1" x="76.28307" y="81.49202" width="41.38764" height="2.12812"/></g></g></g></svg>