<?xml version="1.0" encoding="UTF-8"?><svg id="_レイヤー_2" xmlns="http://www.w3.org/2000/svg" viewBox="0 0 329.33594 27.5"><defs><style>.cls-1{fill:#b60005;}</style></defs><g id="text"><g><path class="cls-1" d="M3.6958,16.44971c-.05859,.2002-.08789,.55029-.08789,1.05029,0,.3335,.271,.7085,.81445,1.125,.54199,.41699,1.24609,.80859,2.11133,1.1748,.86523,.36719,1.85547,.6748,2.9707,.9248,1.11426,.25,2.24365,.375,3.3877,.375,2.2002,0,3.8125-.29102,4.83984-.875,1.02637-.58252,1.54004-1.4248,1.54004-2.5249,0-.6001-.44727-1.0249-1.3418-1.2749-.89551-.25-2.01758-.4502-3.36621-.6001-1.34961-.1499-2.80176-.31641-4.35596-.5-1.55518-.18262-3.00732-.51611-4.35596-1-1.34961-.48291-2.47168-1.18262-3.36621-2.1001-.89502-.91602-1.3418-2.1748-1.3418-3.7749,0-1.26611,.25635-2.4165,.77002-3.44971,.51318-1.0332,1.23193-1.9165,2.15576-2.65039,.92432-.73242,2.0459-1.30762,3.36621-1.72461,1.32031-.4165,2.78613-.625,4.3999-.625,1.49609,0,2.88916,.1084,4.18018,.32471,1.29004,.21729,2.43457,.4585,3.43164,.7251,.99707,.26709,1.83301,.50879,2.5083,.7251,.67432,.21729,1.15869,.32471,1.45166,.32471s.52832-.07471,.7041-.22461c.17627-.15039,.33691-.3252,.48438-.52539l.48389,.2002-3.03613,6.9502-.52783-.30029v-.5498c0-.30029-.28613-.60791-.8584-.92529-.57178-.31641-1.29785-.59961-2.17773-.84961s-1.86328-.45801-2.94824-.625c-1.08496-.1665-2.1416-.25-3.16797-.25-1.90674,0-3.24121,.25-4.00391,.75s-1.14355,1.0332-1.14355,1.59961c0,.56738,.26367,.99219,.79199,1.27539,.52783,.2832,1.2168,.49219,2.06738,.625,.85059,.1333,1.81885,.24219,2.9043,.32471,1.08496,.0835,2.2002,.2085,3.34375,.375,1.14453,.16748,2.25879,.3999,3.34424,.7002,1.08496,.2998,2.05322,.74219,2.90381,1.32471,.85059,.58398,1.54004,1.3501,2.06836,2.30029,.52783,.94971,.79199,2.14209,.79199,3.57471,0,1.1001-.19824,2.18359-.59375,3.25-.39648,1.06738-1.07129,2.02539-2.02441,2.875-.95312,.8501-2.22949,1.52539-3.82812,2.02539s-3.58594,.75-5.96191,.75c-1.84766,0-3.43945-.1001-4.77393-.30029-1.33496-.19971-2.47119-.44141-3.40967-.7251-.93945-.28271-1.67969-.54102-2.22217-.7749-.54346-.23291-.9458-.3501-1.21045-.3501-.17578,0-.32959,.06738-.46191,.2002-.13184,.13379-.27148,.28369-.41797,.4502l-.52783-.15039,3.25635-8.8999,.43945,.25Z"/><path class="cls-1" d="M36.25537,25.09961c0,.36719,.11719,.6001,.35254,.7002,.23438,.1001,.52734,.16699,.87988,.2002v.59961h-8.36035v-.59961c.35205-.0332,.64502-.1001,.87988-.2002,.23438-.1001,.35254-.33301,.35254-.7002V6.09961c0-.36621-.11816-.59961-.35254-.69971-.23486-.1001-.52783-.1665-.87988-.2002v-.6001h8.36035v.6001c-.35254,.03369-.64551,.1001-.87988,.2002-.23535,.1001-.35254,.3335-.35254,.69971v6.30029h9.72412V6.09961c0-.36621-.11768-.59961-.35205-.69971-.23486-.1001-.52783-.1665-.87988-.2002v-.6001h8.36035v.6001c-.35254,.03369-.64551,.1001-.88037,.2002s-.35205,.3335-.35205,.69971V25.09961c0,.36719,.11719,.6001,.35205,.7002s.52783,.16699,.88037,.2002v.59961h-8.36035v-.59961c.35205-.0332,.64502-.1001,.87988-.2002,.23438-.1001,.35205-.33301,.35205-.7002v-7.59961h-9.72412v7.59961Z"/><path class="cls-1" d="M68.11133,4.2998c1.37842,0,2.76416,.21729,4.15771,.6499,1.39355,.43359,2.65479,1.10889,3.78418,2.0249,1.12891,.91748,2.0459,2.09229,2.75,3.52539,.7041,1.43359,1.05615,3.1333,1.05615,5.09961,0,2-.35205,3.70898-1.05615,5.125-.7041,1.41748-1.62109,2.5752-2.75,3.4751-1.12939,.8999-2.39062,1.55029-3.78418,1.9502s-2.7793,.6001-4.15771,.6001c-1.37939,0-2.76514-.2002-4.15771-.6001-1.39355-.3999-2.65527-1.05029-3.78418-1.9502-1.12988-.8999-2.0459-2.05762-2.75-3.4751-.7041-1.41602-1.05566-3.125-1.05566-5.125,0-1.96631,.35156-3.66602,1.05566-5.09961,.7041-1.43311,1.62012-2.60791,2.75-3.52539,1.12891-.91602,2.39062-1.59131,3.78418-2.0249,1.39258-.43262,2.77832-.6499,4.15771-.6499Zm0,5.2998c-.82178,0-1.59912,.14307-2.33203,.42773-.7334,.28418-1.37891,.68555-1.93604,1.20459-.55762,.51855-.98975,1.14697-1.29785,1.88281-.30811,.73682-.46191,1.57324-.46191,2.51025,0,.9375,.15381,1.77393,.46191,2.50977,.30811,.73682,.74023,1.36426,1.29785,1.88281,.55713,.51904,1.20264,.92139,1.93604,1.20557,.73291,.28467,1.51025,.42676,2.33203,.42676,.85059,0,1.63525-.14209,2.354-.42676,.71875-.28418,1.35645-.68652,1.91406-1.20557,.55664-.51855,.99023-1.146,1.29785-1.88281,.30811-.73584,.46191-1.57227,.46191-2.50977,0-.93701-.15381-1.77344-.46191-2.51025-.30762-.73584-.74121-1.36426-1.29785-1.88281-.55762-.51904-1.19531-.92041-1.91406-1.20459-.71875-.28467-1.50342-.42773-2.354-.42773Z"/><path class="cls-1" d="M84.17139,6.09961c0-.36621-.0957-.59961-.28613-.69971-.19141-.1001-.33008-.1665-.41797-.2002v-.6001h11.57178c1.08496,0,2.13428,.1001,3.146,.30029,1.01172,.19971,1.89893,.56689,2.66211,1.1001,.7627,.5332,1.37842,1.2583,1.84766,2.1748,.46924,.91699,.7041,2.1084,.7041,3.5752,0,1.43359-.23486,2.61719-.7041,3.5498-.46924,.93359-1.08496,1.66699-1.84766,2.2002-.76318,.5332-1.65039,.8999-2.66211,1.09961-1.01172,.2002-2.06104,.30029-3.146,.30029h-4.97217v6.19971c0,.36719,.11035,.6001,.33008,.7002,.22021,.1001,.44727,.16699,.68213,.2002v.59961h-7.61182v-.59961c.08789-.0332,.22656-.1001,.41797-.2002,.19043-.1001,.28613-.33301,.28613-.7002V6.09961Zm10.07568,8.6001c1.23193,0,2.11182-.2251,2.64014-.6748,.52783-.4502,.79199-1.20801,.79199-2.2749,0-1.0332-.23535-1.7832-.7041-2.25-.46973-.4668-1.26172-.7002-2.37598-.7002h-4.53223v5.8999h4.18018Z"/><path class="cls-1" d="M107.53516,6.09961c0-.36621-.0957-.59961-.28613-.69971-.19092-.1001-.32959-.1665-.41797-.2002v-.6001h11.57178c1.08496,0,2.13428,.1001,3.14648,.30029,1.01172,.19971,1.89844,.56689,2.66211,1.1001,.76221,.5332,1.37793,1.2583,1.84766,2.1748,.46875,.91699,.7041,2.1084,.7041,3.5752,0,1.43359-.23535,2.61719-.7041,3.5498-.46973,.93359-1.08545,1.66699-1.84766,2.2002-.76367,.5332-1.65039,.8999-2.66211,1.09961-1.01221,.2002-2.06152,.30029-3.14648,.30029h-4.97168v6.19971c0,.36719,.10986,.6001,.33008,.7002,.21973,.1001,.44678,.16699,.68164,.2002v.59961h-7.61182v-.59961c.08838-.0332,.22705-.1001,.41797-.2002,.19043-.1001,.28613-.33301,.28613-.7002V6.09961Zm10.07568,8.6001c1.23242,0,2.1123-.2251,2.64062-.6748,.52734-.4502,.79199-1.20801,.79199-2.2749,0-1.0332-.23535-1.7832-.7041-2.25-.46973-.4668-1.26172-.7002-2.37598-.7002h-4.53223v5.8999h4.17969Z"/><path class="cls-1" d="M138.90723,5.19971c-.43994,.03369-.78516,.1001-1.03418,.2002-.24951,.1001-.37402,.3335-.37402,.69971V25.09961c0,.36719,.12451,.6001,.37402,.7002,.24902,.1001,.59424,.16699,1.03418,.2002v.59961h-8.7124v-.59961c.44043-.0332,.78467-.1001,1.03418-.2002,.24902-.1001,.37402-.33301,.37402-.7002V6.09961c0-.36621-.125-.59961-.37402-.69971-.24951-.1001-.59375-.1665-1.03418-.2002v-.6001h8.7124v.6001Z"/><path class="cls-1" d="M166.23096,25.09961c0,.36719,.11621,.6001,.35156,.7002,.23438,.1001,.52832,.16699,.87988,.2002v.59961h-8.13965v-.59961c.23438,0,.50586-.0332,.81396-.1001,.30811-.06641,.46191-.25,.46191-.55029,0-.2998-.32275-.85742-.96826-1.6748-.64551-.81641-1.47363-1.8252-2.48584-3.0249-1.01221-1.2002-2.14893-2.5415-3.40967-4.0249-1.26172-1.48291-2.5083-3.05811-3.74023-4.7251l-.08789,.1001v13.09961c0,.36719,.10986,.6001,.33008,.7002,.21973,.1001,.49072,.16699,.81348,.2002v.59961h-7.52344v-.59961c.29297-.0332,.5498-.1001,.76953-.2002,.22021-.1001,.33008-.33301,.33008-.7002V6.09961c0-.36621-.11719-.59961-.35156-.69971-.23535-.1001-.51367-.1665-.83594-.2002v-.6001h10.47168v.6001c-.20557,.03369-.41113,.1001-.61621,.2002s-.30762,.3335-.30762,.69971c0,.06738,.24219,.40869,.72559,1.02539,.48438,.61719,1.10742,1.39209,1.87012,2.32471,.7627,.93359,1.61328,1.96729,2.55176,3.1001,.93848,1.13379,1.87695,2.26709,2.81641,3.3999V6.09961c0-.36621-.11768-.59961-.35205-.69971-.23486-.1001-.52783-.1665-.87988-.2002v-.6001h7.74365v.6001c-.35156,.03369-.64551,.1001-.87988,.2002-.23535,.1001-.35156,.3335-.35156,.69971V25.09961Z"/><path class="cls-1" d="M193.02637,21.44971c0,.3335,.07275,.63379,.22021,.8999,.14648,.26758,.35156,.40039,.61621,.40039h.39551v.59961c-.7041,.40039-1.51074,.80859-2.41992,1.2251-.90918,.41748-1.8916,.79248-2.94824,1.125-1.05566,.3335-2.1416,.59229-3.25586,.7749-1.11523,.18311-2.22949,.27539-3.34375,.27539-1.70166,0-3.27148-.2002-4.70801-.6001-1.4375-.3999-2.66211-1.05811-3.67383-1.9751-1.01221-.9165-1.8042-2.08301-2.37598-3.5-.57227-1.4165-.8584-3.10791-.8584-5.0752,0-1.96631,.32227-3.65771,.96777-5.07471,.64551-1.4165,1.51074-2.58301,2.59668-3.5,1.08447-.9165,2.32422-1.6001,3.71777-2.05029,1.39258-.44971,2.83789-.6748,4.33398-.6748,1.11426,0,2.13379,.0752,3.05762,.2251,.92432,.1499,1.73828,.32471,2.44238,.5249s1.28271,.375,1.73779,.5249c.45459,.1499,.75488,.2251,.90186,.2251,.23438,0,.38867-.0498,.46191-.1499,.07324-.1001,.16895-.21631,.28613-.3501l.52832,.1001-2.28809,6.6001-.52832-.30029v-.3501c0-.2998-.19775-.58252-.59375-.84961-.396-.2666-.8877-.50781-1.47363-.7251-.5874-.21631-1.20996-.38281-1.87012-.5-.66016-.1167-1.25391-.17529-1.78223-.17529-.90918,0-1.77539,.11719-2.5957,.3501-.82178,.23389-1.5332,.61719-2.13428,1.1499-.60156,.53369-1.07764,1.20898-1.43018,2.02539-.35156,.81689-.52783,1.80859-.52783,2.97461,0,1.2002,.17627,2.2251,.52783,3.0752,.35254,.8501,.83594,1.5498,1.45215,2.1001,.61621,.5498,1.33447,.9585,2.15625,1.2251,.82031,.26709,1.71582,.3999,2.68359,.3999,.7334,0,1.45215-.05811,2.15625-.17529,.7041-.11621,1.4082-.30762,2.1123-.57471v-3.25h-3.69629c-.35205,0-.57227,.1499-.66016,.44971-.08789,.30029-.13184,.55029-.13184,.75h-.52832v-6.19971h.52832c0,.19971,.04395,.44971,.13184,.75,.08789,.2998,.30811,.44971,.66016,.44971h9.15186v6.8501Z"/><path class="cls-1" d="M224.39795,17.0498c-.23535,0-.39648,.09229-.48438,.2749-.08789,.18359-.14697,.42529-.17578,.7251h-.52832v-7h.52832c.05859,.6001,.27832,.8999,.66016,.8999h12.97949v.6001c-.46924,.03369-.70361,.31738-.70361,.8501v8.2998c0,.23389,.02881,.43359,.08789,.6001,.05811,.16699,.20459,.25,.43994,.25h.21973v.6001c-3.98926,2.3999-8.71191,3.6001-14.16797,3.6001-1.84766,0-3.62988-.25781-5.3457-.77539-1.71582-.51611-3.23389-1.32471-4.55371-2.4248-1.32031-1.1001-2.38379-2.49121-3.19043-4.1748-.80664-1.68311-1.20996-3.6582-1.20996-5.92529,0-2.26611,.40332-4.24121,1.20996-5.9248,.80664-1.68311,1.87012-3.08301,3.19043-4.2002,1.31982-1.11621,2.83789-1.94971,4.55371-2.5,1.71582-.5498,3.49805-.82471,5.3457-.82471,.7334,0,1.37891,.01709,1.93652,.0498,.55664,.03369,1.09961,.1001,1.62793,.2002,.52783,.09961,1.07031,.22461,1.62793,.375,.55664,.1499,1.2168,.3418,1.97998,.57471,.73291,.23389,1.40771,.50879,2.02393,.8252,.61621,.31689,1.01172,.4751,1.18799,.4751,.23438,0,.43994-.13281,.61572-.40039l.52832,.2002-2.86035,6.6001-.52734-.3501c.05811-.2002,.08789-.38281,.08789-.5498,0-.23291-.25-.4917-.74805-.77539-.49902-.28271-1.12988-.54102-1.89209-.7749-.76318-.23291-1.62109-.43262-2.57373-.6001-.9541-.16602-1.88574-.25-2.79443-.25-1.05615,0-2.06104,.15869-3.01416,.4751-.95312,.31738-1.80371,.80859-2.55176,1.4751-.74805,.66699-1.3418,1.49219-1.78223,2.4751-.43945,.9834-.65967,2.15869-.65967,3.5249,0,1.3335,.26416,2.49219,.79199,3.4751,.52783,.9834,1.19482,1.79199,2.00195,2.4248,.80615,.63379,1.7085,1.1001,2.70605,1.3999,.99658,.30029,1.97998,.4502,2.94775,.4502,1.23242,0,2.33887-.08301,3.32227-.25,.98242-.1665,1.92822-.3999,2.83789-.7002v-3.2998h-5.67578Z"/><path class="cls-1" d="M242.12891,6.09961c0-.36621-.125-.59961-.37402-.69971-.24951-.1001-.55029-.1665-.90186-.2002v-.6001h7.91992v.6001c-.14746,.03369-.30811,.1001-.48389,.2002-.17627,.1001-.26416,.3335-.26416,.69971v12.15039c0,1.26709,.40283,2.1748,1.20996,2.72461,.80664,.55029,1.87012,.8252,3.19043,.8252,1.31934,0,2.38281-.2749,3.18945-.8252,.80664-.5498,1.20996-1.45752,1.20996-2.72461V6.09961c0-.36621-.08789-.59961-.26367-.69971s-.33789-.1665-.48438-.2002v-.6001h7.92041v.6001c-.35205,.03369-.65332,.1001-.90186,.2002-.25,.1001-.37402,.3335-.37402,.69971v11c0,1.33398-.17627,2.59229-.52832,3.77539-.35156,1.18359-.92383,2.2168-1.71582,3.09961-.79199,.88379-1.84814,1.56738-3.16797,2.05029-1.32031,.4834-2.94824,.7251-4.88379,.7251-1.93652,0-3.56445-.2417-4.88428-.7251-1.31982-.48291-2.37598-1.1665-3.16797-2.05029-.79199-.88281-1.36377-1.91602-1.71631-3.09961-.35156-1.18311-.52783-2.44141-.52783-3.77539V6.09961Z"/><path class="cls-1" d="M277.7251,5.19971c-.44043,.03369-.78516,.1001-1.03418,.2002-.25,.1001-.37402,.3335-.37402,.69971V25.09961c0,.36719,.12402,.6001,.37402,.7002,.24902,.1001,.59375,.16699,1.03418,.2002v.59961h-8.7124v-.59961c.43994-.0332,.78467-.1001,1.03369-.2002s.37402-.33301,.37402-.7002V6.09961c0-.36621-.125-.59961-.37402-.69971s-.59375-.1665-1.03369-.2002v-.6001h8.7124v.6001Z"/><path class="cls-1" d="M283.3999,6.09961c0-.36621-.10938-.59961-.32959-.69971s-.4917-.1665-.81396-.2002v-.6001h13.2002c1.64209,0,3.03564,.30029,4.17969,.90039,1.14404,.59961,2.08984,1.3999,2.83789,2.3999s1.29053,2.16699,1.62793,3.5c.33691,1.3335,.50586,2.7334,.50586,4.19971,0,1.46729-.16895,2.86719-.50586,4.2002-.3374,1.3335-.87988,2.5-1.62793,3.5s-1.69385,1.7998-2.83789,2.3999-2.5376,.8999-4.17969,.8999h-13.2002v-.59961c.32227-.0332,.59375-.1001,.81396-.2002s.32959-.33301,.32959-.7002V6.09961Zm9.06445,15.7002c2.28809,0,3.93066-.45801,4.92773-1.375,.99707-.9165,1.49609-2.5249,1.49609-4.8252,0-2.2998-.49902-3.90771-1.49609-4.82471-.99707-.9165-2.63965-1.375-4.92773-1.375h-3.16797v12.3999h3.16797Z"/><path class="cls-1" d="M327.66406,22.19971c.58643,0,.96777-.4165,1.14404-1.25h.52783v6.55029h-.43994c-.14746-.46729-.30127-.73389-.46191-.80029-.16162-.06689-.41797-.1001-.77002-.1001h-19.62402v-.59961c.32227-.0332,.6084-.1001,.85791-.2002,.24902-.1001,.37402-.33301,.37402-.7002V6.09961c0-.36621-.125-.59961-.37402-.69971-.24951-.1001-.53564-.1665-.85791-.2002v-.6001h19.97607c.17578,0,.35156-.06641,.52783-.19971,.17627-.13281,.26416-.43311,.26416-.8999h.52783v6.69971h-.52783c0-.5-.08789-.82471-.26416-.9751-.17627-.1499-.35205-.22461-.52783-.22461h-12.84814v4.0498h8.27197c.17578,0,.35205-.0752,.52832-.2251,.17578-.1499,.26367-.45752,.26367-.9248h.52832v6.5h-.52832c0-.46631-.08789-.7749-.26367-.92529-.17627-.1499-.35254-.22461-.52832-.22461h-8.27197v4.94971h12.49609Z"/></g></g></svg>