<?xml version="1.0" encoding="UTF-8"?><svg id="_レイヤー_2" xmlns="http://www.w3.org/2000/svg" viewBox="0 0 898.48974 169.55249"><defs><style>.cls-1{fill:#fff;}.cls-2{stroke:#fff;stroke-linejoin:round;stroke-width:31.28894px;}.cls-2,.cls-3{fill:none;stroke-linecap:round;}.cls-4{fill:#f08300;}.cls-3{stroke:#c8c9ca;stroke-miterlimit:10;stroke-width:12.51558px;}</style></defs><g id="text"><g><g><path class="cls-4" d="M874.04316,72.57291c0,40.08635-32.49516,72.57829-72.57972,72.57829-40.08097,0-72.5747-32.49194-72.5747-72.57829,0-40.07918,32.49373-72.57291,72.5747-72.57291,40.08456,0,72.57972,32.49373,72.57972,72.57291Z"/><path class="cls-3" d="M710.7952,72.5765c0,11.17938,2.0361,21.88298,5.73005,31.77057,12.87595,34.43159,46.0663,58.94763,84.98671,58.94763,50.10516,0,90.71999-40.61483,90.71999-90.7182"/><g><path class="cls-1" d="M747.67164,84.39284l.17212,1.41162c-.65405,.22363-1.32544,.44727-1.96216,.6709v4.66455c0,1.51465-.55078,1.84131-3.1499,1.80713-.05151-.41309-.25806-1.06738-.4646-1.49707,.43042,.0166,.8606,.03418,1.18774,.03418,.73999,0,.82617,0,.82617-.34424v-4.14795c-.68848,.22363-1.30811,.43018-1.82471,.58496-.01709,.15527-.12036,.2583-.25806,.30957l-.55078-1.87598c.7229-.17188,1.63501-.41309,2.63354-.68848v-3.61426h-2.39258v-1.51465h2.39258v-3.33887l1.99658,.10303c-.01733,.15479-.12061,.2583-.396,.29248v2.94336h1.85889v1.51465h-1.85889v3.18457l1.79004-.49951Zm2.46143-2.71924c0,.63672,.20654,.74023,1.34229,.74023h3.70068c.94678,0,1.10156-.31055,1.20483-2.11719,.36157,.25781,1.03271,.49902,1.49731,.60254-.22363,2.375-.73999,2.97754-2.59888,2.97754h-3.94165c-2.22021,0-2.80542-.46484-2.80542-2.18652v-4.85352l2.01392,.12061c-.01733,.15479-.1377,.24072-.41309,.27539v2.1001c1.96191-.43066,4.02734-1.0332,5.2666-1.61816l1.32544,1.25684c-.06885,.06836-.15503,.06836-.37866,.06836-1.54907,.60254-3.99316,1.20508-6.21338,1.61816v1.01562Zm-1.34277,11.30762v-7.83105h8.021v7.71094h-1.61816v-.63672h-4.85352v.75684h-1.54932Zm6.40283-6.4541h-4.85352v1.48047h4.85352v-1.48047Zm-4.85352,4.32031h4.85352v-1.51465h-4.85352v1.51465Z"/><path class="cls-1" d="M767.8755,87.81814v3.14941c.75732,.12109,1.60083,.17236,2.47852,.17236,.75732,0,3.70044,0,4.69897-.03467-.2583,.37891-.53369,1.1709-.60254,1.65234h-4.18262c-3.45947,0-5.98975-.58496-7.59033-3.35645-.58521,1.49805-1.41138,2.75391-2.51294,3.63184-.27539-.29199-.87769-.80859-1.25659-1.06689,1.85889-1.32568,2.78857-3.90674,3.1499-7.00537l1.99658,.30957c-.03442,.15527-.17212,.24121-.396,.24121-.08594,.63672-.20654,1.25684-.34424,1.85938,.61963,1.66895,1.60083,2.61621,2.87451,3.14941v-6.81592h-3.95874v-1.56592h9.65601v1.56592h-4.0105v2.58154h5.00854v1.53223h-5.00854Zm-6.48901-7.45312v2.47852h-1.60059v-4.02734h6.36841v-1.99658l2.15161,.12061c-.01733,.15479-.12061,.25781-.41309,.29248v1.5835h6.41992v4.02734h-1.66943v-2.47852h-11.25684Z"/><path class="cls-1" d="M782.33057,77.64577c-.03442,.20654-.18921,.34424-.53345,.37842-.1377,2.16895-.31006,6.4375-.31006,8.96777,0,2.39258,1.18774,3.51074,3.18433,3.51074,1.89331,0,3.90698-.94629,5.86938-3.0459,.20654,.37842,.75732,1.22168,1.01538,1.49707-2.08276,2.2207-4.42358,3.32227-6.9021,3.32227-3.4939,0-5.02588-1.9624-5.02588-5.28418,0-2.2373,.1377-7.40137,.27539-9.50098l2.427,.15479Z"/><path class="cls-1" d="M804.11793,81.03689c-1.37695,.46436-3.21875,.77441-4.99146,.91211-.68848,3.76953-1.75562,7.67627-3.04663,10.55078l-1.75537-.62012c1.37695-2.75391,2.39233-6.16113,3.0293-9.84473-.2583,.01709-.53369,.01709-.77466,.01709-.82617,0-1.61792,0-2.22046-.01709l-.01709-1.63525c.55078,.03467,1.4458,.03467,2.27197,.03467,.30981,0,.63672,0,.98096-.01758,.1377-1.03223,.27539-2.2373,.37891-3.27051l2.32349,.22412c-.03442,.18896-.25806,.34424-.49927,.37842-.10303,.68848-.24072,1.61816-.39575,2.51318,1.53198-.15479,3.08081-.43018,4.37183-.9126l.34424,1.6875Zm4.56104,11.16992c-.51611,.03467-1.06689,.05176-1.63501,.05176-1.4458,0-2.92603-.12012-3.88989-.36133-1.37695-.34424-2.09985-1.30811-2.08252-2.47852,0-.98145,.53345-1.89355,1.08423-2.53027l1.4458,.56836c-.56812,.61914-.84351,1.22168-.84351,1.7041,0,1.2041,1.29102,1.42822,3.90723,1.42822,.68848,0,1.39404-.01709,2.04834-.08643l-.03467,1.7041Zm-6.59204-8.48535c1.73853-.55078,4.18237-.89453,6.19629-.86035v1.63477c-1.89331-.06836-4.07935,.18945-5.81763,.68848l-.37866-1.46289Z"/><path class="cls-1" d="M812.85865,83.6697c-.56787,.86084-1.17041,1.65234-1.77295,2.34082-.15479-.39551-.56787-1.22168-.7915-1.61768,1.56616-1.68701,3.14966-4.57861,4.11353-7.45264l1.85889,.63672c-.06885,.1377-.20654,.18945-.44751,.18945-.43018,1.15332-.94678,2.30664-1.51465,3.4082l.53369,.1543c-.01733,.1377-.1377,.22363-.37891,.25879v11.41113h-1.60059v-9.3291Zm9.19116,7.16016h4.73315v1.56641h-11.27368v-1.56641h4.88818v-3.97559h-3.8728v-1.54883h3.8728v-3.47754h-4.45776v-1.56592h5.54199c-.87769-.73975-2.2373-1.65234-3.32178-2.28955l1.08447-1.15283c1.29077,.70557,3.0293,1.80713,3.88965,2.58154l-.75732,.86084h4.14819v1.56592h-4.4751v3.47754h3.95874v1.54883h-3.95874v3.97559Z"/><path class="cls-1" d="M835.30006,86.52712h-4.95703c-.06885,2.13428-.41309,4.69922-1.54907,6.47168-.25806-.29297-.92944-.80859-1.27368-.99805,1.1875-1.87598,1.29102-4.56152,1.29102-6.55762v-4.5791h6.48877v5.66309Zm.49902-8.79492v1.49707h-7.81396v-1.49707h7.81396Zm-2.06543,4.59521h-3.37354v2.73682h3.37354v-2.73682Zm10.36182,.44775v1.58301h-1.8418v8.62305h-1.61792v-8.62305h-2.58179c-.10327,2.70215-.68848,6.12793-3.04639,8.57178-.22388-.34424-.80908-.9126-1.20508-1.11865,2.40967-2.49609,2.66797-5.9209,2.66797-8.53711v-4.66455l1.0498,.2583c1.80737-.48242,3.70068-1.15332,4.83667-1.80762l1.53198,1.30859c-.06885,.06836-.17236,.06836-.41309,.06836-1.34277,.63672-3.44238,1.29102-5.40479,1.75586v2.58203h6.02441Z"/><path class="cls-1" d="M845.88258,79.05739c.51611,0,1.25635-.01758,1.73828-.05176,1.75562-.1377,9.81079-.67139,12.39258-.74023l.01709,1.82422c-1.41113-.05176-2.32349,.05176-3.64893,.94727-2.22021,1.41113-4.62988,3.97559-4.62988,6.05859,0,2.16797,1.7041,3.44238,5.71436,3.92383l-.82617,1.7041c-4.90527-.63672-6.76416-2.59863-6.76416-5.61133,0-2.25488,2.15137-5.09473,4.99121-6.9707-2.01367,.15527-6.52319,.49902-8.39941,.68848-.05151,.12061-.25806,.24121-.41309,.27539l-.17188-2.04785Zm11.34253,3.76953c.77466,.60205,1.72119,1.61719,2.20312,2.35742l-.84351,.6543c-.43018-.68848-1.46289-1.82422-2.13428-2.3584l.77466-.65332Zm1.94507-1.53223c.80884,.63672,1.73828,1.5835,2.20312,2.34082l-.82617,.6709c-.43042-.65332-1.39429-1.75488-2.15161-2.35742l.77466-.6543Z"/><path class="cls-1" d="M768.83936,104.64138c-.87769,.27539-1.94507,.48145-3.14966,.63672-.01733,.94629-.01733,1.94434-.01733,2.80566,1.25659-.41309,2.58179-.68848,3.58008-.68848,2.85718,0,4.87085,1.51465,4.87085,4.11328,0,2.40967-1.39404,4.18262-4.2168,4.18262-1.22217,0-2.35791-.43066-3.2876-1.56641,.31006-.37891,.61963-.89502,.86084-1.29102,.73999,.91211,1.56616,1.27344,2.46118,1.27344,1.60083,0,2.44409-1.13574,2.44409-2.59863,0-1.51465-1.11865-2.63379-3.16699-2.63379-1.03271,0-2.32373,.27539-3.54565,.68848,0,1.30859,.01733,3.16699,.01733,3.61523,0,1.54883-1.01562,2.83984-2.94336,2.83984-1.51465,0-3.04639-.89551-3.04639-2.78857,0-1.13623,.7915-2.35791,2.11694-3.30469,.61963-.46436,1.39429-.87744,2.22046-1.23926v-3.27002c-1.18774,.08594-2.51318,.10303-3.95898,.10303l-.01709-1.65234c1.46289,.01709,2.78833,0,3.97607-.06885v-3.08105l2.25464,.08594c-.01733,.20703-.18921,.36133-.4646,.39648-.05176,.65332-.06885,1.56592-.08618,2.42676,1.05005-.1377,2.01392-.34473,2.85718-.67188l.24097,1.6875Zm-4.802,5.61035c-.53369,.25879-2.77124,1.39453-2.77124,2.92676,0,.79102,.48193,1.37695,1.4458,1.37695,.77466,0,1.34253-.49951,1.34253-1.46338,0-.43018,0-1.65234-.01709-2.84033Zm9.72461-3.75195c-.91211-.87793-2.51294-1.80713-3.90723-2.39258l.84351-1.41113c1.49731,.56836,3.09814,1.51465,4.06201,2.3584l-.99829,1.44531Z"/><path class="cls-1" d="M788.64723,108.39333l1.22217,.68848c-.06885,.10352-.17212,.18945-.27539,.22363-.84326,1.7041-2.06543,3.04688-3.58008,4.11328,1.77295,.72363,3.87256,1.20508,6.1792,1.46338-.36157,.396-.80908,1.11865-1.03271,1.60107-2.61621-.36182-4.92285-1.01562-6.86768-2.03125-1.92773,.98096-4.18262,1.61816-6.57495,2.01367-.17212-.41309-.65405-1.15332-.99829-1.51465,2.1687-.27539,4.19971-.75732,5.95532-1.49707-1.20483-.84375-2.23755-1.87646-3.04663-3.08105l1.18774-.48242h-1.77271v-1.44531h9.29443l.30957-.05176Zm-10.36133-1.63525v2.42725h-1.53198v-3.87305h2.59888c-.22363-.58496-.58496-1.34277-.94653-1.91016l1.42847-.41309c.46484,.6709,.94678,1.58301,1.13623,2.18555l-.44775,.1377h3.13281c-.1377-.63672-.43042-1.54883-.75732-2.2373l1.46289-.32715c.37866,.74023,.75732,1.73828,.87793,2.35791l-.80908,.20654h2.8916c.51636-.82617,1.10156-1.97949,1.4458-2.82275l1.92773,.65381c-.05176,.10352-.20654,.17236-.43018,.17236-.31006,.58545-.77466,1.34229-1.22217,1.99658h2.771v3.87305h-1.60059v-2.42725h-11.92773Zm12.71948-4.9917c-.05151,.03467-.12036,.05176-.20654,.05176-.06885,0-.1377-.01709-.22388-.03418-3.3562,.6543-8.72632,1.08398-13.2876,1.23926-.01709-.41309-.20654-1.0332-.36133-1.39453,4.52686-.17188,9.82812-.60254,12.8916-1.23926l1.18774,1.37695Zm-9.81079,8.12402c.75732,1.08496,1.8418,1.99707,3.1499,2.7373,1.22192-.72363,2.22021-1.63574,2.94312-2.7373h-6.09302Z"/><path class="cls-1" d="M797.40528,101.78396c-.01733,.17188-.22388,.29248-.44751,.32715-.48193,2.06543-.91211,5.11133-.91211,6.8501,0,.96387,.03418,1.85889,.1377,2.56494,.3269-.70605,1.03271-2.11719,1.53174-3.0127l1.03271,1.23926c-.49902,.80957-1.46289,2.41016-1.80713,3.30469-.10352,.27539-.17236,.49902-.17236,.77441,0,.20703,.03467,.43066,.10352,.68848l-1.68701,.31055c-.44727-1.37695-.7915-3.39111-.7915-5.81836,0-2.27148,.36133-5.21484,.7915-7.55566l2.22046,.32715Zm2.23755,3.71777c1.13599,0,3.16699-.03418,4.3374-.12061-.10327-1.99658-.22363-4.16553-.27539-4.59521l2.32373,.06836c-.01733,.18945-.18945,.37891-.48193,.44727,.01709,.86133,.08594,2.51367,.1377,3.97656,1.06689-.10352,2.28906-.25879,3.16699-.5166l.1377,1.7041c-.87793,.17188-2.01392,.34375-3.23584,.43018l.01709,1.18799c0,3.68262-.8606,6.36816-4.11377,8.07227-.22363-.27539-.96387-.92969-1.34229-1.1875,3.06348-1.51465,3.71777-3.68359,3.71777-6.60938,0-.22412,0-1.15332-.01733-1.39453-1.08423,.08594-2.90894,.12012-4.35474,.12012l-.01709-1.58301Z"/><path class="cls-1" d="M819.60572,102.61013h-1.48022v13.82129h-1.60083v-3.30469c-1.9104,.36133-3.80371,.68848-5.07739,.89453-.01733,.1377-.1377,.24121-.25806,.27539l-.60254-1.82422,1.48022-.18945v-9.67285h-1.41138v-1.51465h8.9502v1.51465Zm-3.08105,2.08252v-2.08252h-2.90869v2.08252h2.90869Zm0,3.58008v-2.1167h-2.90869v2.1167h2.90869Zm-2.90869,1.46338v2.34082c.92944-.12109,1.91064-.25879,2.90869-.39648v-1.94434h-2.90869Zm11.65234-7.07422l.99854,.34375c-.03467,.10352-.10352,.20703-.17236,.27539-.41309,3.47705-1.27344,6.2998-2.56445,8.55469,.89502,1.39404,2.01367,2.5127,3.37354,3.27051-.36133,.30957-.89502,.91211-1.15332,1.3418-1.27344-.79102-2.32349-1.84131-3.18408-3.11523-.96387,1.27393-2.06543,2.30664-3.33911,3.11523-.24097-.41309-.7229-1.03223-1.08423-1.3252,1.3252-.75684,2.5127-1.89307,3.47656-3.39062-.99805-1.97949-1.70386-4.37207-2.20312-7.02246l1.46313-.27539c.37866,2.04834,.92944,3.97607,1.68677,5.64551,.80908-1.65234,1.41138-3.58008,1.75562-5.76562h-5.3186v-1.58398h5.98975l.27539-.06836Z"/><path class="cls-1" d="M831.34132,110.52712c-.3269-1.06641-.4646-2.5127-.4646-3.49365,0-1.4458,.15479-3.32178,.53345-5.45654l2.22046,.32715c-.05176,.22363-.2583,.27539-.46484,.31006-.32715,1.35986-.60254,3.51123-.60254,4.78467,0,.24121,.01733,.44775,.03467,.60254,.34424-.79199,.94653-1.87598,1.3252-2.49561,.18945,.31006,.60254,.84326,.82617,1.08447-.99829,1.58301-1.75562,2.87402-1.75562,3.59717,0,.1377,.01733,.29248,.05151,.46436l-1.70386,.27539Zm9.58716-9.39746c-.01733,.20703-.15503,.32715-.44775,.396,.1377,1.42822,.29272,3.8208,.29272,5.90381,0,3.33887-1.13599,6.40234-6.47168,8.60547-.25806-.36133-.8606-1.0498-1.22192-1.37695,4.71582-1.80664,5.83472-4.6123,5.83472-7.19434,0-2.25488-.22388-4.71582-.41309-6.4375l2.427,.10352Z"/></g><g><path class="cls-1" d="M783.46143,47.41872c-1.46973-1.4502-2.20459-3.45898-2.20459-6.02832v-13.12793c0-2.59473,.73779-4.61084,2.21436-6.04785,1.47632-1.43652,3.61792-2.15479,6.42505-2.15479,2.82031,0,4.96533,.71533,6.43506,2.14502s2.20459,3.44922,2.20459,6.05762v13.12793c0,2.5957-.73828,4.61133-2.21436,6.04785-1.47656,1.43701-3.61816,2.15527-6.42529,2.15527-2.82007,0-4.96509-.7251-6.43481-2.1748Zm8.85791-4.19092c.51636-.74756,.77466-1.82373,.77466-3.22705v-10.34766c0-1.40332-.2583-2.47949-.77466-3.22754s-1.32422-1.12207-2.4231-1.12207c-1.09912,0-1.90649,.37402-2.42285,1.12207-.5166,.74805-.77466,1.82422-.77466,3.22754v10.34766c0,1.40332,.25806,2.47949,.77466,3.22705,.51636,.74854,1.32373,1.12256,2.42285,1.12256,1.09888,0,1.90674-.37402,2.4231-1.12256Z"/><path class="cls-1" d="M803.30274,39.8611l8.89771-19.42383h6.15698l-8.65942,19.18555h12.96924v5.24365h-19.3645v-5.00537Zm11.65845-7.54688h5.44189v17.00098h-5.44189v-17.00098Z"/></g><rect class="cls-1" x="780.77213" y="57.13908" width="41.38764" height="2.12812"/></g><g><path class="cls-4" d="M639.27898,72.57291c0,40.08635-32.49516,72.57829-72.57972,72.57829-40.08097,0-72.5747-32.49194-72.5747-72.57829,0-40.07918,32.49373-72.57291,72.5747-72.57291,40.08456,0,72.57972,32.49373,72.57972,72.57291Z"/><g><g><path class="cls-2" d="M476.03102,72.5765c0,11.17938,2.0361,21.88298,5.73005,31.77057,12.87595,34.43159,46.0663,58.94763,84.98671,58.94763,50.10516,0,90.71999-40.61483,90.71999-90.7182h42.42505"/><polyline class="cls-2" points="678.09374 44.78491 705.87314 72.57112 678.09374 100.35553"/></g><g><path class="cls-3" d="M476.03102,72.5765c0,11.17938,2.0361,21.88298,5.73005,31.77057,12.87595,34.43159,46.0663,58.94763,84.98671,58.94763,50.10516,0,90.71999-40.61483,90.71999-90.7182h42.42505"/><polyline class="cls-3" points="678.09374 44.78491 705.87314 72.57112 678.09374 100.35553"/></g></g><g><path class="cls-1" d="M512.75416,80.7781c-.05176,.12109-.20654,.22363-.31006,.29297-1.87598,5.59375-4.62988,9.08789-9.34595,11.46289-.27539-.39551-.77466-.96387-1.25659-1.3252,4.40625-2.09961,7.05713-5.31836,8.39941-9.51855h-5.57666c-.9292,1.42871-2.28906,2.94336-3.75195,4.09668-.32715-.32715-.92969-.82617-1.39429-1.10156,2.28931-1.77246,4.3374-4.44043,5.4563-7.38379l2.18579,.55078c-.05151,.17188-.27539,.25781-.51636,.25781-.30981,.68848-.67139,1.34277-1.01562,1.96289h5.47363l.25806-.10352,1.39429,.80859Z"/><path class="cls-1" d="M520.6858,89.91774c4.02759-1.15332,7.3667-3.30469,9.32886-6.72949,.30981,.39551,.91235,.94629,1.25659,1.22168-2.27197,3.76953-6.21362,6.19629-11.32568,7.52148-.03418,.15527-.15479,.32715-.30957,.37891l-.9812-1.61816,.24097-.36133v-12.42676l2.3064,.12012c-.01733,.18945-.17212,.34473-.51636,.39648v11.49707Z"/><path class="cls-1" d="M534.41798,82.27614c1.54907,.37793,3.39087,1.01514,4.52661,1.56592l-.73999,1.49756c-1.1189-.55078-3.01196-1.23926-4.50952-1.63525l.7229-1.42822Zm.75732,8.22656c5.38745-1.75488,9.2771-4.66406,11.58374-9.77637,.34424,.31055,1.11865,.87793,1.47998,1.10156-2.30615,4.99219-6.47168,8.26172-11.51465,10.00049,.03442,.15479-.05176,.36182-.24097,.44775l-1.30811-1.77344Zm1.23926-12.47852c1.54907,.44775,3.33911,1.10156,4.50952,1.68701l-.80908,1.46338c-1.22192-.6543-2.90869-1.32568-4.45776-1.77344l.75732-1.37695Zm7.93481-.56738c.70557,.61914,1.61768,1.66895,2.13428,2.46094l-.87793,.63672c-.44751-.68848-1.41138-1.87598-2.06543-2.46094l.80908-.63672Zm2.5127-.99902c.70581,.62012,1.61816,1.66992,2.13428,2.42725l-.87769,.63721c-.44751-.70605-1.39429-1.8252-2.0481-2.42725l.7915-.63721Z"/><path class="cls-1" d="M553.64088,81.93142c.48193,1.0498,1.03271,2.66797,1.25635,3.68359l-1.34253,.37891c-.20654-1.05029-.70581-2.58203-1.22192-3.6665l1.30811-.396Zm10.1377,.29297c-.05176,.12012-.20654,.18945-.396,.18945-1.37695,5.04297-3.97583,8.08887-8.02051,9.72461-.18945-.29297-.63696-.82617-.92969-1.10156,3.8728-1.48047,6.35132-4.26855,7.55615-9.38086l1.79004,.56836Zm-5.98975-1.0498c.36133,1.10156,.68848,2.75391,.80908,3.83789l-1.39429,.29297c-.1377-1.11914-.4646-2.70264-.82617-3.83887l1.41138-.29199Z"/><path class="cls-1" d="M580.1443,86.78493c-1.5835-.89453-3.90723-1.99609-5.69727-2.70215v8.33105h-1.80713v-15.06055l2.30615,.1377c-.01709,.18945-.17188,.32715-.49902,.39551v4.92285l.34424-.48193c1.96216,.72314,4.57837,1.87646,6.31689,2.78857l-.96387,1.66895Z"/><path class="cls-1" d="M599.05714,81.38064c-.03442,.08594-.08618,.18945-.17212,.24121-.2583,5.11182-.75732,8.22754-1.41138,9.36328-.56812,.94629-1.42847,1.3252-2.39233,1.3252-.72314,0-1.87622-.1377-3.08105-.37891,.01709-.46484-.03442-1.23926-.10327-1.7207,1.17041,.25781,2.44409,.41309,2.85718,.41309,.56787,0,.92944-.15527,1.22217-.75781,.4646-.89453,.87769-3.63184,1.03271-7.17676h-4.83667c-.82617,3.80371-2.39233,7.17676-5.52515,9.65527-.30957-.30957-.94653-.7915-1.39404-1.0498,2.90869-2.22021,4.37183-5.18066,5.11182-8.62305h-4.4751v-1.60059h4.78516c.18921-1.20508,.25806-2.2207,.34424-3.61426l2.28906,.20605c-.03442,.18945-.18945,.29297-.48193,.34473-.10327,1.16992-.17212,2.03027-.34424,3.06348h4.99146l.3269-.12061,1.25659,.43018Z"/><path class="cls-1" d="M602.42774,83.77321h14.37183v1.72119h-13.68335c-.10327,.17236-.3269,.29248-.55078,.31006l-.1377-2.03125Z"/><path class="cls-1" d="M631.77125,86.82009c-1.5835-.89551-3.90723-1.97949-5.69727-2.68555v8.2793h-1.80713v-15.06055l2.30615,.1377c-.01709,.18945-.17188,.32715-.49902,.39551v4.95703l.34424-.48145c1.96216,.72266,4.57837,1.87598,6.31689,2.80566l-.96387,1.65234Zm-1.5835-8.39941c.72266,.58496,1.70386,1.65234,2.25464,2.42676l-.82617,.70508c-.4646-.70508-1.49731-1.84131-2.20312-2.44336l.77466-.68848Zm2.34082-1.51465c.75732,.65332,1.75537,1.65234,2.25464,2.40918l-.82617,.67139c-.48193-.67139-1.49731-1.79004-2.22046-2.40967l.79199-.6709Z"/><path class="cls-1" d="M542.28199,102.52419c.5166,0,1.25659-.01758,1.73853-.05176,1.75562-.1377,9.81079-.67139,12.39258-.74023l.01733,1.82422c-1.41162-.05176-2.32373,.05176-3.64893,.94727-2.22046,1.41113-4.63013,3.97559-4.63013,6.05859,0,2.16797,1.70386,3.44238,5.71436,3.92383l-.82617,1.7041c-4.90552-.63672-6.7644-2.59863-6.7644-5.61133,0-2.25488,2.15161-5.09473,4.9917-6.9707-2.01392,.15527-6.52344,.49902-8.39941,.68848-.05176,.12061-.2583,.24121-.41309,.27539l-.17236-2.04785Zm11.34277,3.76953c.77441,.60205,1.72119,1.61719,2.20312,2.35742l-.84326,.6543c-.43042-.68848-1.46313-1.82422-2.13428-2.3584l.77441-.65332Zm1.94482-1.53223c.80908,.63672,1.73853,1.5835,2.20312,2.34082l-.82617,.6709c-.43018-.65332-1.39404-1.75488-2.15137-2.35742l.77441-.6543Z"/><path class="cls-1" d="M559.49098,105.12282c1.08447,.41309,2.51318,1.13574,3.21875,1.7041l-.94678,1.37695c-.67114-.60254-2.0481-1.37695-3.16699-1.85889l.89502-1.22217Zm-.39575,10.03467c.8606-1.34229,2.09985-3.59717,3.0293-5.61084l1.23926,1.03223c-.82617,1.8418-1.87622,3.87305-2.66772,5.21582,.06885,.08594,.10303,.18896,.10303,.27539,0,.08594-.03418,.17188-.08594,.24023l-1.61792-1.15283Zm1.35962-14.71631c1.08447,.44727,2.46143,1.20508,3.1499,1.80762l-.94678,1.3252c-.63672-.62012-1.99658-1.44629-3.09814-1.94531l.89502-1.1875Zm14.30322,9.4668h-4.52686c.84351,2.375,2.427,4.23438,4.71631,5.12891-.37891,.32715-.87793,.98145-1.13623,1.42871-2.46118-1.11914-4.0791-3.21875-5.04297-6.00684-.55078,2.30664-1.85889,4.44043-4.87109,6.02441-.29248-.34473-.91211-.9126-1.3252-1.1709,2.87451-1.46289,4.11377-3.35645,4.62988-5.4043h-3.78662v-1.53223h4.04492c.06885-.68848,.08594-1.37695,.08594-2.06543v-1.61768h-3.13232v-1.54932h3.13232v-2.80566l2.01392,.12109c-.01733,.1543-.12036,.24072-.39575,.27539v2.40918h4.09619v5.23242h1.49756v1.53223Zm-5.59375-5.21533v1.63525c0,.68848-.01733,1.35938-.06885,2.04785h2.56445v-3.68311h-2.49561Z"/><path class="cls-1" d="M576.69996,105.12282c1.08447,.41309,2.51318,1.13574,3.21875,1.7041l-.94678,1.37695c-.67114-.60254-2.0481-1.37695-3.16699-1.85889l.89502-1.22217Zm-.37842,10.03467c.87769-1.34229,2.15137-3.59717,3.09814-5.61084l1.23926,1.03223c-.84351,1.8418-1.91064,3.87305-2.73682,5.21582,.06885,.08594,.10327,.18896,.10327,.27539,0,.08594-.03442,.17188-.08618,.24023l-1.61768-1.15283Zm1.34229-14.71631c1.08447,.44727,2.46143,1.20508,3.1499,1.80762l-.94678,1.3252c-.63672-.62012-1.99658-1.44629-3.09814-1.94531l.89502-1.1875Zm11.92798,3.09863l.73999,.22363c-.06885,.17188-.22363,.20605-.41309,.18945-.51611,.86035-1.20459,1.60059-2.03076,2.21973,1.29077,.5166,2.75391,.84375,4.35449,1.11914-.36133,.36133-.74023,.98096-.91211,1.49707l-.55078-.12012c-.03467,.12012-.15503,.22363-.41309,.25781v7.52148h-1.60083v-2.97754h-5.30127c-.36157,1.08496-.99829,2.15137-2.09985,2.97754-.29248-.27539-.89502-.68848-1.29102-.91211,1.97949-1.42871,2.23779-3.58008,2.23779-5.02539v-1.91113c-.41309,.10352-.82617,.18945-1.25659,.27539-.15503-.37793-.51636-1.0498-.77466-1.37695,1.65234-.27539,3.23584-.6709,4.57861-1.27344-.86084-.6543-1.65234-1.44531-2.35815-2.46094l.56812-.22363h-2.08276v-1.46338h4.45776v-1.75537l2.08276,.1377c-.01733,.1377-.12036,.24072-.39575,.27539v1.34229h4.81934v1.46338h-2.35815Zm-.82617,4.99121l1.9104,.12012v-.0166c-1.60059-.36182-3.0293-.80957-4.3374-1.48047-1.10156,.56787-2.34082,1.01562-3.66602,1.35938l1.60059,.10352c-.01709,.15527-.1377,.24121-.39575,.27539v.56836h4.88818v-.92969Zm-4.88818,2.28906c-.01733,.39551-.03442,.82617-.10327,1.27344h4.99146v-1.27344h-4.88818Zm.25806-7.28027c.67139,.77441,1.41162,1.39355,2.22046,1.87598,.79175-.5166,1.4458-1.13623,1.9104-1.87598h-4.13086Z"/></g><g><path class="cls-1" d="M549.51173,47.41872c-1.46973-1.4502-2.20459-3.45898-2.20459-6.02832v-13.12793c0-2.59473,.73779-4.61084,2.21436-6.04785,1.47632-1.43652,3.61792-2.15479,6.42505-2.15479,2.82031,0,4.96533,.71533,6.43506,2.14502s2.20459,3.44922,2.20459,6.05762v13.12793c0,2.5957-.73828,4.61133-2.21436,6.04785-1.47656,1.43701-3.61816,2.15527-6.42529,2.15527-2.82007,0-4.96509-.7251-6.43481-2.1748Zm8.85791-4.19092c.51636-.74756,.77466-1.82373,.77466-3.22705v-10.34766c0-1.40332-.2583-2.47949-.77466-3.22754s-1.32422-1.12207-2.4231-1.12207c-1.09912,0-1.90649,.37402-2.42285,1.12207-.5166,.74805-.77466,1.82422-.77466,3.22754v10.34766c0,1.40332,.25806,2.47949,.77466,3.22705,.51636,.74854,1.32373,1.12256,2.42285,1.12256,1.09888,0,1.90674-.37402,2.4231-1.12256Z"/><path class="cls-1" d="M573.14649,48.63991c-1.36401-.63525-2.44971-1.56201-3.25732-2.78076-.80786-1.21777-1.25122-2.66797-1.33057-4.34961h5.62061c.07935,.59619,.25488,1.10254,.52637,1.51953,.27124,.41699,.61865,.73535,1.04272,.95361,.42358,.21826,.91357,.32764,1.46973,.32764,1.03271,0,1.83032-.28809,2.39331-.86426,.5625-.57568,.84399-1.38672,.84399-2.43262v-.67529c0-1.09912-.22852-1.94678-.6853-2.54248s-1.10913-.89355-1.9563-.89355h-2.44287v-5.24316h2.44287c.68848,0,1.22144-.26172,1.59888-.78467s.56616-1.25439,.56616-2.19482v-.49609c0-.88721-.20874-1.57227-.62573-2.05566s-1.00293-.72559-1.75781-.72559c-.48999,0-.93677,.12646-1.34058,.37793-.40405,.25146-.74463,.61523-1.02271,1.0918-.27808,.47705-.47681,1.05273-.59595,1.72852h-5.60083c.15894-1.76074,.63208-3.28027,1.42017-4.55859,.7876-1.27734,1.81714-2.25098,3.08838-2.91943,1.271-.66846,2.68774-1.00293,4.25024-1.00293,2.55518,0,4.53149,.65234,5.92847,1.95654s2.09546,3.1543,2.09546,5.55078v.87402c0,1.33789-.33765,2.50244-1.01294,3.49561s-1.6355,1.73486-2.87988,2.22412c1.39038,.31836,2.46582,1.04639,3.22754,2.18506,.76123,1.13916,1.14185,2.58887,1.14185,4.34961v.87354c0,1.68213-.33105,3.11865-.99292,4.31055-.66235,1.19141-1.62866,2.09863-2.8999,2.7207-1.271,.62256-2.80029,.93359-4.58789,.93359-1.7478,0-3.30371-.31787-4.66724-.95361Z"/></g><rect class="cls-1" x="546.00795" y="57.13908" width="41.38764" height="2.12812"/></g><g><path class="cls-4" d="M404.26992,72.57291c0,40.08635-32.49516,72.57829-72.57972,72.57829-40.08097,0-72.5747-32.49194-72.5747-72.57829C259.1155,32.49373,291.60923,0,331.6902,0c40.08456,0,72.57972,32.49373,72.57972,72.57291Z"/><g><g><path class="cls-2" d="M241.02197,72.5765c0,11.17938,2.0361,21.88298,5.73005,31.77057,12.87595,34.43159,46.0663,58.94763,84.98671,58.94763,50.10516,0,90.71999-40.61483,90.71999-90.7182h42.42505"/><polyline class="cls-2" points="443.08469 44.78491 470.86409 72.57112 443.08469 100.35553"/></g><g><path class="cls-3" d="M241.02197,72.5765c0,11.17938,2.0361,21.88298,5.73005,31.77057,12.87595,34.43159,46.0663,58.94763,84.98671,58.94763,50.10516,0,90.71999-40.61483,90.71999-90.7182h42.42505"/><polyline class="cls-3" points="443.08469 44.78491 470.86409 72.57112 443.08469 100.35553"/></g></g><g><path class="cls-1" d="M294.40357,91.2947c-1.42871,.2583-3.4082,.36133-5.18091,.36133-1.48022,0-2.78833-.06836-3.51123-.22363-2.15161-.46484-3.06372-1.87598-3.06372-3.4082,0-1.3252,.70557-2.65039,1.66943-3.64844l1.46313,.68848c-.87769,.87793-1.39429,1.8584-1.39429,2.70215,0,.92969,.60254,1.77246,1.94507,2.06543,.60229,.12012,1.54907,.18945,2.61621,.18945,1.68677,0,3.71777-.15527,5.3186-.48242l.1377,1.75586Zm-8.08984-8.8125c.72314-.56787,1.80737-1.3252,2.59912-1.75586v-.0166c-1.06714,.1543-3.78662,.20605-5.45605,.18945,0-.43066,0-1.27441-.03467-1.66992,1.63525,.03418,5.18091-.03418,6.72998-.1377,1.01562-.06885,2.1687-.18945,3.16699-.39551l.15479,1.77246c-2.15137,.27539-4.62988,1.92773-5.71436,2.80566l-1.4458-.79199Zm7.8833,2.68555c-.43042-.68848-1.49756-1.75586-2.20312-2.27246l.73999-.68848c.79175,.58496,1.75562,1.56641,2.27197,2.27246l-.80884,.68848Zm1.87598-1.72168c-.44751-.63672-1.46289-1.68652-2.20312-2.27148l.74023-.67188c.80884,.60254,1.73828,1.56641,2.2373,2.25488l-.77441,.68848Z"/><path class="cls-1" d="M298.61744,81.65603c1.15332,.37891,2.65063,1.06738,3.40796,1.63525l-.87769,1.37695c-.72314-.56787-2.20312-1.32568-3.37354-1.77295l.84326-1.23926Zm-.15479,10c.94653-1.3252,2.28906-3.5625,3.30469-5.55957l1.20459,1.08496c-.91211,1.80664-2.0481,3.8208-2.92578,5.18066,.06885,.08594,.08594,.17188,.08594,.25781,0,.10352-.03442,.18945-.08594,.25879l-1.5835-1.22266Zm1.27344-14.69873c1.15332,.43018,2.61621,1.20459,3.33936,1.82471l-.96387,1.3252c-.68848-.62012-2.1001-1.44629-3.25317-1.94531l.87769-1.20459Zm9.41504,13.90723h4.81934v1.56592h-11.35986v-1.56592h4.85376v-3.76904h-3.6145v-1.56641h3.6145v-3.35645h-4.25122v-1.54883h5.76587c-.87769-.84375-2.44409-1.87646-3.73511-2.56494l1.06738-1.23926c1.41113,.68848,3.20117,1.80713,4.0791,2.66748l-.94678,1.13672h4.14819v1.54883h-4.44067v3.35645h3.78662v1.56641h-3.78662v3.76904Z"/><path class="cls-1" d="M331.02467,81.31228h-3.23584c.7915,.27539,.87769,.30957,.96387,.34375-.06885,.12061-.22388,.20703-.48193,.18945-.94678,2.58203-2.22046,4.68164-3.8728,6.36816,1.85889,1.46289,4.14819,2.53027,6.88477,3.15039-.37866,.37793-.91235,1.13574-1.17041,1.63477-2.85718-.72266-5.198-1.91016-7.09131-3.52832-1.9104,1.54883-4.23413,2.68457-7.03979,3.52832-.18921-.41309-.63672-1.13574-.96387-1.51465,2.66797-.72266,4.90552-1.77246,6.74707-3.20117-1.72119-1.80762-3.01196-4.04492-3.99316-6.67871l.91235-.29199h-3.44238v-1.58398h7.00513v-2.87402l2.06543,.12012c-.01709,.1377-.12036,.24121-.39575,.27539v2.47852h7.10864v1.58398Zm-11.54932,0c.80908,2.2373,2.03101,4.18213,3.63184,5.76562,1.51465-1.53223,2.68506-3.44238,3.51123-5.76562h-7.14307Z"/><path class="cls-1" d="M348.09596,78.66091v1.49805h-3.64893l.60229,.1377c-.06885,.12012-.18921,.18945-.43042,.20605-.20654,.46484-.51611,1.06738-.82617,1.58398h3.45972v9.03613c0,1.66943-.67114,1.87598-3.78662,1.87598-.06885-.46484-.3269-1.15332-.55078-1.5835,.65405,.03467,1.30811,.05127,1.79004,.05127,.91235,0,.9812,0,.9812-.37793v-5.23242c-.24121,.25781-.56812,.34375-1.06738,.34375h-1.72119c-1.39404,0-1.70386-.36133-1.70386-1.60059v-1.10156h-1.92773c-.18921,1.72119-.80884,2.92578-3.4939,3.52832-.12061-.30957-.43042-.79199-.70581-1.06738v7.04004h-1.54907v-10.91211h3.2876c-.17236-.55078-.44775-1.23926-.72314-1.75586l.86084-.17188h-4.37207v-1.49805h6.83325v-1.80664l2.06543,.12012c-.01733,.15527-.12036,.24121-.39575,.29297v1.39355h7.02246Zm-13.02954,4.83691v2.39258c1.99658-.396,2.58179-1.06738,2.77124-2.39258h-2.77124Zm8.70923,7.79688h-5.28418v1.01562h-1.46289v-5.37012h6.74707v4.35449Zm-5.47339-9.20801h3.73511c.27539-.56836,.58496-1.30859,.7915-1.92773h-5.11182c.32715,.60254,.67139,1.34229,.80908,1.87598l-.22388,.05176Zm3.99316,6.09277h-3.80396v1.85889h3.80396v-1.85889Zm2.11694-3.20117c.32715,0,.396-.06934,.44775-.60254,.17188,.1377,.51611,.25781,.82617,.36133v-1.23926h-3.08105v1.10156c0,.32715,.06885,.37891,.48193,.37891h1.3252Z"/><path class="cls-1" d="M350.20997,92.96462v-7.53906h6.45435v7.40137h-1.61768v-.62012h-3.2876v.75781h-1.54907Zm4.83667-5.97266h-3.2876v3.64844h3.2876v-3.64844Zm7.02246-9.55273v6.38574h-9.03638v-6.38574h9.03638Zm-1.66968,4.81934v-3.25293h-5.80054v3.25293h5.80054Zm-2.09985,3.16699h6.6438v7.40137h-1.63501v-.62012h-3.44238v.72314h-1.56641v-7.50439Zm1.56641,5.19824h3.44238v-3.63184h-3.44238v3.63184Z"/><path class="cls-1" d="M382.01466,84.65114c-.03442,.01709-.06885,.01709-.10327,.01709-.10327,0-.20654-.03467-.29248-.08643-1.29102,.39648-3.08105,1.01562-4.44092,1.56641,.03467,.37891,.05176,.80957,.05176,1.29102,0,.46484-.01709,.98145-.05176,1.54883l-1.73828,.12109c.06885-.74023,.10327-1.7041,.06885-2.28906-1.61792,.80859-2.8916,1.80664-2.8916,2.65039,0,.86035,1.06714,1.27344,3.21875,1.27344,1.5835,0,3.20117-.06836,4.30273-.20605l.01733,1.60059c-.96387,.10303-2.46118,.1377-4.3374,.1377-3.30469,0-4.87085-.75781-4.87085-2.71973,0-1.4458,1.89307-2.96045,4.38892-4.23438-.08618-.77441-.43042-1.27344-1.03271-1.27344-1.20483,0-2.46118,.6543-3.92432,2.30664-.44751,.49902-1.10156,1.16992-1.85889,1.87598l-1.18774-1.1709c.80908-.72266,1.72119-1.53125,2.27197-2.2373,.75732-.96387,1.54932-2.47852,1.89355-3.71777l-.79199,.01758c-.68848,0-1.9104,0-2.771-.01758v-1.54883c1.01562,.03418,2.23755,.05176,2.96045,.05176l1.0498-.01758c.15503-.74023,.29272-1.46289,.41309-2.375l2.16895,.24121c-.03467,.17188-.18945,.27539-.41309,.30957-.12061,.61914-.2583,1.1875-.41309,1.75586,1.27344-.03516,3.54541-.31055,5.55933-.98145l.29272,1.63477c-1.89355,.58594-4.38916,.80957-6.2998,.87793-.34424,1.10156-.70557,1.97949-1.03271,2.44434h.01733c.68848-.56836,1.68677-.96387,2.5647-.96387,1.06689,0,1.87598,.75732,2.11694,2.11719,1.39429-.62012,3.09814-1.25684,4.42358-1.77295l.67114,1.77295Z"/><path class="cls-1" d="M307.2732,105.12282c1.08447,.41309,2.51318,1.13574,3.21875,1.7041l-.94678,1.37695c-.67114-.60254-2.0481-1.37695-3.16699-1.85889l.89502-1.22217Zm-.39575,10.03467c.8606-1.34229,2.09985-3.59717,3.0293-5.61084l1.23926,1.03223c-.82617,1.8418-1.87622,3.87305-2.66772,5.21582,.06885,.08594,.10303,.18896,.10303,.27539,0,.08594-.03418,.17188-.08594,.24023l-1.61792-1.15283Zm1.35962-14.71631c1.08447,.44727,2.46143,1.20508,3.1499,1.80762l-.94678,1.3252c-.63672-.62012-1.99658-1.44629-3.09814-1.94531l.89502-1.1875Zm14.30322,9.4668h-4.52686c.84351,2.375,2.427,4.23438,4.71631,5.12891-.37891,.32715-.87793,.98145-1.13623,1.42871-2.46118-1.11914-4.0791-3.21875-5.04297-6.00684-.55078,2.30664-1.85889,4.44043-4.87109,6.02441-.29248-.34473-.91211-.9126-1.3252-1.1709,2.87451-1.46289,4.11377-3.35645,4.62988-5.4043h-3.78662v-1.53223h4.04492c.06885-.68848,.08594-1.37695,.08594-2.06543v-1.61768h-3.13232v-1.54932h3.13232v-2.80566l2.01392,.12109c-.01733,.1543-.12036,.24072-.39575,.27539v2.40918h4.09619v5.23242h1.49756v1.53223Zm-5.59375-5.21533v1.63525c0,.68848-.01733,1.35938-.06885,2.04785h2.56445v-3.68311h-2.49561Z"/><path class="cls-1" d="M336.0315,101.23317c-.05176,.17188-.22363,.24121-.44751,.25781-.18921,1.13623-.44751,2.25488-.7229,3.25293,2.75391,.6543,4.38916,2.70264,4.38916,5.45654,0,3.06396-2.20312,5.02588-6.52344,5.68018-.22363-.48242-.51636-1.0498-.79175-1.46289,3.52856-.49951,5.55933-1.8252,5.55933-4.18262,0-1.87598-1.13574-3.39062-3.13232-3.90723-.77466,2.39258-1.79004,4.26855-2.8916,5.61133,.22363,.27539,.4646,.49902,.70557,.72266l-1.1875,1.1875c-.22388-.22363-.44775-.44727-.6543-.70605-1.11865,.96387-2.30615,1.46338-3.45947,1.46338-1.65234,0-2.68506-1.37695-2.68506-3.33936,0-1.54883,.67139-3.80371,2.99487-5.30078-.3269-1.29102-.60229-2.70215-.84351-4.18262l2.13428-.06934c0,.15527-.12036,.34473-.36133,.39648,.1377,1.08398,.32715,2.11719,.53369,3.13232,.98096-.48193,2.25464-.7915,3.52832-.82617,.29248-.01709,.67139-.01709,.92944,0,.27539-1.10156,.48193-2.35791,.65405-3.68311l2.27197,.49902Zm-6.62646,10.61963c-.70581-1.15283-1.27393-2.58154-1.77295-4.26855-1.34253,1.03271-1.85889,2.47852-1.85889,3.58008,0,1.08447,.44751,1.84131,1.23926,1.84131,.91211,0,1.72119-.51562,2.39258-1.15283Zm1.08423-1.30811c.8606-1.11914,1.60083-2.61621,2.18579-4.56152-.18921-.0166-.41309-.0166-.58496-.0166-1.13623,.03418-2.16895,.27539-3.08105,.77441,.37866,1.44531,.8606,2.75391,1.48022,3.80371Z"/><path class="cls-1" d="M347.38844,107.68728c1.0498-.49902,2.59912-.7915,3.76953-.7915,2.66772,0,4.44043,1.5835,4.44043,4.19971,0,3.11523-2.71924,4.87109-6.31665,4.87109-2.23755,0-3.78662-.96387-3.78662-2.59912,0-1.32568,1.34253-2.40967,2.94312-2.40967,1.87622,0,3.20166,1.37695,3.47705,2.8916,1.11865-.44727,1.89307-1.41113,1.89307-2.71973,0-1.66895-1.29077-2.73633-3.23584-2.73633-2.46118,0-4.802,1.06738-5.98975,2.20312-.44727,.43018-1.13574,1.13574-1.5835,1.63477l-1.22192-1.20459c1.35962-1.41162,5.98975-5.81787,8.31323-7.96924-.91211,.12061-4.13086,.27539-5.7832,.34473-.03418,.12012-.22363,.24023-.37842,.27539l-.17236-1.97949c2.27197,0,6.91943-.17236,8.10693-.36133l.2583-.1377,1.1875,1.44531c-.12061,.10352-.29248,.15527-.48193,.18945-1.0498,.80859-4.04492,3.58008-5.43896,4.83691v.0166Zm1.63525,6.78174c.37842,0,.94653-.06885,1.29077-.1377-.15503-1.11865-.99829-1.99658-2.03101-1.99658-.7229,0-1.37695,.39551-1.37695,1.03271,0,.87744,1.1875,1.10156,2.11719,1.10156Z"/></g><g><path class="cls-1" d="M314.75123,47.41872c-1.46973-1.4502-2.20459-3.45898-2.20459-6.02832v-13.12793c0-2.59473,.73779-4.61084,2.21436-6.04785,1.47632-1.43652,3.61792-2.15479,6.42505-2.15479,2.82031,0,4.96533,.71533,6.43506,2.14502s2.20459,3.44922,2.20459,6.05762v13.12793c0,2.5957-.73828,4.61133-2.21436,6.04785-1.47656,1.43701-3.61816,2.15527-6.42529,2.15527-2.82007,0-4.96509-.7251-6.43481-2.1748Zm8.85791-4.19092c.51636-.74756,.77466-1.82373,.77466-3.22705v-10.34766c0-1.40332-.2583-2.47949-.77466-3.22754s-1.32422-1.12207-2.4231-1.12207c-1.09912,0-1.90649,.37402-2.42285,1.12207-.5166,.74805-.77466,1.82422-.77466,3.22754v10.34766c0,1.40332,.25806,2.47949,.77466,3.22705,.51636,.74854,1.32373,1.12256,2.42285,1.12256,1.09888,0,1.90674-.37402,2.4231-1.12256Z"/><path class="cls-1" d="M334.55274,44.38942l9.91064-13.02832c.44995-.58301,.79761-1.18213,1.04272-1.79785,.24487-.61523,.36743-1.18848,.36743-1.71777v-.04004c0-.78076-.25171-1.3833-.75464-1.80713-.50342-.42334-1.21851-.63525-2.14502-.63525-.90063,0-1.62866,.29443-2.18481,.88379-.55615,.58887-.8938,1.42676-1.01294,2.51221v.02002h-5.58081v-.02002c.11914-1.80029,.55249-3.3501,1.30078-4.64746,.74805-1.29736,1.75781-2.2876,3.02881-2.96924,1.27124-.68164,2.74097-1.02295,4.40918-1.02295,1.80054,0,3.33984,.29492,4.61768,.88379,1.27783,.58936,2.25098,1.44678,2.91968,2.57178,.66846,1.12598,1.00293,2.48291,1.00293,4.07178v.02002c0,1.31055-.22827,2.61133-.68506,3.90234-.45679,1.29102-1.09595,2.45996-1.91675,3.50586l-7.11035,8.97705h9.87109v5.24365h-17.08057v-4.90625Z"/></g><rect class="cls-1" x="310.99889" y="57.13908" width="41.38764" height="2.12812"/></g><g><path class="cls-4" d="M169.50575,72.57291c0,40.08635-32.49516,72.57829-72.57972,72.57829-40.08097,0-72.5747-32.49194-72.5747-72.57829C24.35132,32.49373,56.84505,0,96.92602,0c40.08456,0,72.57972,32.49373,72.57972,72.57291Z"/><g><g><path class="cls-2" d="M6.25779,72.5765c0,11.17938,2.0361,21.88298,5.73005,31.77057,12.87595,34.43159,46.0663,58.94763,84.98671,58.94763,50.10516,0,90.71999-40.61483,90.71999-90.7182h42.42505"/><polyline class="cls-2" points="208.32051 44.78491 236.09991 72.57112 208.32051 100.35553"/></g><g><path class="cls-3" d="M6.25779,72.5765c0,11.17938,2.0361,21.88298,5.73005,31.77057,12.87595,34.43159,46.0663,58.94763,84.98671,58.94763,50.10516,0,90.71999-40.61483,90.71999-90.7182h42.42505"/><polyline class="cls-3" points="208.32051 44.78491 236.09991 72.57112 208.32051 100.35553"/></g></g><g><path class="cls-1" d="M59.63941,91.2947c-1.42871,.2583-3.4082,.36133-5.18091,.36133-1.48022,0-2.78833-.06836-3.51123-.22363-2.15161-.46484-3.06372-1.87598-3.06372-3.4082,0-1.3252,.70557-2.65039,1.66943-3.64844l1.46313,.68848c-.87769,.87793-1.39429,1.8584-1.39429,2.70215,0,.92969,.60254,1.77246,1.94507,2.06543,.60229,.12012,1.54907,.18945,2.61621,.18945,1.68677,0,3.71777-.15527,5.3186-.48242l.1377,1.75586Zm-8.08984-8.8125c.72314-.56787,1.80737-1.3252,2.59912-1.75586v-.0166c-1.06714,.1543-3.78662,.20605-5.45605,.18945,0-.43066,0-1.27441-.03467-1.66992,1.63525,.03418,5.18091-.03418,6.72998-.1377,1.01562-.06885,2.1687-.18945,3.16699-.39551l.15479,1.77246c-2.15137,.27539-4.62988,1.92773-5.71436,2.80566l-1.4458-.79199Zm7.8833,2.68555c-.43042-.68848-1.49756-1.75586-2.20312-2.27246l.73999-.68848c.79175,.58496,1.75562,1.56641,2.27197,2.27246l-.80884,.68848Zm1.87598-1.72168c-.44751-.63672-1.46289-1.68652-2.20312-2.27148l.74023-.67188c.80884,.60254,1.73828,1.56641,2.2373,2.25488l-.77441,.68848Z"/><path class="cls-1" d="M63.85328,81.65603c1.15332,.37891,2.65063,1.06738,3.40796,1.63525l-.87769,1.37695c-.72314-.56787-2.20312-1.32568-3.37354-1.77295l.84326-1.23926Zm-.15479,10c.94653-1.3252,2.28906-3.5625,3.30469-5.55957l1.20459,1.08496c-.91211,1.80664-2.0481,3.8208-2.92578,5.18066,.06885,.08594,.08594,.17188,.08594,.25781,0,.10352-.03442,.18945-.08594,.25879l-1.5835-1.22266Zm1.27344-14.69873c1.15332,.43018,2.61621,1.20459,3.33936,1.82471l-.96387,1.3252c-.68848-.62012-2.1001-1.44629-3.25317-1.94531l.87769-1.20459Zm9.41504,13.90723h4.81934v1.56592h-11.35986v-1.56592h4.85376v-3.76904h-3.6145v-1.56641h3.6145v-3.35645h-4.25122v-1.54883h5.76587c-.87769-.84375-2.44409-1.87646-3.73511-2.56494l1.06738-1.23926c1.41113,.68848,3.20117,1.80713,4.0791,2.66748l-.94678,1.13672h4.14819v1.54883h-4.44067v3.35645h3.78662v1.56641h-3.78662v3.76904Z"/><path class="cls-1" d="M96.26051,81.31228h-3.23584c.7915,.27539,.87769,.30957,.96387,.34375-.06885,.12061-.22388,.20703-.48193,.18945-.94678,2.58203-2.22046,4.68164-3.8728,6.36816,1.85889,1.46289,4.14819,2.53027,6.88477,3.15039-.37866,.37793-.91235,1.13574-1.17041,1.63477-2.85718-.72266-5.198-1.91016-7.09131-3.52832-1.9104,1.54883-4.23413,2.68457-7.03979,3.52832-.18921-.41309-.63672-1.13574-.96387-1.51465,2.66797-.72266,4.90552-1.77246,6.74707-3.20117-1.72119-1.80762-3.01196-4.04492-3.99316-6.67871l.91235-.29199h-3.44238v-1.58398h7.00513v-2.87402l2.06543,.12012c-.01709,.1377-.12036,.24121-.39575,.27539v2.47852h7.10864v1.58398Zm-11.54932,0c.80908,2.2373,2.03101,4.18213,3.63184,5.76562,1.51465-1.53223,2.68506-3.44238,3.51123-5.76562h-7.14307Z"/><path class="cls-1" d="M103.60694,77.64577c-.03442,.20654-.18921,.34424-.53345,.37842-.1377,2.16895-.31006,6.4375-.31006,8.96777,0,2.39258,1.18774,3.51074,3.18433,3.51074,1.89331,0,3.90698-.94629,5.86938-3.0459,.20654,.37842,.75732,1.22168,1.01538,1.49707-2.08276,2.2207-4.42358,3.32227-6.9021,3.32227-3.4939,0-5.02588-1.9624-5.02588-5.28418,0-2.2373,.1377-7.40137,.27539-9.50098l2.427,.15479Z"/><path class="cls-1" d="M125.3943,81.03689c-1.37695,.46436-3.21875,.77441-4.99146,.91211-.68848,3.76953-1.75562,7.67627-3.04663,10.55078l-1.75537-.62012c1.37695-2.75391,2.39233-6.16113,3.0293-9.84473-.2583,.01709-.53369,.01709-.77466,.01709-.82617,0-1.61792,0-2.22046-.01709l-.01709-1.63525c.55078,.03467,1.4458,.03467,2.27197,.03467,.30981,0,.63672,0,.98096-.01758,.1377-1.03223,.27539-2.2373,.37891-3.27051l2.32349,.22412c-.03442,.18896-.25806,.34424-.49927,.37842-.10303,.68848-.24072,1.61816-.39575,2.51318,1.53198-.15479,3.08081-.43018,4.37183-.9126l.34424,1.6875Zm4.56104,11.16992c-.51611,.03467-1.06689,.05176-1.63501,.05176-1.4458,0-2.92603-.12012-3.88989-.36133-1.37695-.34424-2.09985-1.30811-2.08252-2.47852,0-.98145,.53345-1.89355,1.08423-2.53027l1.4458,.56836c-.56812,.61914-.84351,1.22168-.84351,1.7041,0,1.2041,1.29102,1.42822,3.90723,1.42822,.68848,0,1.39404-.01709,2.04834-.08643l-.03467,1.7041Zm-6.59204-8.48535c1.73853-.55078,4.18237-.89453,6.19629-.86035v1.63477c-1.89331-.06836-4.07935,.18945-5.81763,.68848l-.37866-1.46289Z"/><path class="cls-1" d="M135.39137,79.22927c-.03418,.15527-.22363,.27539-.4646,.29297-.24097,1.3418-.37866,3.06348-.37866,4.6123,0,4.68164,1.53174,5.69727,2.40967,5.69727,.63672-.01758,1.4458-1.75586,1.92773-3.4082,.34424,.31006,.99829,.84375,1.41138,1.0498-.9812,3.06445-2.08276,4.2002-3.42505,4.2002-2.427,0-3.82129-3.01221-4.0105-6.02441-.05151-.6543-.06885-1.37695-.06885-2.13379,0-1.51465,.08618-3.18457,.27539-4.7334l2.32349,.44727Zm10.48218,8.1582c-.49927-3.0459-1.97925-5.04297-4.19971-6.31641l1.08423-1.29102c2.46143,1.3252,4.38916,3.75195,4.90552,7.04004l-1.79004,.56738Z"/><path class="cls-1" d="M70.30933,102.12771v1.49805h-3.64893l.60229,.1377c-.06885,.12012-.18921,.18945-.43042,.20605-.20654,.46484-.51611,1.06738-.82617,1.58398h3.45972v9.03613c0,1.66943-.67114,1.87598-3.78662,1.87598-.06885-.46484-.3269-1.15332-.55078-1.5835,.65405,.03467,1.30811,.05127,1.79004,.05127,.91235,0,.9812,0,.9812-.37793v-5.23242c-.24121,.25781-.56812,.34375-1.06738,.34375h-1.72119c-1.39404,0-1.70386-.36133-1.70386-1.60059v-1.10156h-1.92773c-.18921,1.72119-.80884,2.92578-3.4939,3.52832-.12061-.30957-.43042-.79199-.70581-1.06738v7.04004h-1.54907v-10.91211h3.2876c-.17236-.55078-.44775-1.23926-.72314-1.75586l.86084-.17188h-4.37207v-1.49805h6.83325v-1.80664l2.06543,.12012c-.01733,.15527-.12036,.24121-.39575,.29297v1.39355h7.02246Zm-13.02954,4.83691v2.39258c1.99658-.396,2.58179-1.06738,2.77124-2.39258h-2.77124Zm8.70923,7.79688h-5.28418v1.01562h-1.46289v-5.37012h6.74707v4.35449Zm-5.47339-9.20801h3.73511c.27539-.56836,.58496-1.30859,.7915-1.92773h-5.11182c.32715,.60254,.67139,1.34229,.80908,1.87598l-.22388,.05176Zm3.99316,6.09277h-3.80396v1.85889h3.80396v-1.85889Zm2.11694-3.20117c.32715,0,.396-.06934,.44775-.60254,.17188,.1377,.51611,.25781,.82617,.36133v-1.23926h-3.08105v1.10156c0,.32715,.06885,.37891,.48193,.37891h1.3252Z"/><path class="cls-1" d="M72.42335,116.43142v-7.53906h6.45435v7.40137h-1.61768v-.62012h-3.2876v.75781h-1.54907Zm4.83667-5.97266h-3.2876v3.64844h3.2876v-3.64844Zm7.02246-9.55273v6.38574h-9.03638v-6.38574h9.03638Zm-1.66968,4.81934v-3.25293h-5.80054v3.25293h5.80054Zm-2.09985,3.16699h6.6438v7.40137h-1.63501v-.62012h-3.44238v.72314h-1.56641v-7.50439Zm1.56641,5.19824h3.44238v-3.63184h-3.44238v3.63184Z"/><path class="cls-1" d="M104.22804,108.11794c-.03442,.01709-.06885,.01709-.10327,.01709-.10327,0-.20654-.03467-.29248-.08643-1.29102,.39648-3.08105,1.01562-4.44092,1.56641,.03467,.37891,.05176,.80957,.05176,1.29102,0,.46484-.01709,.98145-.05176,1.54883l-1.73828,.12109c.06885-.74023,.10327-1.7041,.06885-2.28906-1.61792,.80859-2.8916,1.80664-2.8916,2.65039,0,.86035,1.06714,1.27344,3.21875,1.27344,1.5835,0,3.20117-.06836,4.30273-.20605l.01733,1.60059c-.96387,.10303-2.46118,.1377-4.3374,.1377-3.30469,0-4.87085-.75781-4.87085-2.71973,0-1.4458,1.89307-2.96045,4.38892-4.23438-.08618-.77441-.43042-1.27344-1.03271-1.27344-1.20483,0-2.46118,.6543-3.92432,2.30664-.44751,.49902-1.10156,1.16992-1.85889,1.87598l-1.18774-1.1709c.80908-.72266,1.72119-1.53125,2.27197-2.2373,.75732-.96387,1.54932-2.47852,1.89355-3.71777l-.79199,.01758c-.68848,0-1.9104,0-2.771-.01758v-1.54883c1.01562,.03418,2.23755,.05176,2.96045,.05176l1.0498-.01758c.15503-.74023,.29272-1.46289,.41309-2.375l2.16895,.24121c-.03467,.17188-.18945,.27539-.41309,.30957-.12061,.61914-.2583,1.1875-.41309,1.75586,1.27344-.03516,3.54541-.31055,5.55933-.98145l.29272,1.63477c-1.89355,.58594-4.38916,.80957-6.2998,.87793-.34424,1.10156-.70557,1.97949-1.03271,2.44434h.01733c.68848-.56836,1.68677-.96387,2.5647-.96387,1.06689,0,1.87598,.75732,2.11694,2.11719,1.39429-.62012,3.09814-1.25684,4.42358-1.77295l.67114,1.77295Z"/><path class="cls-1" d="M109.69849,107.13649v5.61133c1.1875,1.92773,3.40796,1.92773,6.67822,1.92773,2.01367,0,4.42334-.05176,5.93799-.15527-.17188,.36182-.41309,1.06738-.49902,1.53223-1.30811,.05176-3.32178,.08594-5.14648,.08594-3.8208,0-6.00684,0-7.62476-2.06543-.70581,.72266-1.4458,1.42871-2.06543,1.99707,.01733,.1543-.03442,.24023-.17212,.30957l-.84326-1.65234c.67114-.49902,1.47998-1.15332,2.22021-1.8418v-4.23438h-2.01367v-1.51465h3.52832Zm-2.23755-6.41992c.9812,.82617,2.09985,2.01367,2.58179,2.87451l-1.37695,.9292c-.44751-.86035-1.51465-2.11719-2.49561-2.99463l1.29077-.80908Zm6.69556,10.77441l1.56616,.63721c-.06885,.10303-.20654,.15479-.39575,.12061-.91235,.70557-2.32373,1.48047-3.52856,1.97949-.27539-.27539-.77466-.72314-1.10156-.94727,1.17041-.41309,2.51294-1.10156,3.33911-1.79004h-3.66602v-1.23926h3.01196v-1.39355h-2.35815v-1.22266h2.35815v-1.1875l1.92773,.10352c-.01733,.15527-.12036,.24121-.39575,.27539v.80859h2.40967v-1.1875l1.96191,.10352c-.01709,.15527-.12036,.24121-.39575,.27539v.80859h2.427v1.22266h-2.427v1.39355h3.11548v1.23926h-3.83838c1.35986,.63721,2.87451,1.44629,3.7522,2.08301l-1.63501,.6709c-.75732-.63672-2.1001-1.46289-3.39087-2.08203l1.08423-.67188h-3.8208Zm-.32715-8.51953v-.94629h-3.25293v-1.08496h4.64697v3.13281h-2.94312v.63672c0,.34473,.08618,.396,.60229,.396h1.65234c.36157,0,.44775-.08643,.49927-.7749,.27539,.18945,.79175,.36182,1.15308,.43066-.1377,1.15332-.49902,1.46289-1.47998,1.46289h-2.01392c-1.39429,0-1.77271-.30957-1.77271-1.51465v-1.73828h2.90869Zm1.08447,5.88672v1.39355h2.40967v-1.39355h-2.40967Zm4.76758-5.88672v-.94629h-3.45947v-1.08496h4.87085v3.13281h-3.08081v.61963c0,.36182,.08594,.41309,.61963,.41309h1.77271c.41309,0,.49927-.10303,.53345-.82617,.27539,.20654,.80908,.36182,1.17041,.44775-.1377,1.1875-.51611,1.49707-1.53174,1.49707h-2.11719c-1.42847,0-1.82422-.30957-1.82422-1.51465v-1.73828h3.04639Z"/><path class="cls-1" d="M123.44801,112.88552c.99805-.6543,2.75391-1.97949,4.13086-3.21875l.86035,1.27344c-1.11865,1.05029-2.71924,2.39258-3.58008,3.08105,.01733,.24121-.06885,.41309-.22363,.49902l-1.1875-1.63477Zm4.81934-12.08301c1.70386,.99854,4.32007,1.85938,6.55762,2.04883l-.36133,1.56592c-.22388-.03467-.44775-.06885-.6543-.06885-.77441,0-1.46289,.32715-2.39233,1.20508l-1.48022-.49902c.41309-.44824,1.13599-1.05029,1.5835-1.23926-1.10156-.24121-2.71948-.84375-4.0791-1.6875l.82617-1.3252Zm2.54736,5.81787c-.2583,.44775-.396,.84326-.396,1.20459,0,.63672,.43018,1.1875,1.49756,1.89355,1.3252,.89502,2.03076,2.03125,2.03076,3.39062,0,1.75586-1.35962,2.77148-2.94312,2.77148-.89502,0-1.89331-.32715-3.33911-1.06738,.17212-.41309,.29248-.87793,.396-1.39453,1.3252,.68848,2.20312,.89551,2.68506,.89551,.94653,0,1.41113-.49902,1.41113-1.29102,0-.74023-.55078-1.66992-1.70386-2.44434-1.13599-.7915-1.72119-1.60059-1.72119-2.59863,0-.55078,.17212-1.15332,.55078-1.8418l1.53198,.48193Zm3.83813,1.61768c1.96216,.80957,3.71777,2.42676,4.54395,4.81934l-1.61792,.86084c-.70557-2.1001-2.18604-3.8042-3.88989-4.49268l.96387-1.1875Zm.67114-7.22852c.84351,.6709,1.73853,1.65234,2.16895,2.39258l-.84351,.65332c-.44751-.75684-1.27368-1.7207-2.11694-2.40918l.7915-.63672Zm2.28931-1.01562c.8606,.70557,1.70386,1.58301,2.15161,2.375l-.84351,.6543c-.4646-.75781-1.27368-1.7041-2.09985-2.375l.79175-.6543Z"/></g><g><path class="cls-1" d="M83.73072,47.41872c-1.46973-1.4502-2.20459-3.45898-2.20459-6.02832v-13.12793c0-2.59473,.73779-4.61084,2.21436-6.04785,1.47632-1.43652,3.61792-2.15479,6.42505-2.15479,2.82031,0,4.96533,.71533,6.43506,2.14502s2.20459,3.44922,2.20459,6.05762v13.12793c0,2.5957-.73828,4.61133-2.21436,6.04785-1.47656,1.43701-3.61816,2.15527-6.42529,2.15527-2.82007,0-4.96509-.7251-6.43481-2.1748Zm8.85791-4.19092c.51636-.74756,.77466-1.82373,.77466-3.22705v-10.34766c0-1.40332-.2583-2.47949-.77466-3.22754s-1.32422-1.12207-2.4231-1.12207c-1.09912,0-1.90649,.37402-2.42285,1.12207-.5166,.74805-.77466,1.82422-.77466,3.22754v10.34766c0,1.40332,.25806,2.47949,.77466,3.22705,.51636,.74854,1.32373,1.12256,2.42285,1.12256,1.09888,0,1.90674-.37402,2.4231-1.12256Z"/><path class="cls-1" d="M111.73487,49.29567h-5.44189V26.81228l-3.51538,1.33105v-5.7793l4.30981-1.94678h4.64746v28.87842Z"/></g><rect class="cls-1" x="76.23472" y="57.13908" width="41.38764" height="2.12812"/></g></g></g></svg>